<svg width="169" height="213" viewBox="0 0 169 213" fill="none" xmlns="http://www.w3.org/2000/svg">
<path d="M2.83555 155.93V28.7615L0.42334 27.543V154.73L2.83555 155.93Z" fill="#3A3A3A"/>
<path d="M2.83545 155.931L5.73866 154.491V27.3037L2.83545 28.7622V155.931Z" fill="#4D4D4D"/>
<path d="M54.0685 130.416V3.24733L51.6562 2.02881V129.216L54.0685 130.416Z" fill="#3A3A3A"/>
<path d="M54.0679 130.417L56.9711 128.977V1.78955L54.0679 3.24808V130.417Z" fill="#4D4D4D"/>
<path d="M0.42334 27.5446L2.83555 28.7631L5.73876 27.3045L3.32655 26.1045L0.42334 27.5446Z" fill="#A3A3A3"/>
<path d="M51.6562 2.02844L54.0685 3.24697L56.9717 1.78844L54.5595 0.588379L51.6562 2.02844Z" fill="#A3A3A3"/>
<path d="M56.0324 125.745L54.0685 127.443L4.1167 93.1031L5.01323 90.5923L56.0324 125.745Z" fill="#4D4D4D"/>
<path d="M4.50146 150.226L4.9711 152.663L55.2217 68.142L54.069 66.665L4.50146 150.226Z" fill="#4D4D4D"/>
<path d="M56.0324 65.7979L54.0685 67.4964L4.1167 33.1564L5.01323 30.6455L56.0324 65.7979Z" fill="#4D4D4D"/>
<path d="M4.50146 90.2791L4.9711 92.7162L55.2217 8.19535L54.069 6.73682L4.50146 90.2791Z" fill="#4D4D4D"/>
<path d="M54.7727 121.591L3.62549 147.254L114.181 202.862L165.435 177.236L54.7727 121.591Z" fill="#97A9DD"/>
<path d="M114.181 205.945V202.678L165.435 177.052V180.301L114.181 205.945Z" fill="#7C76AC"/>
<path d="M3.62549 147.253V150.54L114.181 205.798V202.53L3.62549 147.253Z" fill="#8583B7"/>
<path d="M96.1002 146.774L57.7612 165.938L58.9567 166.584L97.4237 147.383L96.1002 146.774Z" fill="#ED8E2F"/>
<path d="M97.4236 147.383L58.9565 166.584V171.31L97.4236 152.109V147.383Z" fill="#C96A1C"/>
<path d="M57.7612 170.719V165.937L58.9567 166.583V171.31L57.7612 170.719Z" fill="#D87923"/>
<path d="M53.3 125.302L14.9609 144.466L16.1564 145.112L54.6022 125.911L53.3 125.302Z" fill="#ED8E2F"/>
<path d="M54.6025 125.892L16.1567 145.111V149.838L54.6025 130.637V125.892Z" fill="#C96A1C"/>
<path d="M14.9609 149.248V144.466L16.1564 145.113V149.839L14.9609 149.248Z" fill="#D87923"/>
<path d="M74.0919 135.512L35.7314 154.676L36.9269 155.322L75.394 136.103L74.0919 135.512Z" fill="#ED8E2F"/>
<path d="M75.3944 136.102L36.9272 155.321V160.048L75.3944 140.847V136.102Z" fill="#C96A1C"/>
<path d="M35.7314 159.457V154.675L36.9269 155.321V160.047L35.7314 159.457Z" fill="#D87923"/>
<path d="M58.957 165.126L14.9609 143.155V144.688L58.957 166.658V165.126Z" fill="#D87923"/>
<path d="M63.5679 162.91L58.957 165.125L14.9609 143.155L19.5505 140.939L63.5679 162.91Z" fill="#ED8E2F"/>
<path d="M63.5675 162.911L58.9565 165.127V167.988L63.5675 165.662V162.911Z" fill="#C96A1C"/>
<path d="M67.5386 160.769L23.4146 138.688V140.22L67.5386 162.301V160.769Z" fill="#D87923"/>
<path d="M72.1495 158.534L67.5386 160.768L23.4146 138.687L28.0041 136.472L72.1495 158.534Z" fill="#ED8E2F"/>
<path d="M72.149 158.535L67.5381 160.769V163.612L72.149 161.286V158.535Z" fill="#C96A1C"/>
<path d="M76.3324 156.448L32.1016 134.348V135.862L76.3324 157.98V156.448Z" fill="#D87923"/>
<path d="M80.9433 154.233L76.3324 156.449L32.1016 134.349L36.6912 132.115L80.9433 154.233Z" fill="#ED8E2F"/>
<path d="M80.9444 154.232L76.3335 156.448V159.31L80.9444 156.983V154.232Z" fill="#C96A1C"/>
<path d="M84.9146 152.091L40.7905 130.103V131.635L84.9146 153.605V152.091Z" fill="#D87923"/>
<path d="M89.5256 149.857L84.9146 152.091L40.7905 130.102L45.3588 127.868L89.5256 149.857Z" fill="#ED8E2F"/>
<path d="M89.5255 149.856L84.9146 152.09V154.934L89.5255 152.607V149.856Z" fill="#C96A1C"/>
<path d="M92.8126 148.25L48.5605 126.169V127.702L92.8126 149.783V148.25Z" fill="#D87923"/>
<path d="M97.4236 146.017L92.8126 148.251L48.5605 126.169L53.1714 123.936L97.4236 146.017Z" fill="#ED8E2F"/>
<path d="M97.4234 146.017L92.8125 148.251V151.094L97.4234 148.768V146.017Z" fill="#C96A1C"/>
<path d="M39.3178 152.479L39.3392 140.645L19.4438 130.693V142.528L39.3178 152.479Z" fill="#DBA763"/>
<path d="M39.3174 152.479L39.3388 140.645L67.9436 126.336V138.171L39.3174 152.479Z" fill="#E8B679"/>
<path d="M67.944 126.336L39.3392 140.625L19.4438 130.693L48.0701 116.403L67.944 126.336Z" fill="#FFE1C0"/>
<path d="M26.8301 140.644L31.2703 142.878V136.601L26.8301 134.367V140.644Z" fill="#4D4D4D"/>
<path d="M26.8301 134.368L55.435 120.078L59.8751 122.312L31.2703 136.601L26.8301 134.368Z" fill="#6D6D6D"/>
<path d="M37.8447 150.522V149.414L31.1631 146.073V147.199L37.8447 150.522Z" fill="#4D4D4D"/>
<path d="M37.8447 148.546V147.438L31.1631 144.097V145.223L37.8447 148.546Z" fill="#4D4D4D"/>
<path d="M63.9307 134.791V138.798L67.1114 137.192V133.204L63.9307 134.791Z" fill="#4D4D4D"/>
<path d="M59.5757 136.971V140.977L62.7564 139.389V135.383L59.5757 136.971Z" fill="#4D4D4D"/>
<path d="M55.1577 139.167V143.174L58.3598 141.567V137.58L55.1577 139.167Z" fill="#4D4D4D"/>
<path d="M40.1929 141.125V146.867L46.7464 143.599V137.839L40.1929 141.125Z" fill="white"/>
<path d="M41.0039 142.306V141.365L46.1485 138.798V139.721L41.0039 142.306Z" fill="#4D4D4D"/>
<path d="M61.1557 163.556V151.703L41.2817 141.771V153.586L61.1557 163.556Z" fill="#DBA763"/>
<path d="M61.1553 163.557V151.704L89.7601 137.414V149.23L61.1553 163.557Z" fill="#E8B679"/>
<path d="M89.7605 137.414L61.1557 151.704L41.2817 141.771L69.8866 127.462L89.7605 137.414Z" fill="#FFE1C0"/>
<path d="M48.668 151.721L53.1081 153.937V147.659L48.668 145.444V151.721Z" fill="#4D4D4D"/>
<path d="M48.668 145.445L77.2515 131.155L81.713 133.37L53.1081 147.679L48.668 145.445Z" fill="#6D6D6D"/>
<path d="M59.6616 161.599V160.491L52.98 157.149V158.257L59.6616 161.599Z" fill="#4D4D4D"/>
<path d="M59.6616 159.623V158.515L52.98 155.155V156.281L59.6616 159.623Z" fill="#4D4D4D"/>
<path d="M85.7471 145.87V149.876L88.9491 148.27V144.264L85.7471 145.87Z" fill="#4D4D4D"/>
<path d="M81.3921 148.048V152.055L84.5941 150.448V146.46L81.3921 148.048Z" fill="#4D4D4D"/>
<path d="M76.9731 150.245V154.251L80.1752 152.645V148.639L76.9731 150.245Z" fill="#4D4D4D"/>
<path d="M62.0093 152.202V157.944L68.5841 154.676V148.916L62.0093 152.202Z" fill="white"/>
<path d="M62.8208 153.364V152.441L67.9867 149.856V150.78L62.8208 153.364Z" fill="#4D4D4D"/>
<path d="M39.3178 139.407L39.3392 127.554L19.4438 117.622V129.456L39.3178 139.407Z" fill="#DBA763"/>
<path d="M39.3174 139.407L39.3388 127.555L67.9436 113.265V125.081L39.3174 139.407Z" fill="#E8B679"/>
<path d="M67.944 113.265L39.3392 127.555L19.4438 117.622L48.0701 103.333L67.944 113.265Z" fill="#FFE1C0"/>
<path d="M26.8301 127.573L31.2703 129.807V123.511L26.8301 121.295V127.573Z" fill="#4D4D4D"/>
<path d="M26.8301 121.296L55.435 107.006L59.8751 109.222L31.2703 123.53L26.8301 121.296Z" fill="#6D6D6D"/>
<path d="M37.8447 137.45V136.343L31.1631 133.001V134.109L37.8447 137.45Z" fill="#4D4D4D"/>
<path d="M37.8447 135.475V134.368L31.1631 131.026V132.134L37.8447 135.475Z" fill="#4D4D4D"/>
<path d="M63.9307 121.721V125.709L67.1114 124.121V120.115L63.9307 121.721Z" fill="#4D4D4D"/>
<path d="M59.5757 123.899V127.906L62.7564 126.299V122.312L59.5757 123.899Z" fill="#4D4D4D"/>
<path d="M55.1577 126.096V130.102L58.3598 128.496V124.508L55.1577 126.096Z" fill="#4D4D4D"/>
<path d="M40.1929 128.053V133.795L46.7464 130.527V124.767L40.1929 128.053Z" fill="white"/>
<path d="M41.0039 129.234V128.293L46.1485 125.708V126.631L41.0039 129.234Z" fill="#4D4D4D"/>
<path d="M61.1557 150.485V138.632L41.2817 128.699V140.515L61.1557 150.485Z" fill="#DBA763"/>
<path d="M61.1553 150.484V138.631L89.7601 124.323V136.157L61.1553 150.484Z" fill="#E8B679"/>
<path d="M89.7605 124.324L61.1557 138.633L41.2817 128.7L69.8866 114.392L89.7605 124.324Z" fill="#FFE1C0"/>
<path d="M48.668 138.65L53.1081 140.866V134.588L48.668 132.354V138.65Z" fill="#4D4D4D"/>
<path d="M48.668 132.354L77.2515 118.083L81.713 120.298L53.1081 134.607L48.668 132.354Z" fill="#6D6D6D"/>
<path d="M59.6616 148.527V147.419L52.98 144.059V145.185L59.6616 148.527Z" fill="#4D4D4D"/>
<path d="M59.6616 146.552V145.444L52.98 142.084V143.21L59.6616 146.552Z" fill="#4D4D4D"/>
<path d="M85.7471 132.797V136.785L88.9491 135.197V131.191L85.7471 132.797Z" fill="#4D4D4D"/>
<path d="M81.3921 134.976V138.982L84.5941 137.376V133.388L81.3921 134.976Z" fill="#4D4D4D"/>
<path d="M76.9731 137.174V141.162L80.1752 139.574V135.567L76.9731 137.174Z" fill="#4D4D4D"/>
<path d="M62.0093 139.131V144.873L68.5841 141.587V135.845L62.0093 139.131Z" fill="white"/>
<path d="M62.8208 140.293V139.37L67.9867 136.785V137.708L62.8208 140.293Z" fill="#4D4D4D"/>
<path d="M148.784 172.991L110.424 192.155L111.619 192.801L150.086 173.6L148.784 172.991Z" fill="#ED8E2F"/>
<path d="M150.086 173.599L111.619 192.8V197.545L150.086 178.325V173.599Z" fill="#C96A1C"/>
<path d="M110.424 196.937V192.155L111.619 192.801V197.546L110.424 196.937Z" fill="#D87923"/>
<path d="M105.963 151.518L67.6235 170.682L68.819 171.328L107.265 152.127L105.963 151.518Z" fill="#ED8E2F"/>
<path d="M107.265 152.127L68.8188 171.328V176.055L107.265 156.854V152.127Z" fill="#C96A1C"/>
<path d="M67.6235 175.465V170.684L68.819 171.33V176.056L67.6235 175.465Z" fill="#D87923"/>
<path d="M126.755 161.729L88.4155 180.892L89.6109 181.539L128.057 162.338L126.755 161.729Z" fill="#ED8E2F"/>
<path d="M128.056 162.338L89.6104 181.539V186.265L128.056 167.064V162.338Z" fill="#C96A1C"/>
<path d="M88.4155 185.675V180.893L89.611 181.539V186.266L88.4155 185.675Z" fill="#D87923"/>
<path d="M111.619 191.36L67.6235 169.39V170.904L111.619 192.893V191.36Z" fill="#D87923"/>
<path d="M116.23 189.127L111.619 191.36L67.6235 169.39L72.2131 167.156L116.23 189.127Z" fill="#ED8E2F"/>
<path d="M116.23 189.126L111.619 191.36V194.204L116.23 191.877V189.126Z" fill="#C96A1C"/>
<path d="M120.201 186.985L76.0771 164.923V166.455L120.201 188.518V186.985Z" fill="#D87923"/>
<path d="M124.812 184.752L120.201 186.985L76.0771 164.923L80.6667 162.689L124.812 184.752Z" fill="#ED8E2F"/>
<path d="M124.812 184.751L120.201 186.985V189.828L124.812 187.502V184.751Z" fill="#C96A1C"/>
<path d="M128.996 182.684L84.7651 160.566V162.098L128.996 184.216V182.684Z" fill="#D87923"/>
<path d="M133.607 180.449L128.996 182.683L84.7651 160.565L89.3547 158.331L133.607 180.449Z" fill="#ED8E2F"/>
<path d="M133.607 180.45L128.996 182.684V185.527L133.607 183.201V180.45Z" fill="#C96A1C"/>
<path d="M137.577 178.308L93.4531 156.338V157.852L137.577 179.841V178.308Z" fill="#D87923"/>
<path d="M142.188 176.074L137.577 178.308L93.4531 156.338L98.0427 154.104L142.188 176.074Z" fill="#ED8E2F"/>
<path d="M142.189 176.074L137.578 178.308V181.151L142.189 178.825V176.074Z" fill="#C96A1C"/>
<path d="M145.475 174.467L101.245 152.386V153.919L145.475 176V174.467Z" fill="#D87923"/>
<path d="M150.086 172.233L145.475 174.467L101.245 152.386L105.834 150.171L150.086 172.233Z" fill="#ED8E2F"/>
<path d="M150.087 172.233L145.476 174.467V177.31L150.087 175.002V172.233Z" fill="#C96A1C"/>
<path d="M91.9809 178.714L92.0022 166.861L72.1069 156.91V168.744L91.9809 178.714Z" fill="#DBA763"/>
<path d="M91.9805 178.713L92.0018 166.861L120.607 152.552V164.387L91.9805 178.713Z" fill="#E8B679"/>
<path d="M120.607 152.552L92.0022 166.861L72.1069 156.91L100.733 142.62L120.607 152.552Z" fill="#FFE1C0"/>
<path d="M79.5132 166.861L83.9319 169.095V162.818L79.5132 160.584V166.861Z" fill="#4D4D4D"/>
<path d="M79.5132 160.584L108.097 146.294L112.537 148.528L83.9319 162.818L79.5132 160.584Z" fill="#6D6D6D"/>
<path d="M90.5068 176.738V175.631L83.8252 172.289V173.415L90.5068 176.738Z" fill="#4D4D4D"/>
<path d="M90.5068 174.763V173.655L83.8252 170.313V171.44L90.5068 174.763Z" fill="#4D4D4D"/>
<path d="M116.593 161.009V165.015L119.774 163.427V159.421L116.593 161.009Z" fill="#4D4D4D"/>
<path d="M112.238 163.205V167.193L115.419 165.605V161.599L112.238 163.205Z" fill="#4D4D4D"/>
<path d="M107.82 165.384V169.39L111.022 167.803V163.796L107.82 165.384Z" fill="#4D4D4D"/>
<path d="M92.8555 167.34V173.101L99.4089 169.814V164.054L92.8555 167.34Z" fill="white"/>
<path d="M93.6665 168.522V167.58L98.8325 165.014V165.937L93.6665 168.522Z" fill="#4D4D4D"/>
<path d="M113.818 189.774V177.921L93.9443 167.988V179.823L113.818 189.774Z" fill="#DBA763"/>
<path d="M113.818 189.773V177.92L142.445 163.63V175.446L113.818 189.773Z" fill="#E8B679"/>
<path d="M142.445 163.63L113.818 177.919L93.9443 167.987L122.571 153.697L142.445 163.63Z" fill="#FFE1C0"/>
<path d="M101.331 177.939L105.771 180.173V173.896L101.331 171.662V177.939Z" fill="#4D4D4D"/>
<path d="M101.331 171.661L129.935 157.372L134.376 159.587L105.771 173.895L101.331 171.661Z" fill="#6D6D6D"/>
<path d="M112.324 187.816V186.708L105.664 183.366V184.492L112.324 187.816Z" fill="#4D4D4D"/>
<path d="M112.324 185.84V184.732L105.664 181.391V182.498L112.324 185.84Z" fill="#4D4D4D"/>
<path d="M138.41 172.086V176.092L141.612 174.486V170.498L138.41 172.086Z" fill="#4D4D4D"/>
<path d="M134.055 174.265V178.271L137.257 176.683V172.677L134.055 174.265Z" fill="#4D4D4D"/>
<path d="M129.658 176.462V180.468L132.838 178.862V174.874L129.658 176.462Z" fill="#4D4D4D"/>
<path d="M114.693 178.418V184.159L121.246 180.892V175.131L114.693 178.418Z" fill="white"/>
<path d="M115.483 179.6V178.658L120.649 176.092V176.996L115.483 179.6Z" fill="#4D4D4D"/>
<path d="M91.9809 165.624L92.0022 153.771L72.1069 143.838V155.673L91.9809 165.624Z" fill="#DBA763"/>
<path d="M91.9805 165.624L92.0018 153.771L120.607 139.481V151.315L91.9805 165.624Z" fill="#E8B679"/>
<path d="M120.607 139.481L92.0022 153.771L72.1069 143.838L100.733 129.548L120.607 139.481Z" fill="#FFE1C0"/>
<path d="M79.5132 153.79L83.9319 156.024V149.728L79.5132 147.513V153.79Z" fill="#4D4D4D"/>
<path d="M79.5132 147.513L108.097 133.223L112.537 135.457L83.9319 149.747L79.5132 147.513Z" fill="#6D6D6D"/>
<path d="M90.5068 163.667V162.559L83.8252 159.218V160.344L90.5068 163.667Z" fill="#4D4D4D"/>
<path d="M90.5068 161.691V160.583L83.8252 157.241V158.367L90.5068 161.691Z" fill="#4D4D4D"/>
<path d="M116.593 147.937V151.944L119.774 150.337V146.35L116.593 147.937Z" fill="#4D4D4D"/>
<path d="M112.238 150.116V154.122L115.419 152.534V148.528L112.238 150.116Z" fill="#4D4D4D"/>
<path d="M107.82 152.312V156.319L111.022 154.712V150.725L107.82 152.312Z" fill="#4D4D4D"/>
<path d="M92.8555 154.269V160.011L99.4089 156.743V150.983L92.8555 154.269Z" fill="white"/>
<path d="M93.6665 155.45V154.509L98.8325 151.942V152.847L93.6665 155.45Z" fill="#4D4D4D"/>
<path d="M113.818 176.702V164.849L93.9443 154.916V166.732L113.818 176.702Z" fill="#DBA763"/>
<path d="M113.818 176.701V164.848L142.445 150.558V162.374L113.818 176.701Z" fill="#E8B679"/>
<path d="M142.445 150.559L113.818 164.849L93.9443 154.916L122.571 140.608L142.445 150.559Z" fill="#FFE1C0"/>
<path d="M101.331 164.866L105.771 167.082V160.804L101.331 158.589V164.866Z" fill="#4D4D4D"/>
<path d="M101.331 158.59L129.935 144.3L134.376 146.516L105.771 160.824L101.331 158.59Z" fill="#6D6D6D"/>
<path d="M112.324 174.745V173.637L105.664 170.295V171.403L112.324 174.745Z" fill="#4D4D4D"/>
<path d="M112.324 172.769V171.661L105.664 168.301V169.427L112.324 172.769Z" fill="#4D4D4D"/>
<path d="M138.41 159.013V163.001L141.612 161.414V157.407L138.41 159.013Z" fill="#4D4D4D"/>
<path d="M134.055 161.194V165.2L137.257 163.594V159.606L134.055 161.194Z" fill="#4D4D4D"/>
<path d="M129.658 163.39V167.378L132.838 165.79V161.784L129.658 163.39Z" fill="#4D4D4D"/>
<path d="M114.693 165.346V171.088L121.246 167.82V162.06L114.693 165.346Z" fill="white"/>
<path d="M115.483 166.511V165.588L120.649 163.003V163.926L115.483 166.511Z" fill="#4D4D4D"/>
<path d="M54.7727 73.0527L3.62549 98.7155L114.181 154.324L165.435 128.698L54.7727 73.0527Z" fill="#97A9DD"/>
<path d="M114.181 157.391V154.123L165.435 128.497V131.765L114.181 157.391Z" fill="#7C76AC"/>
<path d="M3.62549 98.7163V102.003L114.181 157.261V153.993L3.62549 98.7163Z" fill="#8583B7"/>
<path d="M96.1002 98.4209L57.7612 117.585L58.9567 118.231L97.4237 99.0117L96.1002 98.4209Z" fill="#ED8E2F"/>
<path d="M97.4236 99.0117L58.9565 118.213V122.957L97.4236 103.738V99.0117Z" fill="#C96A1C"/>
<path d="M57.7612 122.366V117.584L58.9567 118.212V122.957L57.7612 122.366Z" fill="#D87923"/>
<path d="M53.3 76.9307L14.9609 96.0946L16.1564 96.7593L54.6022 77.5399L53.3 76.9307Z" fill="#ED8E2F"/>
<path d="M54.6025 77.54L16.1567 96.7409V101.486L54.6025 82.2664V77.54Z" fill="#C96A1C"/>
<path d="M14.9609 100.894V96.0942L16.1564 96.7404V101.485L14.9609 100.894Z" fill="#D87923"/>
<path d="M74.0919 87.1401L35.7314 106.304L36.9269 106.969L75.394 87.7494L74.0919 87.1401Z" fill="#ED8E2F"/>
<path d="M75.3944 87.749L36.9272 106.95V111.695L75.3944 92.4754V87.749Z" fill="#C96A1C"/>
<path d="M35.7314 111.086V106.304L36.9269 106.95V111.695L35.7314 111.086Z" fill="#D87923"/>
<path d="M58.957 116.772L14.9609 94.8018V96.3341L58.957 118.304V116.772Z" fill="#D87923"/>
<path d="M63.5679 114.539L58.957 116.773L14.9609 94.8028L19.5505 92.5688L63.5679 114.539Z" fill="#ED8E2F"/>
<path d="M63.5675 114.538L58.9565 116.772V119.615L63.5675 117.307V114.538Z" fill="#C96A1C"/>
<path d="M67.5386 112.397L23.4146 90.3345V91.8669L67.5386 113.929V112.397Z" fill="#D87923"/>
<path d="M72.1495 110.163L67.5386 112.397L23.4146 90.3345L28.0041 88.1006L72.1495 110.163Z" fill="#ED8E2F"/>
<path d="M72.149 110.163L67.5381 112.397V115.259L72.149 112.932V110.163Z" fill="#C96A1C"/>
<path d="M76.3324 108.094L32.1016 85.9766V87.5089L76.3324 109.627V108.094Z" fill="#D87923"/>
<path d="M80.9433 105.861L76.3324 108.095L32.1016 85.9766L36.6912 83.7427L80.9433 105.861Z" fill="#ED8E2F"/>
<path d="M80.9444 105.86L76.3335 108.094V110.938L80.9444 108.63V105.86Z" fill="#C96A1C"/>
<path d="M84.9146 103.719L40.7905 81.749V83.2814L84.9146 105.252V103.719Z" fill="#D87923"/>
<path d="M89.5256 101.485L84.9146 103.719L40.7905 81.7486L45.3588 79.5146L89.5256 101.485Z" fill="#ED8E2F"/>
<path d="M89.5255 101.486L84.9146 103.72V106.563L89.5255 104.255V101.486Z" fill="#C96A1C"/>
<path d="M92.8126 99.879L48.5605 77.8164V79.3488L92.8126 101.411V99.879Z" fill="#D87923"/>
<path d="M97.4236 97.6451L92.8126 99.879L48.5605 77.8165L53.1714 75.5825L97.4236 97.6451Z" fill="#ED8E2F"/>
<path d="M97.4234 97.646L92.8125 99.88V102.742L97.4234 100.415V97.646Z" fill="#C96A1C"/>
<path d="M55.9038 95.1341V74.3824L75.0733 64.8188V85.5152L55.9038 95.1341Z" fill="#DBA763"/>
<path d="M55.904 95.1341V74.3824L36.7559 64.8188V85.5152L55.904 95.1341Z" fill="#E8B679"/>
<path d="M36.7559 64.8193L55.904 74.3828L75.0735 64.8193L55.904 55.2373L36.7559 64.8193Z" fill="#FFE1C0"/>
<path d="M67.9437 74.4009L63.6743 76.5425V70.5053L67.9437 68.3452V74.4009Z" fill="#4D4D4D"/>
<path d="M67.9439 68.3458L48.8171 58.7822L44.5264 60.9239L63.6745 70.5059L67.9439 68.3458Z" fill="#6D6D6D"/>
<path d="M58.4443 92.1611V91.0903L64.8698 87.8594V88.9486L58.4443 92.1611Z" fill="#4D4D4D"/>
<path d="M58.4443 90.2607V89.1899L64.8698 85.959V87.0483L58.4443 90.2607Z" fill="#4D4D4D"/>
<path d="M70.6548 82.4884V86.1809L73.7287 84.6485V80.9561L70.6548 82.4884Z" fill="#4D4D4D"/>
<path d="M40.9612 82.1003V85.9589L37.8872 84.4265V80.5679L40.9612 82.1003Z" fill="#4D4D4D"/>
<path d="M45.1667 84.2038V88.0624L42.0928 86.53V82.6714L45.1667 84.2038Z" fill="#4D4D4D"/>
<path d="M44.2059 70.8392V76.3779L37.8872 73.2208V67.6821L44.2059 70.8392Z" fill="white"/>
<path d="M43.4372 71.9646V71.0599L38.4634 68.5859V69.4722L43.4372 71.9646Z" fill="#4D4D4D"/>
<path d="M76.8665 105.492L76.8452 84.7403L96.0147 75.1768V95.8916L76.8665 105.492Z" fill="#DBA763"/>
<path d="M76.8672 105.492L76.8459 84.7403L57.6978 75.1768V95.8916L76.8672 105.492Z" fill="#E8B679"/>
<path d="M57.6978 75.1762L76.8459 84.7397L96.0154 75.1762L76.8672 65.5942L57.6978 75.1762Z" fill="#FFE1C0"/>
<path d="M88.8851 84.7583L84.6157 86.8999V80.8443L88.8851 78.7026V84.7583Z" fill="#4D4D4D"/>
<path d="M88.8853 78.7032L69.7585 69.1396L65.4678 71.2813L84.6159 80.8633L88.8853 78.7032Z" fill="#6D6D6D"/>
<path d="M79.3857 102.52V101.449L85.8111 98.2183V99.3075L79.3857 102.52Z" fill="#4D4D4D"/>
<path d="M79.3857 100.618V99.5468L85.8111 96.3159V97.4052L79.3857 100.618Z" fill="#4D4D4D"/>
<path d="M91.5962 92.8449V96.5373L94.6702 95.005V91.3125L91.5962 92.8449Z" fill="#4D4D4D"/>
<path d="M61.9026 92.4577V96.3163L58.8286 94.7839V90.9253L61.9026 92.4577Z" fill="#4D4D4D"/>
<path d="M66.1081 94.5622V98.4208L63.0342 96.8884V93.0298L66.1081 94.5622Z" fill="#4D4D4D"/>
<path d="M65.1473 81.1951V86.7338L58.8286 83.5767V78.0195L65.1473 81.1951Z" fill="white"/>
<path d="M64.3786 82.321V81.4164L59.4048 78.9424V79.8286L64.3786 82.321Z" fill="#4D4D4D"/>
<path d="M36.1792 105.418V84.685L55.3487 75.103V95.8178L36.1792 105.418Z" fill="#DBA763"/>
<path d="M36.1794 105.418V84.685L17.0312 75.103V95.8178L36.1794 105.418Z" fill="#E8B679"/>
<path d="M17.0312 75.1034L36.1794 84.6854L55.349 75.1034L36.1794 65.5215L17.0312 75.1034Z" fill="#FFE1C0"/>
<path d="M48.2191 84.6846L43.9497 86.8262V80.789L48.2191 78.6289V84.6846Z" fill="#4D4D4D"/>
<path d="M48.2193 78.6294L29.0924 69.0659L24.8018 71.2076L43.9499 80.7895L48.2193 78.6294Z" fill="#6D6D6D"/>
<path d="M38.7197 102.446V101.375L45.1452 98.144V99.2333L38.7197 102.446Z" fill="#4D4D4D"/>
<path d="M38.7197 100.543V99.4726L45.1452 96.2417V97.331L38.7197 100.543Z" fill="#4D4D4D"/>
<path d="M50.9307 92.7716V96.4641L54.0046 94.9317V91.2393L50.9307 92.7716Z" fill="#4D4D4D"/>
<path d="M21.2366 92.3834V96.2421L18.1626 94.7097V90.8511L21.2366 92.3834Z" fill="#4D4D4D"/>
<path d="M25.4411 94.4889V98.3476L22.3672 96.8152V92.9565L25.4411 94.4889Z" fill="#4D4D4D"/>
<path d="M24.4813 81.1218V86.6605L18.1626 83.5035V77.9463L24.4813 81.1218Z" fill="white"/>
<path d="M23.7131 82.2487V81.3441L18.7393 78.8701V79.7563L23.7131 82.2487Z" fill="#4D4D4D"/>
<path d="M57.1425 115.776L57.1211 95.0245L76.2906 85.4609V106.176L57.1425 115.776Z" fill="#DBA763"/>
<path d="M57.1422 115.776L57.1208 95.0245L37.9727 85.4609V106.176L57.1422 115.776Z" fill="#E8B679"/>
<path d="M37.9727 85.4599L57.1208 95.0234L76.2904 85.4599L57.1422 75.8779L37.9727 85.4599Z" fill="#FFE1C0"/>
<path d="M69.1605 95.043L64.8911 97.1846V91.1474L69.1605 88.9873V95.043Z" fill="#4D4D4D"/>
<path d="M69.1607 88.9864L50.0339 79.4229L45.7432 81.5645L64.8913 91.1465L69.1607 88.9864Z" fill="#6D6D6D"/>
<path d="M59.6611 112.803V111.732L66.1079 108.501V109.591L59.6611 112.803Z" fill="#4D4D4D"/>
<path d="M59.6611 110.901V109.831L66.1079 106.6V107.689L59.6611 110.901Z" fill="#4D4D4D"/>
<path d="M71.8716 103.128V106.821L74.9455 105.288V101.596L71.8716 103.128Z" fill="#4D4D4D"/>
<path d="M42.1785 102.74V106.599L39.1045 105.067V101.208L42.1785 102.74Z" fill="#4D4D4D"/>
<path d="M46.383 104.845V108.704L43.3091 107.172V103.313L46.383 104.845Z" fill="#4D4D4D"/>
<path d="M45.4232 91.4784V97.0171L39.1045 93.86V88.3213L45.4232 91.4784Z" fill="white"/>
<path d="M44.655 92.6052V91.719L39.6812 89.2266V90.1128L44.655 92.6052Z" fill="#4D4D4D"/>
<path d="M148.784 124.582L110.424 143.746L111.619 144.392L150.086 125.191L148.784 124.582Z" fill="#ED8E2F"/>
<path d="M150.086 125.191L111.619 144.392V149.119L150.086 129.918V125.191Z" fill="#C96A1C"/>
<path d="M110.424 148.527V143.746L111.619 144.392V149.118L110.424 148.527Z" fill="#D87923"/>
<path d="M105.963 103.11L67.6235 122.274L68.819 122.92L107.265 103.72L105.963 103.11Z" fill="#ED8E2F"/>
<path d="M107.265 103.719L68.8188 122.92V127.647L107.265 108.446V103.719Z" fill="#C96A1C"/>
<path d="M67.6235 127.056V122.274L68.819 122.92V127.646L67.6235 127.056Z" fill="#D87923"/>
<path d="M126.755 113.32L88.4155 132.484L89.6109 133.13L128.057 113.93L126.755 113.32Z" fill="#ED8E2F"/>
<path d="M128.056 113.911L89.6104 133.13V137.857L128.056 118.656V113.911Z" fill="#C96A1C"/>
<path d="M88.4155 137.266V132.484L89.611 133.13V137.856L88.4155 137.266Z" fill="#D87923"/>
<path d="M111.619 142.952L67.6235 120.963V122.496L111.619 144.466V142.952Z" fill="#D87923"/>
<path d="M116.23 140.718L111.619 142.952L67.6235 120.964L72.2131 118.748L116.23 140.718Z" fill="#ED8E2F"/>
<path d="M116.23 140.718L111.619 142.952V145.795L116.23 143.469V140.718Z" fill="#C96A1C"/>
<path d="M120.201 138.576L76.0771 116.495V118.027L120.201 140.09V138.576Z" fill="#D87923"/>
<path d="M124.812 136.343L120.201 138.577L76.0771 116.496L80.6667 114.28L124.812 136.343Z" fill="#ED8E2F"/>
<path d="M124.812 136.343L120.201 138.577V141.42L124.812 139.094V136.343Z" fill="#C96A1C"/>
<path d="M128.996 134.256L84.7651 112.157V113.671L128.996 135.789V134.256Z" fill="#D87923"/>
<path d="M133.607 132.041L128.996 134.256L84.7651 112.157L89.3547 109.923L133.607 132.041Z" fill="#ED8E2F"/>
<path d="M133.607 132.041L128.996 134.256V137.118L133.607 134.791V132.041Z" fill="#C96A1C"/>
<path d="M137.577 129.881L93.4531 107.911V109.443L137.577 131.413V129.881Z" fill="#D87923"/>
<path d="M142.188 127.665L137.577 129.88L93.4531 107.91L98.0427 105.694L142.188 127.665Z" fill="#ED8E2F"/>
<path d="M142.189 127.666L137.578 129.881V132.743L142.189 130.416V127.666Z" fill="#C96A1C"/>
<path d="M145.475 126.059L101.245 103.978V105.51L145.475 127.591V126.059Z" fill="#D87923"/>
<path d="M150.086 123.825L145.475 126.059L101.245 103.978L105.834 101.762L150.086 123.825Z" fill="#ED8E2F"/>
<path d="M150.087 123.825L145.476 126.059V128.902L150.087 126.576V123.825Z" fill="#C96A1C"/>
<path d="M108.589 121.296L108.567 100.562L127.737 90.9805V111.695L108.589 121.296Z" fill="#DBA763"/>
<path d="M108.588 121.296L108.567 100.562L89.4185 90.9805V111.695L108.588 121.296Z" fill="#E8B679"/>
<path d="M89.4185 90.9804L108.567 100.562L127.736 90.9804L108.588 81.3984L89.4185 90.9804Z" fill="#FFE1C0"/>
<path d="M120.606 100.581L116.337 102.723V96.667L120.606 94.5254V100.581Z" fill="#4D4D4D"/>
<path d="M120.607 94.5254L101.48 84.9619L97.189 87.1035L116.337 96.6855L120.607 94.5254Z" fill="#6D6D6D"/>
<path d="M111.107 118.323V117.271L117.533 114.04V115.111L111.107 118.323Z" fill="#4D4D4D"/>
<path d="M111.107 116.422V115.352L117.533 112.139V113.21L111.107 116.422Z" fill="#4D4D4D"/>
<path d="M123.317 108.668V112.36L126.391 110.828V107.117L123.317 108.668Z" fill="#4D4D4D"/>
<path d="M93.6238 108.28V112.12L90.5498 110.588V106.729L93.6238 108.28Z" fill="#4D4D4D"/>
<path d="M97.8293 110.385V114.225L94.7554 112.693V108.834L97.8293 110.385Z" fill="#4D4D4D"/>
<path d="M96.8685 96.9993V102.538L90.5498 99.381V93.8423L96.8685 96.9993Z" fill="white"/>
<path d="M96.1003 98.1442V97.2396L91.1265 94.7656V95.6518L96.1003 98.1442Z" fill="#4D4D4D"/>
<path d="M129.529 131.654V110.92L148.677 101.338V122.053L129.529 131.654Z" fill="#DBA763"/>
<path d="M129.53 131.654V110.92L110.36 101.338V122.053L129.53 131.654Z" fill="#E8B679"/>
<path d="M110.36 101.338L129.53 110.92L148.678 101.338L129.53 91.7563L110.36 101.338Z" fill="#FFE1C0"/>
<path d="M141.548 110.938L137.278 113.08V107.024L141.548 104.883V110.938Z" fill="#4D4D4D"/>
<path d="M141.548 104.882L122.421 95.3188L118.151 97.442L137.278 107.024L141.548 104.882Z" fill="#6D6D6D"/>
<path d="M132.049 128.681V127.628L138.496 124.397V125.487L132.049 128.681Z" fill="#4D4D4D"/>
<path d="M132.049 126.779V125.709L138.496 122.496V123.567L132.049 126.779Z" fill="#4D4D4D"/>
<path d="M144.259 119.024V122.717L147.333 121.166V117.474L144.259 119.024Z" fill="#4D4D4D"/>
<path d="M114.587 118.637V122.477L111.491 120.945V117.086L114.587 118.637Z" fill="#4D4D4D"/>
<path d="M118.771 120.742V124.582L115.697 123.05V119.191L118.771 120.742Z" fill="#4D4D4D"/>
<path d="M117.81 107.357V112.895L111.491 109.738V104.2L117.81 107.357Z" fill="white"/>
<path d="M117.041 108.501V107.596L112.067 105.122V106.008L117.041 108.501Z" fill="#4D4D4D"/>
<path d="M88.8636 131.579L88.8423 110.846L108.012 101.264V121.978L88.8636 131.579Z" fill="#DBA763"/>
<path d="M88.8638 131.579L88.8425 110.846L69.6943 101.264V121.978L88.8638 131.579Z" fill="#E8B679"/>
<path d="M69.6943 101.265L88.8425 110.847L108.012 101.265L88.8638 91.6826L69.6943 101.265Z" fill="#FFE1C0"/>
<path d="M100.882 110.865L96.6128 113.006V106.951L100.882 104.809V110.865Z" fill="#4D4D4D"/>
<path d="M100.882 104.809L81.7551 95.2451L77.4644 97.3868L96.6125 106.969L100.882 104.809Z" fill="#6D6D6D"/>
<path d="M91.3823 128.606V127.554L97.8077 124.323V125.412L91.3823 128.606Z" fill="#4D4D4D"/>
<path d="M91.3823 126.706V125.653L97.8077 122.422V123.493L91.3823 126.706Z" fill="#4D4D4D"/>
<path d="M103.593 118.951V122.643L106.667 121.092V117.4L103.593 118.951Z" fill="#4D4D4D"/>
<path d="M73.8996 118.563V122.421L70.8257 120.87V117.012L73.8996 118.563Z" fill="#4D4D4D"/>
<path d="M78.1047 120.668V124.508L75.0308 122.975V119.135L78.1047 120.668Z" fill="#4D4D4D"/>
<path d="M77.1444 107.301V112.839L70.8257 109.664V104.125L77.1444 107.301Z" fill="white"/>
<path d="M76.3757 108.427V107.523L71.4019 105.049V105.935L76.3757 108.427Z" fill="#4D4D4D"/>
<path d="M109.805 141.936L109.784 121.203L128.953 111.621V132.335L109.805 141.936Z" fill="#DBA763"/>
<path d="M109.805 141.936L109.784 121.203L90.6357 111.621V132.335L109.805 141.936Z" fill="#E8B679"/>
<path d="M90.6357 111.621L109.784 121.203L128.953 111.621L109.805 102.039L90.6357 111.621Z" fill="#FFE1C0"/>
<path d="M121.824 121.222L117.554 123.364V117.308L121.824 115.167V121.222Z" fill="#4D4D4D"/>
<path d="M121.824 115.166L102.697 105.603L98.4277 107.744L117.555 117.308L121.824 115.166Z" fill="#6D6D6D"/>
<path d="M112.324 138.965V137.913L118.77 134.682V135.752L112.324 138.965Z" fill="#4D4D4D"/>
<path d="M112.324 137.062V135.991L118.77 132.779V133.85L112.324 137.062Z" fill="#4D4D4D"/>
<path d="M124.535 129.309V133.001L127.609 131.469V127.758L124.535 129.309Z" fill="#4D4D4D"/>
<path d="M94.8411 128.921V132.762L91.7671 131.229V127.371L94.8411 128.921Z" fill="#4D4D4D"/>
<path d="M99.0461 131.025V134.865L95.9722 133.333V129.474L99.0461 131.025Z" fill="#4D4D4D"/>
<path d="M98.0858 117.64V123.178L91.7671 120.021V114.482L98.0858 117.64Z" fill="white"/>
<path d="M97.3171 118.784V117.88L92.3433 115.406V116.292L97.3171 118.784Z" fill="#4D4D4D"/>
<path d="M54.7727 25.6973L3.62549 51.3785L114.181 106.969L165.435 81.3614L54.7727 25.6973Z" fill="#97A9DD"/>
<path d="M114.181 110.052V106.784L165.435 81.1587V84.4265L114.181 110.052Z" fill="#7C76AC"/>
<path d="M3.62549 51.3789V54.6468L114.181 109.923V106.655L3.62549 51.3789Z" fill="#8583B7"/>
<path d="M96.1002 49.2744L57.7612 68.4384L58.9567 69.0845L97.4237 49.8652L96.1002 49.2744Z" fill="#ED8E2F"/>
<path d="M97.4236 49.8647L58.9565 69.0841V73.8105L97.4236 54.6096V49.8647Z" fill="#C96A1C"/>
<path d="M57.7612 73.2188V68.437L58.9567 69.0832V73.8095L57.7612 73.2188Z" fill="#D87923"/>
<path d="M53.3 27.8018L14.9609 46.9657L16.1564 47.6119L54.6022 28.3926L53.3 27.8018Z" fill="#ED8E2F"/>
<path d="M54.6025 28.3931L16.1567 47.594V52.3388L54.6025 33.1379V28.3931Z" fill="#C96A1C"/>
<path d="M14.9609 51.7481V46.9663L16.1564 47.594V52.3389L14.9609 51.7481Z" fill="#D87923"/>
<path d="M74.0919 37.9941L35.7314 57.1766L36.9269 57.8228L75.394 38.6034L74.0919 37.9941Z" fill="#ED8E2F"/>
<path d="M75.3944 38.603L36.9272 57.8039V62.5487L75.3944 43.3294V38.603Z" fill="#C96A1C"/>
<path d="M35.7314 61.9585V57.1768L36.9269 57.8045V62.5493L35.7314 61.9585Z" fill="#D87923"/>
<path d="M58.957 67.6255L14.9609 45.6553V47.1877L58.957 69.1579V67.6255Z" fill="#D87923"/>
<path d="M63.5679 65.4106L58.957 67.6261L14.9609 45.6558L19.5505 43.4219L63.5679 65.4106Z" fill="#ED8E2F"/>
<path d="M63.5675 65.4106L58.9565 67.6262V70.4878L63.5675 68.1615V65.4106Z" fill="#C96A1C"/>
<path d="M67.5386 63.2496L23.4146 41.187V42.7194L67.5386 64.7819V63.2496Z" fill="#D87923"/>
<path d="M72.1495 61.0346L67.5386 63.2501L23.4146 41.1876L28.0041 38.9536L72.1495 61.0346Z" fill="#ED8E2F"/>
<path d="M72.149 61.0342L67.5381 63.2497V66.1113L72.149 63.7851V61.0342Z" fill="#C96A1C"/>
<path d="M76.3324 58.9485L32.1016 36.8306V38.3629L76.3324 60.4809V58.9485Z" fill="#D87923"/>
<path d="M80.9433 56.7142L76.3324 58.9482L32.1016 36.8302L36.6912 34.6147L80.9433 56.7142Z" fill="#ED8E2F"/>
<path d="M80.9444 56.7144L76.3335 58.9483V61.81L80.9444 59.4837V56.7144Z" fill="#C96A1C"/>
<path d="M84.9146 54.5723L40.7905 32.6021V34.1344L84.9146 56.1047V54.5723Z" fill="#D87923"/>
<path d="M89.5256 52.3399L84.9146 54.5738L40.7905 32.6036L45.3588 30.3696L89.5256 52.3399Z" fill="#ED8E2F"/>
<path d="M89.5255 52.3394L84.9146 54.5733V57.435L89.5255 55.1087V52.3394Z" fill="#C96A1C"/>
<path d="M92.8126 50.75L48.5605 28.6689V30.2013L92.8126 52.2639V50.75Z" fill="#D87923"/>
<path d="M97.4236 48.5166L92.8126 50.7505L48.5605 28.6695L53.1714 26.4355L97.4236 48.5166Z" fill="#ED8E2F"/>
<path d="M97.4234 48.5161L92.8125 50.7501V53.5933L97.4234 51.267V48.5161Z" fill="#C96A1C"/>
<path d="M55.9038 45.9881V25.2548L75.0733 15.6729V36.3877L55.9038 45.9881Z" fill="#DBA763"/>
<path d="M55.904 45.9881V25.2548L36.7559 15.6729V36.3877L55.904 45.9881Z" fill="#E8B679"/>
<path d="M36.7559 15.6718L55.904 25.2538L75.0735 15.6718L55.904 6.08984L36.7559 15.6718Z" fill="#FFE1C0"/>
<path d="M67.9437 25.2729L63.6743 27.4146V21.3589L67.9437 19.2173V25.2729Z" fill="#4D4D4D"/>
<path d="M67.9439 19.2177L48.8171 9.63574L44.5264 11.7774L63.6745 21.3594L67.9439 19.2177Z" fill="#6D6D6D"/>
<path d="M58.4443 43.0147V41.9439L64.8698 38.7314V39.8023L58.4443 43.0147Z" fill="#4D4D4D"/>
<path d="M58.4443 41.1133V40.0424L64.8698 36.8115V37.9008L58.4443 41.1133Z" fill="#4D4D4D"/>
<path d="M70.6548 33.3414V37.0524L73.7287 35.5016V31.8091L70.6548 33.3414Z" fill="#4D4D4D"/>
<path d="M40.9612 32.9533V36.8119L37.8872 35.2795V31.4209L40.9612 32.9533Z" fill="#4D4D4D"/>
<path d="M45.1667 35.0587V38.9174L42.0928 37.385V33.5264L45.1667 35.0587Z" fill="#4D4D4D"/>
<path d="M44.2059 21.6908V27.2295L37.8872 24.0724V18.5337L44.2059 21.6908Z" fill="white"/>
<path d="M43.4372 22.8356V21.9309L38.4634 19.4385V20.3247L43.4372 22.8356Z" fill="#4D4D4D"/>
<path d="M76.8665 56.345L76.8452 35.6118L96.0147 26.0298V46.7446L76.8665 56.345Z" fill="#DBA763"/>
<path d="M76.8672 56.345L76.8459 35.6118L57.6978 26.0298V46.7446L76.8672 56.345Z" fill="#E8B679"/>
<path d="M57.6978 26.0297L76.8459 35.6117L96.0154 26.0297L76.8672 16.4478L57.6978 26.0297Z" fill="#FFE1C0"/>
<path d="M88.8851 35.6114L84.6157 37.7715V31.7159L88.8851 29.5742V35.6114Z" fill="#4D4D4D"/>
<path d="M88.8853 29.5742L69.7585 19.9922L65.4678 22.1338L84.6159 31.7158L88.8853 29.5742Z" fill="#6D6D6D"/>
<path d="M79.3857 53.3722V52.3013L85.8111 49.0889V50.1597L79.3857 53.3722Z" fill="#4D4D4D"/>
<path d="M79.3857 51.4702V50.3994L85.8111 47.1685V48.2577L79.3857 51.4702Z" fill="#4D4D4D"/>
<path d="M91.5962 43.6974V47.4084L94.6702 45.8575V42.165L91.5962 43.6974Z" fill="#4D4D4D"/>
<path d="M61.9026 43.3102V47.1689L58.8286 45.6365V41.7778L61.9026 43.3102Z" fill="#4D4D4D"/>
<path d="M66.1081 45.4157V49.2743L63.0342 47.7419V43.8833L66.1081 45.4157Z" fill="#4D4D4D"/>
<path d="M65.1473 32.0482V37.5869L58.8286 34.4298V28.8911L65.1473 32.0482Z" fill="white"/>
<path d="M64.3786 33.1745V32.2883L59.4048 29.7959V30.6821L64.3786 33.1745Z" fill="#4D4D4D"/>
<path d="M36.1792 56.2708V35.5376L55.3487 25.9556V46.6704L36.1792 56.2708Z" fill="#DBA763"/>
<path d="M36.1794 56.2708V35.5376L17.0312 25.9556V46.6704L36.1794 56.2708Z" fill="#E8B679"/>
<path d="M17.0312 25.956L36.1794 35.538L55.349 25.956L36.1794 16.374L17.0312 25.956Z" fill="#FFE1C0"/>
<path d="M48.2191 35.5377L43.9497 37.6978V31.6421L48.2191 29.5005V35.5377Z" fill="#4D4D4D"/>
<path d="M48.2193 29.5L29.0924 19.9365L24.8018 22.0597L43.9499 31.6417L48.2193 29.5Z" fill="#6D6D6D"/>
<path d="M38.7197 53.2984V52.2276L45.1452 49.0151V50.086L38.7197 53.2984Z" fill="#4D4D4D"/>
<path d="M38.7197 51.3965V50.3256L45.1452 47.0947V48.184L38.7197 51.3965Z" fill="#4D4D4D"/>
<path d="M50.9307 43.6242V47.3351L54.0046 45.7843V42.0918L50.9307 43.6242Z" fill="#4D4D4D"/>
<path d="M21.2366 43.237V47.0956L18.1626 45.5632V41.7046L21.2366 43.237Z" fill="#4D4D4D"/>
<path d="M25.4411 45.341V49.1996L22.3672 47.6673V43.8086L25.4411 45.341Z" fill="#4D4D4D"/>
<path d="M24.4813 31.9744V37.5132L18.1626 34.3561V28.8174L24.4813 31.9744Z" fill="white"/>
<path d="M23.7131 33.1197V32.2151L18.7393 29.7227V30.6089L23.7131 33.1197Z" fill="#4D4D4D"/>
<path d="M57.1425 66.6287L57.1211 45.8955L76.2906 36.3135V57.0283L57.1425 66.6287Z" fill="#DBA763"/>
<path d="M57.1422 66.6287L57.1208 45.8955L37.9727 36.3135V57.0283L57.1422 66.6287Z" fill="#E8B679"/>
<path d="M37.9727 36.3134L57.1208 45.8954L76.2904 36.3134L57.1422 26.7314L37.9727 36.3134Z" fill="#FFE1C0"/>
<path d="M69.1605 45.9136L64.8911 48.0552V41.9996L69.1605 39.8579V45.9136Z" fill="#4D4D4D"/>
<path d="M69.1607 39.8584L50.0339 30.2949L45.7432 32.4181L64.8913 42.0001L69.1607 39.8584Z" fill="#6D6D6D"/>
<path d="M59.6611 63.6563V62.5855L66.1079 59.373V60.4439L59.6611 63.6563Z" fill="#4D4D4D"/>
<path d="M59.6611 61.754V60.6831L66.1079 57.4707V58.5415L59.6611 61.754Z" fill="#4D4D4D"/>
<path d="M71.8716 53.9821V57.693L74.9455 56.1422V52.4497L71.8716 53.9821Z" fill="#4D4D4D"/>
<path d="M42.1785 53.5949V57.4535L39.1045 55.9211V52.0625L42.1785 53.5949Z" fill="#4D4D4D"/>
<path d="M46.383 55.6984V59.557L43.3091 58.0246V54.166L46.383 55.6984Z" fill="#4D4D4D"/>
<path d="M45.4232 42.3324V47.8711L39.1045 44.714V39.1753L45.4232 42.3324Z" fill="white"/>
<path d="M44.655 43.4762V42.5715L39.6812 40.0791V40.9653L44.655 43.4762Z" fill="#4D4D4D"/>
<path d="M148.784 75.4346L110.424 94.5985L111.619 95.2447L150.086 76.0438L148.784 75.4346Z" fill="#ED8E2F"/>
<path d="M150.086 76.0439L111.619 95.2448V99.9897L150.086 80.7703V76.0439Z" fill="#C96A1C"/>
<path d="M110.424 99.3814V94.5996L111.619 95.2458V99.9906L110.424 99.3814Z" fill="#D87923"/>
<path d="M105.963 53.9634L67.6235 73.1274L68.819 73.7736L107.265 54.5726L105.963 53.9634Z" fill="#ED8E2F"/>
<path d="M107.265 54.5728L68.8188 73.7737V78.5L107.265 59.2991V54.5728Z" fill="#C96A1C"/>
<path d="M67.6235 77.9087V73.127L68.819 73.7731V78.4995L67.6235 77.9087Z" fill="#D87923"/>
<path d="M126.755 64.1729L88.4155 83.3368L89.6109 83.983L128.057 64.7821L126.755 64.1729Z" fill="#ED8E2F"/>
<path d="M128.056 64.7817L89.6104 83.9826V88.709L128.056 69.5081V64.7817Z" fill="#C96A1C"/>
<path d="M88.4155 88.1187V83.3369L89.611 83.9831V88.7095L88.4155 88.1187Z" fill="#D87923"/>
<path d="M111.619 93.8052L67.6235 71.835V73.3673L111.619 95.3376V93.8052Z" fill="#D87923"/>
<path d="M116.23 91.5723L111.619 93.8062L67.6235 71.836L72.2131 69.6021L116.23 91.5723Z" fill="#ED8E2F"/>
<path d="M116.23 91.5708L111.619 93.8047V96.648L116.23 94.3217V91.5708Z" fill="#C96A1C"/>
<path d="M120.201 89.4297L76.0771 67.3672V68.8996L120.201 90.9621V89.4297Z" fill="#D87923"/>
<path d="M124.812 87.1954L120.201 89.4293L76.0771 67.3668L80.6667 65.1328L124.812 87.1954Z" fill="#ED8E2F"/>
<path d="M124.812 87.1953L120.201 89.4293V92.2725L124.812 89.9647V87.1953Z" fill="#C96A1C"/>
<path d="M128.996 85.1277L84.7651 63.0098V64.5421L128.996 86.6601V85.1277Z" fill="#D87923"/>
<path d="M133.607 82.8933L128.996 85.1273L84.7651 63.0094L89.3547 60.7754L133.607 82.8933Z" fill="#ED8E2F"/>
<path d="M133.607 82.8936L128.996 85.1275V87.9707L133.607 85.6445V82.8936Z" fill="#C96A1C"/>
<path d="M137.577 80.7525L93.4531 58.7822V60.2962L137.577 82.2849V80.7525Z" fill="#D87923"/>
<path d="M142.188 78.5181L137.577 80.752L93.4531 58.7818L98.0427 56.5479L142.188 78.5181Z" fill="#ED8E2F"/>
<path d="M142.189 78.5181L137.578 80.752V83.5952L142.189 81.269V78.5181Z" fill="#C96A1C"/>
<path d="M145.475 76.9122L101.245 54.8496V56.3635L145.475 78.4446V76.9122Z" fill="#D87923"/>
<path d="M150.086 74.6783L145.475 76.9122L101.245 54.8497L105.834 52.6157L150.086 74.6783Z" fill="#ED8E2F"/>
<path d="M150.087 74.6787L145.476 76.9127V79.7743L150.087 77.4481V74.6787Z" fill="#C96A1C"/>
<path d="M111.022 69.748V61.1815L125.196 54.1104V62.6954L111.022 69.748Z" fill="#DBA763"/>
<path d="M111.022 69.7481V61.1816L94.606 52.9658V61.5324L111.022 69.7481Z" fill="#E8B679"/>
<path d="M94.606 52.9661L111.022 61.1819L125.196 54.1108L108.738 45.895L94.606 52.9661Z" fill="#FFE1C0"/>
<path d="M112.196 68.1785V67.2923L117.533 64.6152V65.5199L112.196 68.1785Z" fill="#4D4D4D"/>
<path d="M112.196 66.6101V65.7239L117.533 63.0469V63.9331L112.196 66.6101Z" fill="#4D4D4D"/>
<path d="M99.3452 57.1936V61.1815L96.1646 59.5937V55.5874L99.3452 57.1936Z" fill="#4D4D4D"/>
<path d="M102.376 58.2457V62.9721L95.7588 59.6488V54.9409L102.376 58.2457Z" fill="white"/>
<path d="M101.373 59.3911V58.5049L96.5059 56.0679V56.9356L101.373 59.3911Z" fill="#4D4D4D"/>
<path d="M121.055 56.1426L117.404 57.9888V62.4936L121.055 60.6659V56.1426Z" fill="#4D4D4D"/>
<path d="M121.055 56.1421L104.639 47.9448L100.967 49.7726L117.404 57.9884L121.055 56.1421Z" fill="#6D6D6D"/>
<path d="M89.6533 80.3652V71.7986L103.828 64.7275V73.3126L89.6533 80.3652Z" fill="#DBA763"/>
<path d="M89.6531 80.3643V71.7978L73.2373 63.582V72.1486L89.6531 80.3643Z" fill="#E8B679"/>
<path d="M73.2373 63.5823L89.6531 71.7981L103.827 64.727L87.3903 56.5112L73.2373 63.5823Z" fill="#FFE1C0"/>
<path d="M90.8491 78.7956V77.9095L96.1859 75.2324V76.1371L90.8491 78.7956Z" fill="#4D4D4D"/>
<path d="M90.8491 77.2258V76.3397L96.1859 73.6626V74.5488L90.8491 77.2258Z" fill="#4D4D4D"/>
<path d="M77.9981 67.7914V71.7977L74.8174 70.1915V66.2036L77.9981 67.7914Z" fill="#4D4D4D"/>
<path d="M81.0302 68.8624V73.5703L74.4126 70.2655V65.5576L81.0302 68.8624Z" fill="white"/>
<path d="M80.0261 69.9889V69.1211L75.1377 66.6841V67.5518L80.0261 69.9889Z" fill="#4D4D4D"/>
<path d="M99.6861 66.7578L96.0571 68.5856V73.1089L99.6861 71.2811V66.7578Z" fill="#4D4D4D"/>
<path d="M99.6867 66.7583L83.2923 58.561L79.6206 60.3888L96.0577 68.6046L99.6867 66.7583Z" fill="#6D6D6D"/>
<path d="M131.899 80.2719V71.6869L146.052 64.6343V73.2193L131.899 80.2719Z" fill="#DBA763"/>
<path d="M131.899 80.2724V71.6874L115.483 63.4717V72.0567L131.899 80.2724Z" fill="#E8B679"/>
<path d="M115.483 63.4705L131.899 71.6863L146.052 64.6336L129.615 56.3994L115.483 63.4705Z" fill="#FFE1C0"/>
<path d="M133.074 78.7034V77.8172L138.41 75.1401V76.0448L133.074 78.7034Z" fill="#4D4D4D"/>
<path d="M133.074 77.115V76.2288L138.41 73.5518V74.4564L133.074 77.115Z" fill="#4D4D4D"/>
<path d="M120.222 67.6996V71.6875L117.042 70.0997V66.1118L120.222 67.6996Z" fill="#4D4D4D"/>
<path d="M123.253 68.7706V73.4785L116.636 70.1737V65.4658L123.253 68.7706Z" fill="white"/>
<path d="M122.25 69.8965V69.0103L117.383 66.5732V67.4594L122.25 69.8965Z" fill="#4D4D4D"/>
<path d="M141.933 66.665L138.282 68.4928V73.0161L141.933 71.1883V66.665Z" fill="#4D4D4D"/>
<path d="M141.932 66.6651L125.516 58.4678L121.845 60.2956L138.282 68.5113L141.932 66.6651Z" fill="#6D6D6D"/>
<path d="M110.531 90.8872V82.3022L124.706 75.2495V83.8345L110.531 90.8872Z" fill="#DBA763"/>
<path d="M110.531 90.8872V82.3022L94.1152 74.0864V82.6714L110.531 90.8872Z" fill="#E8B679"/>
<path d="M94.1152 74.0872L110.531 82.303L124.705 75.2503L108.268 67.0161L94.1152 74.0872Z" fill="#FFE1C0"/>
<path d="M111.727 89.3191V88.4329L117.063 85.7559V86.6605L111.727 89.3191Z" fill="#4D4D4D"/>
<path d="M111.727 87.7307V86.8445L117.063 84.1675V85.0721L111.727 87.7307Z" fill="#4D4D4D"/>
<path d="M98.8759 78.3153V82.3032L95.6738 80.7154V76.7275L98.8759 78.3153Z" fill="#4D4D4D"/>
<path d="M101.907 79.3678V84.0942L95.2891 80.7894V76.0815L101.907 79.3678Z" fill="white"/>
<path d="M100.903 80.5122V79.626L96.0146 77.189V78.0567L100.903 80.5122Z" fill="#4D4D4D"/>
<path d="M120.564 77.2812L116.935 79.109V83.6323L120.564 81.8045V77.2812Z" fill="#4D4D4D"/>
<path d="M120.564 77.2813L104.169 69.084L100.498 70.9118L116.935 79.1275L120.564 77.2813Z" fill="#6D6D6D"/>
<path d="M111.022 60.3334V51.7483L125.196 44.6772V53.2623L111.022 60.3334Z" fill="#DBA763"/>
<path d="M111.022 60.333V51.748L94.606 43.5322V52.1172L111.022 60.333Z" fill="#E8B679"/>
<path d="M94.606 43.532L111.022 51.7478L125.196 44.6767L108.738 36.4609L94.606 43.532Z" fill="#FFE1C0"/>
<path d="M112.196 58.763V57.8768L117.533 55.1997V56.0859L112.196 58.763Z" fill="#4D4D4D"/>
<path d="M112.196 57.1761V56.2899L117.533 53.6128V54.5175L112.196 57.1761Z" fill="#4D4D4D"/>
<path d="M99.3452 47.7596V51.7475L96.1646 50.1598V46.1719L99.3452 47.7596Z" fill="#4D4D4D"/>
<path d="M102.376 48.8132V53.5395L95.7588 50.2348V45.5269L102.376 48.8132Z" fill="white"/>
<path d="M101.373 49.9565V49.0703L96.5059 46.6333V47.501L101.373 49.9565Z" fill="#4D4D4D"/>
<path d="M121.055 46.7256L117.404 48.5534V53.0767L121.055 51.2304V46.7256Z" fill="#4D4D4D"/>
<path d="M121.055 46.7255L104.639 38.5098L100.967 40.3375L117.404 48.5533L121.055 46.7255Z" fill="#6D6D6D"/>
<path d="M89.6533 70.9491V62.3641L103.828 55.293V63.878L89.6533 70.9491Z" fill="#DBA763"/>
<path d="M89.6531 70.9492V62.3642L73.2373 54.1484V62.7334L89.6531 70.9492Z" fill="#E8B679"/>
<path d="M73.2373 54.1482L89.6531 62.364L103.827 55.2929L87.3903 47.0771L73.2373 54.1482Z" fill="#FFE1C0"/>
<path d="M90.8491 69.3607V68.493L96.1859 65.8159V66.7021L90.8491 69.3607Z" fill="#4D4D4D"/>
<path d="M90.8491 67.7913V66.9051L96.1859 64.228V65.1327L90.8491 67.7913Z" fill="#4D4D4D"/>
<path d="M77.9981 58.3749V62.3628L74.8174 60.775V56.7871L77.9981 58.3749Z" fill="#4D4D4D"/>
<path d="M81.0302 59.4289V64.1553L74.4126 60.8505V56.1426L81.0302 59.4289Z" fill="white"/>
<path d="M80.0261 60.5732V59.687L75.1377 57.25V58.1177L80.0261 60.5732Z" fill="#4D4D4D"/>
<path d="M99.6861 57.3232L96.0571 59.1695V63.6743L99.6861 61.8465V57.3232Z" fill="#4D4D4D"/>
<path d="M99.6867 57.3233L83.2923 49.126L79.6206 50.9538L96.0577 59.1695L99.6867 57.3233Z" fill="#6D6D6D"/>
<path d="M131.899 70.8374V62.2708L146.052 55.1997V63.7847L131.899 70.8374Z" fill="#DBA763"/>
<path d="M131.899 70.8375V62.2709L115.483 54.0552V62.6217L131.899 70.8375Z" fill="#E8B679"/>
<path d="M115.483 54.0565L131.899 62.2722L146.052 55.2011L129.615 46.9854L115.483 54.0565Z" fill="#FFE1C0"/>
<path d="M133.074 69.2688V68.3826L138.41 65.7056V66.6102L133.074 69.2688Z" fill="#4D4D4D"/>
<path d="M133.074 67.7V66.8138L138.41 64.1367V65.0229L133.074 67.7Z" fill="#4D4D4D"/>
<path d="M120.222 58.265V62.2714L117.042 60.6651V56.6772L120.222 58.265Z" fill="#4D4D4D"/>
<path d="M123.253 59.336V64.0439L116.636 60.7391V56.0312L123.253 59.336Z" fill="white"/>
<path d="M122.25 60.462V59.5943L117.383 57.1572V58.0249L122.25 60.462Z" fill="#4D4D4D"/>
<path d="M141.933 57.231L138.282 59.0587V63.582L141.933 61.7542V57.231Z" fill="#4D4D4D"/>
<path d="M141.932 57.231L125.516 49.0337L121.845 50.8615L138.282 59.0772L141.932 57.231Z" fill="#6D6D6D"/>
<path d="M110.531 81.4536V72.8686L124.706 65.8159V74.4009L110.531 81.4536Z" fill="#DBA763"/>
<path d="M110.531 81.4532V72.8682L94.1152 64.6709V73.2374L110.531 81.4532Z" fill="#E8B679"/>
<path d="M94.1152 64.6716L110.531 72.8689L124.705 65.8162L108.268 57.582L94.1152 64.6716Z" fill="#FFE1C0"/>
<path d="M111.727 79.8841V78.9978L117.063 76.3208V77.2255L111.727 79.8841Z" fill="#4D4D4D"/>
<path d="M111.727 78.2972V77.4295L117.063 74.7524V75.6386L111.727 78.2972Z" fill="#4D4D4D"/>
<path d="M98.8759 68.8812V72.8691L95.6738 71.2813V67.2935L98.8759 68.8812Z" fill="#4D4D4D"/>
<path d="M101.907 69.9517V74.6596L95.2891 71.3549V66.647L101.907 69.9517Z" fill="white"/>
<path d="M100.903 71.0772V70.191L96.0146 67.7725V68.6402L100.903 71.0772Z" fill="#4D4D4D"/>
<path d="M120.564 67.8472L116.935 69.675V74.1982L120.564 72.3704V67.8472Z" fill="#4D4D4D"/>
<path d="M120.564 67.8477L104.169 59.6504L100.498 61.4782L116.935 69.6939L120.564 67.8477Z" fill="#6D6D6D"/>
<path d="M114.843 212.094V84.9251L112.452 83.7251V210.913L114.843 212.094Z" fill="#3A3A3A"/>
<path d="M114.843 212.094L117.768 210.673V83.4854L114.843 84.9254V212.094Z" fill="#4D4D4D"/>
<path d="M166.097 186.578V59.4095L163.685 58.2095V185.378L166.097 186.578Z" fill="#3A3A3A"/>
<path d="M166.097 186.579L169 185.157V57.9697L166.097 59.4098V186.579Z" fill="#4D4D4D"/>
<path d="M112.452 83.7242L114.843 84.9243L117.768 83.4842L115.355 82.2842L112.452 83.7242Z" fill="#A3A3A3"/>
<path d="M163.685 58.2101L166.097 59.4101L169 57.9701L166.588 56.77L163.685 58.2101Z" fill="#A3A3A3"/>
<path d="M168.061 181.927L166.097 183.625L116.124 149.285L117.042 146.756L168.061 181.927Z" fill="#4D4D4D"/>
<path d="M116.53 206.407L116.978 208.844L167.25 124.324L166.097 122.847L116.53 206.407Z" fill="#4D4D4D"/>
<path d="M168.061 121.978L166.097 123.677L116.124 89.3366L117.042 86.8257L168.061 121.978Z" fill="#4D4D4D"/>
<path d="M116.53 146.459L116.978 148.896L167.25 64.3754L166.097 62.8984L116.53 146.459Z" fill="#4D4D4D"/>
</svg>
