<svg width="226" height="373" viewBox="0 0 226 373" fill="none" xmlns="http://www.w3.org/2000/svg">
<path d="M149.518 274.359C149.518 274.359 146.329 278.101 142.094 282.638C137.86 287.175 136.866 287.969 133.259 291.825C131.168 294.093 132.893 296.192 136.971 296.022C142.486 295.409 147.921 294.134 153.177 292.222C157.368 290.297 161.407 288.002 165.253 285.36C166.979 284.259 168.265 282.5 168.86 280.426V273.451L149.518 274.359Z" fill="#4D4D4D"/>
<path d="M207.651 268.174C205.771 270.955 203.672 273.555 201.378 275.943C198.198 279.218 195.326 282.827 192.804 286.718C192.02 287.852 191.55 291.084 195.627 290.914C200.263 290.357 204.813 289.156 209.167 287.342C213.701 284.681 217.914 281.424 221.713 277.644C223.721 275.946 225.214 273.636 226 271.009L223.961 264.147L207.651 268.174Z" fill="#4D4D4D"/>
<path d="M206.031 155.607C206.706 148.625 206.036 141.567 204.066 134.88C202.095 128.193 198.865 122.023 194.582 116.761C195.627 108.198 158.929 120.163 158.929 120.163C158.929 120.163 151.087 166.325 147.742 190.596C143.978 218.214 146.278 274.47 146.278 274.47C146.278 274.47 146.748 280.481 156.21 280.424C161.103 279.973 165.642 277.471 168.861 273.449L169.646 209.481L178.062 164.113C178.062 164.113 186.165 200.974 188.518 214.188C191.236 228.308 201.744 269.933 201.744 269.933C203.567 272.254 206.025 273.885 208.76 274.589C211.496 275.292 214.367 275.032 216.956 273.846C225.373 269.252 223.752 264.148 223.752 264.148C222.306 244.898 218.09 226.012 211.258 208.176C210.526 188.101 205.351 167.289 206.031 155.607Z" fill="#5D588D"/>
<path d="M163.948 53.3589C163.948 53.3589 158.72 53.3589 153.493 64.0769C148.265 74.795 143.037 86.7607 143.037 86.7607C149.242 88.3141 154.926 91.7112 159.452 96.5714C170.901 85.1728 172.835 58.6896 163.948 53.3589Z" fill="#D1406B"/>
<path d="M163.948 53.3633C161.537 58.9286 159.645 64.742 158.302 70.7163C155.584 82.0582 156.577 134.344 156.577 134.344C165.574 140.149 176.082 142.58 186.48 141.263C192.873 140.854 198.887 137.835 203.313 132.813C203.313 132.813 209.952 81.4911 209.063 74.1756C208.174 66.8601 193.955 49.5637 193.955 49.5637C183.827 48.9951 173.683 50.2796 163.948 53.3633Z" fill="#FC6181"/>
<path d="M176.598 46.1591L174.455 59.9394C174.455 59.9394 180.885 67.7653 187.21 61.9243C193.536 56.0832 194.425 53.3612 194.425 53.3612L191.34 34.5903L176.598 46.1591Z" fill="#FFAD97"/>
<path d="M185.696 13.9481C183.791 12.4073 181.569 11.3928 179.221 10.9922C176.874 10.5916 174.472 10.817 172.223 11.6489C169.974 12.4808 167.945 13.8941 166.312 15.7669C164.68 17.6396 163.491 19.9155 162.851 22.3978C157.937 37.369 170.483 56.4234 177.175 52.9641C183.463 49.6748 188.387 43.9488 190.976 36.9153C192.034 32.9214 192.103 28.6956 191.176 24.6635C190.249 20.6315 188.359 16.9355 185.696 13.9481Z" fill="#FFC5B3"/>
<path d="M161.752 27.1609C163.262 28.955 165.192 30.2717 167.337 30.9707C169.481 31.6697 171.761 31.7249 173.932 31.1306C177.24 30.5313 180.415 29.2616 183.29 27.3878C183.29 27.3878 187.524 30.4501 189.093 31.4141C190.661 32.3782 190.975 37.0851 190.975 37.0851C192.148 35.0423 192.909 32.7526 193.206 30.3674C193.503 27.9821 193.331 25.5555 192.7 23.248C191.549 17.5771 186.479 5.78158 176.755 6.74564C172.999 6.89243 169.382 8.31935 166.416 10.8237C163.451 13.328 161.288 16.7824 160.236 20.6961C160.006 21.8273 160.024 23.001 160.287 24.1235C160.55 25.246 161.052 26.2861 161.752 27.1609Z" fill="#4D4D4D"/>
<path d="M177.331 84.4916C181.274 77.9154 186.266 72.1544 192.073 67.4788C195.65 65.3079 199.51 63.7399 203.522 62.8286C203.522 62.8286 200.647 57.6681 199.078 57.1577C195.074 57.9398 191.232 59.4956 187.734 61.7512C181.648 65.7739 176.553 71.3396 172.887 77.97C167.712 87.4972 173.515 90.1625 177.331 84.4916Z" fill="#5D588D"/>
<path d="M163.268 53.4167C160.912 59.296 159.159 65.4386 158.041 71.7338C157.361 78.3688 158.616 80.467 161.073 80.6938C163.53 80.9207 163.687 76.1571 164.418 70.8264C165.15 65.4957 169.019 51.6587 169.019 51.6587L163.268 53.4167Z" fill="#5D588D"/>
<path d="M204.358 124.248C200.247 127.558 195.35 129.526 190.243 129.919C185.015 129.295 177.54 123.794 177.906 105.874C177.939 97.1193 178.585 88.3798 179.84 79.7312L159.87 70.2607C155.699 83.2085 153.509 96.8094 153.388 110.524C152.342 137.234 151.872 146.421 151.872 146.421C163.17 147.19 174.501 147.19 185.8 146.421C192.509 145.857 199.101 144.193 205.351 141.488L204.358 124.248Z" fill="#5D588D"/>
<path d="M160.812 76.8944C161.505 76.8944 162.067 76.0058 162.067 74.9096C162.067 73.8134 161.505 72.9248 160.812 72.9248C160.119 72.9248 159.558 73.8134 159.558 74.9096C159.558 76.0058 160.119 76.8944 160.812 76.8944Z" fill="white"/>
<path d="M174.038 80.9768C173.462 81.8842 173.41 82.9617 174.038 83.3586C174.665 83.7556 175.554 83.3586 176.129 82.5647C176.704 81.7708 176.756 80.5799 176.129 80.1829C175.501 79.786 174.613 80.0695 174.038 80.9768Z" fill="white"/>
<path d="M158.197 83.5854C157.361 88.0655 157.779 102.129 165.15 104.284C172.521 106.439 173.514 97.6494 175.083 91.0711C169.167 89.421 163.486 86.9025 158.197 83.5854Z" fill="#7C76AC"/>
<path d="M184.596 100.773C182.705 105.973 180.396 110.983 177.695 115.744C171.64 121.619 165.25 127.073 158.562 132.076C161.109 134.087 163.127 136.785 164.417 139.902C171.559 136.763 178.389 132.849 184.805 128.22C190.077 122.749 194.776 116.664 198.815 110.073C198.815 110.073 194.581 98.4477 184.596 100.773Z" fill="#FFC5B3"/>
<path d="M206.605 67.8213C202.632 64.3621 194.163 76.101 189.615 83.4732C186.35 89.2661 183.635 95.4031 181.512 101.79C181.512 101.79 186.74 106.1 191.968 109.389C194.67 111.233 197.482 112.881 200.384 114.323C200.384 114.323 220.249 79.7303 206.605 67.8213Z" fill="#D1406B"/>
<path d="M187.369 14.7998C195.211 18.2024 196.936 24.9508 191.237 29.8845C187.616 32.3952 183.504 33.9537 179.23 34.4362C174.955 34.9186 170.635 34.3115 166.615 32.6632C158.773 29.2607 157.048 22.569 162.799 17.6353C166.405 15.1119 170.506 13.5408 174.773 13.0484C179.04 12.556 183.354 13.1559 187.369 14.7998Z" fill="#FFBA76"/>
<path d="M159.452 24.9476C159.452 24.9476 156.106 3.05782 173.567 0.279058C193.902 -2.95337 194.477 22.9628 194.477 22.9628L159.452 24.9476Z" fill="#FFBA76"/>
<path d="M159.19 21.7144C159.19 21.7144 150.721 30.3341 161.02 35.1544C178.428 43.3206 192.7 28.2926 192.7 28.2926C192.7 28.2926 174.194 33.1129 164.784 28.6329C158.406 25.8541 159.19 21.7144 159.19 21.7144Z" fill="#FFA543"/>
<path d="M176.232 1.58496C173.658 3.37842 171.794 6.14872 171.004 9.35412C170.229 11.2235 170.156 13.3466 170.801 15.2734C171.445 17.2002 172.755 18.7791 174.454 19.6753C176.923 21.3501 179.071 23.5258 180.78 26.0834C180.911 24.6875 180.738 23.2779 180.275 21.9678C179.812 20.6578 179.072 19.484 178.114 18.5411C174.873 15.6489 171.841 14.1177 173.723 9.35412C174.763 7.37363 176.16 5.64023 177.831 4.25689C179.501 2.87355 181.411 1.86849 183.446 1.3014C183.446 1.3014 180.78 -1.30721 176.232 1.58496Z" fill="#FFA543"/>
<path d="M173.567 0.282227C170.826 1.4977 168.416 3.44915 166.562 5.95316C165.621 7.59773 165.673 13.2119 164.784 14.6297C163.045 16.6608 161.176 18.5558 159.191 20.3006C159.191 20.3006 157.779 18.8828 159.557 16.2742C161.334 13.6656 163.425 13.4954 163.634 9.69591C163.739 6.74703 162.536 1.01945 173.567 0.282227Z" fill="#FFA543"/>
<path d="M144.396 166.55H140.893V265.111H144.396V166.55Z" fill="#4D4D4D"/>
<path d="M140.947 166.55H134.935V265.111H140.947V166.55Z" fill="#3A3A3A"/>
<path d="M141.469 169.05H140.632C138.341 168.127 136.467 166.278 135.404 163.89L125.681 142.454C124.905 140.93 124.56 139.192 124.69 137.457C124.821 135.722 125.42 134.067 126.413 132.7C127.446 131.49 128.832 130.705 130.338 130.477C131.843 130.25 133.375 130.594 134.673 131.452L155.897 143.815C157.188 144.582 158.298 145.661 159.141 146.969C159.984 148.278 160.538 149.779 160.759 151.357C161.048 152.788 160.956 154.278 160.493 155.654C160.03 157.03 159.216 158.234 158.145 159.126L146.644 168.257C145.881 168.775 145.026 169.113 144.134 169.25C143.243 169.386 142.334 169.319 141.469 169.05ZM139.325 161.792C139.759 162.747 140.504 163.495 141.416 163.89C141.827 164.068 142.273 164.13 142.711 164.071C143.15 164.011 143.568 163.832 143.926 163.55L155.479 154.476C155.915 154.098 156.244 153.594 156.429 153.023C156.614 152.451 156.647 151.835 156.524 151.244C156.435 150.601 156.208 149.99 155.864 149.459C155.519 148.928 155.065 148.49 154.538 148.181L133.313 135.819C132.786 135.445 132.151 135.291 131.526 135.385C130.902 135.478 130.33 135.814 129.915 136.329C129.501 136.891 129.25 137.574 129.194 138.291C129.139 139.008 129.28 139.726 129.602 140.356L139.325 161.792Z" fill="#4D4D4D"/>
<path d="M142.671 170.524L146.487 168.199V167.121L141.625 169.673L142.671 170.524Z" fill="#4D4D4D"/>
<path d="M125.368 132.756L128.348 130.941L128.975 131.735L126.414 134.514L125.368 132.756Z" fill="#4D4D4D"/>
<path d="M138.437 170.92L137.601 170.636C135.324 169.717 133.455 167.892 132.373 165.532L122.649 144.096C121.869 142.561 121.527 140.808 121.667 139.062C121.806 137.315 122.421 135.652 123.433 134.285C124.459 133.08 125.84 132.301 127.339 132.083C128.838 131.866 130.36 132.223 131.641 133.095L152.865 145.4C154.153 146.178 155.264 147.259 156.115 148.564C156.965 149.87 157.534 151.366 157.78 152.943C158.061 154.387 157.96 155.889 157.488 157.273C157.016 158.658 156.193 159.87 155.114 160.769L143.612 169.842C142.867 170.405 142.022 170.792 141.13 170.977C140.239 171.163 139.321 171.143 138.437 170.92ZM136.294 163.604C136.71 164.574 137.461 165.327 138.385 165.702C138.774 165.917 139.203 166.028 139.639 166.028C140.075 166.028 140.505 165.917 140.894 165.702L152.447 156.572C152.884 156.205 153.217 155.714 153.411 155.153C153.605 154.592 153.651 153.984 153.545 153.396C153.435 152.747 153.196 152.131 152.843 151.593C152.491 151.054 152.035 150.605 151.506 150.277L130.282 137.972C129.751 137.609 129.119 137.462 128.497 137.555C127.876 137.649 127.304 137.977 126.884 138.482C126.469 139.034 126.221 139.711 126.174 140.422C126.127 141.132 126.284 141.841 126.622 142.452L136.294 163.604Z" fill="#3A3A3A"/>
<path d="M164.73 306.454L63.7305 369.968C60.957 371.631 57.8659 372.573 54.7002 372.72C51.5345 372.868 48.3805 372.217 45.4858 370.819C40.8331 367.87 41.4082 362.766 46.7927 359.477L147.792 295.963L164.73 306.454Z" fill="#4D4D4D"/>
<path d="M164.732 301.689V306.453L157.309 307.984L155.792 300.271L164.732 301.689Z" fill="#4D4D4D"/>
<path d="M42.2988 361.007V365.884L43.9717 367.982L44.8082 362.198L42.2988 361.007Z" fill="#4D4D4D"/>
<path d="M164.73 301.691L63.7305 365.149C60.9652 366.833 57.8751 367.792 54.7072 367.95C51.5393 368.107 48.3815 367.459 45.4858 366.056C40.8331 363.108 41.4082 357.947 46.7927 354.715L147.792 291.2L164.73 301.691Z" fill="#707070"/>
<path d="M61.5884 357.209C61.9021 359.08 59.7065 361.065 56.7267 361.575C53.7469 362.086 51.1331 361.008 50.8717 359.137C50.6103 357.265 52.7536 355.28 55.7334 354.77C58.7132 354.26 61.5884 355.337 61.5884 357.209Z" fill="#FFBA76"/>
<path d="M60.8051 356.359C60.8051 358.06 59.1321 359.762 56.466 360.272C53.7999 360.782 51.2383 359.705 51.2383 358.06C51.2383 356.416 52.9634 354.658 55.6295 354.204C58.2957 353.75 60.5437 354.771 60.8051 356.359Z" fill="#FFA543"/>
<path d="M122.388 279.973L21.3882 343.43C18.6229 345.118 15.5297 346.075 12.3597 346.223C9.18962 346.37 6.03212 345.705 3.14353 344.281C-1.50914 341.389 -0.934088 336.228 4.45045 332.939L105.45 269.425L122.388 279.973Z" fill="#4D4D4D"/>
<path d="M122.386 275.15V279.97L114.962 281.501L113.499 273.789L122.386 275.15Z" fill="#4D4D4D"/>
<path d="M122.388 275.38L21.3882 338.894C18.6229 340.582 15.5297 341.539 12.3597 341.687C9.18962 341.834 6.03212 341.169 3.14353 339.745C-1.50914 336.853 -0.934088 331.692 4.45045 328.403L105.45 264.889L122.388 275.38Z" fill="#707070"/>
<path d="M19.296 330.726C19.296 332.598 17.3617 334.526 14.3819 335.036C11.4022 335.546 8.78832 334.469 8.52694 332.598C8.26555 330.726 10.4089 328.798 13.3887 328.288C16.3685 327.777 18.9823 328.855 19.296 330.726Z" fill="#FFBA76"/>
<path d="M18.4597 329.875C18.7211 331.52 16.7869 333.278 14.1208 333.732C11.4546 334.185 8.89307 333.221 8.89307 331.577C8.89307 329.932 10.6182 328.117 13.2843 327.664C15.9505 327.21 18.2506 328.174 18.4597 329.875Z" fill="#FFA543"/>
<path d="M98.9668 268.632L111.618 232.508L155.165 259.842L158.197 305.777L98.9668 268.632Z" fill="#FFA543"/>
<path d="M158.197 305.773L164.731 301.69L161.595 255.812L155.165 259.839L158.197 305.773Z" fill="#FFBA76"/>
<path d="M111.62 232.507L155.166 259.841L161.597 255.815L118.05 228.538L111.62 232.507Z" fill="#FFA543"/>
<path d="M160.916 130.205C160.027 130.942 159.243 131.509 158.825 131.792C155.95 133.8 152.624 134.918 149.206 135.025C148.26 134.858 147.291 134.941 146.381 135.267C145.471 135.592 144.646 136.151 143.978 136.896C144.71 137.35 146.174 138.031 146.174 138.031C146.174 138.031 140.946 140.299 141.312 144.779C141.312 147.047 141.782 147.104 143.351 147.161C143.821 148.068 144.135 149.372 146.069 148.919C146.644 149.316 148.944 151.3 150.199 150.96C154.702 149.23 158.655 146.141 161.595 142.057C163.563 140.268 165.66 138.656 167.868 137.237C166.234 134.206 163.817 131.762 160.916 130.205Z" fill="#FFC5B3"/>
<path d="M144.03 87.4453C137.909 97.0236 132.656 107.222 128.347 117.898C126.122 122.699 124.756 127.914 124.321 133.266C124.396 134.879 124.801 136.454 125.506 137.876C126.212 139.298 127.2 140.533 128.399 141.489C128.593 141.634 128.816 141.727 129.049 141.758C129.283 141.79 129.52 141.76 129.741 141.671C129.961 141.581 130.159 141.436 130.317 141.247C130.474 141.057 130.588 140.829 130.647 140.582C131.598 141.094 132.597 141.493 133.627 141.773C134.62 141.773 135.195 140.582 135.195 140.582C135.195 140.582 132.424 135.875 133.627 134.231C134.262 133.318 135.086 132.58 136.031 132.076L139.743 134.231C139.743 134.231 137.025 129.58 136.45 128.219C135.966 127.46 135.661 126.584 135.561 125.667C135.299 123.116 146.905 105.819 148.212 104.118C150.774 100.614 152.966 96.8095 154.747 92.776C153.433 91.7096 152.053 90.7431 150.617 89.8838C148.597 88.5939 146.355 87.7643 144.03 87.4453Z" fill="#FFC5B3"/>
<path d="M85.9498 345.584L85.8975 281.843L132.842 252.467V316.038L85.9498 345.584Z" fill="#DBA763"/>
<path d="M85.9483 345.584L85.896 281.843L39.0034 252.467V316.038L85.9483 345.584Z" fill="#E8B679"/>
<path d="M45.0697 311.845V262.904L43.7104 262.054V312.922L81.1932 336.456V334.528L45.0697 311.845Z" fill="#CC8C46"/>
<path d="M81.1919 334.525V285.585L45.0684 262.901V311.841L81.1919 334.525Z" fill="#DBA763"/>
<path d="M67.5493 322.166L77.6388 328.517V312.071L67.5493 305.776V322.166Z" fill="white"/>
<path d="M126.725 311.845V262.904L128.137 262.054V312.922L90.6016 336.456V334.528L126.725 311.845Z" fill="#BF7E3D"/>
<path d="M90.6016 334.525L90.6539 285.585L126.725 262.901V311.841L90.6016 334.525Z" fill="#CC8C46"/>
<path d="M39.0034 252.465L85.896 281.84L132.841 252.465L85.9483 223.033L39.0034 252.465Z" fill="#FFE1C0"/>
<path d="M123.119 253.036L124.635 252.072L85.9502 227.801L47.2129 252.072L48.7811 253.036L85.9502 229.729L123.119 253.036Z" fill="#DBA763"/>
<path d="M123.118 253.036L85.9494 229.728L48.7803 253.036L85.9494 276.343L123.118 253.036Z" fill="#E8B679"/>
<path d="M117.003 274.129V290.575L124.74 285.698V269.309L117.003 274.129Z" fill="#4D4D4D"/>
<path d="M105.501 281.219V297.664L113.238 292.787V276.342L105.501 281.219Z" fill="#4D4D4D"/>
<path d="M85.9498 278.613L85.8975 214.928L132.842 185.496V249.124L85.9498 278.613Z" fill="#DBA763"/>
<path d="M85.9483 278.613L85.896 214.928L39.0034 185.496V249.124L85.9483 278.613Z" fill="#E8B679"/>
<path d="M45.0697 244.867V195.984L43.7104 195.077V245.945L81.1932 269.536V267.551L45.0697 244.867Z" fill="#CC8C46"/>
<path d="M81.1919 267.552V218.612L45.0684 195.985V244.868L81.1919 267.552Z" fill="#DBA763"/>
<path d="M67.5493 255.188L77.6388 261.54V245.094L67.5493 238.799V255.188Z" fill="white"/>
<path d="M126.725 244.867V195.984L128.137 195.077V245.945L90.6016 269.536V267.551L126.725 244.867Z" fill="#BF7E3D"/>
<path d="M90.6016 267.552L90.6539 218.612L126.725 195.985V244.868L90.6016 267.552Z" fill="#CC8C46"/>
<path d="M39.0034 185.494L85.896 214.926L132.841 185.494L85.9483 156.062L39.0034 185.494Z" fill="#FFE1C0"/>
<path d="M123.119 186.06L124.635 185.096L85.9502 160.824L47.2129 185.096L48.7811 186.06L85.9502 162.752L123.119 186.06Z" fill="#DBA763"/>
<path d="M123.118 186.059L85.9494 162.751L48.7803 186.059L85.9494 209.367L123.118 186.059Z" fill="#E8B679"/>
<path d="M117.003 207.157V223.603L124.74 218.726V202.337L117.003 207.157Z" fill="#4D4D4D"/>
<path d="M105.501 214.248V230.693L113.238 225.816V209.371L105.501 214.248Z" fill="#4D4D4D"/>
<path d="M85.9498 211.237L85.8975 147.553L132.842 118.121V181.748L85.9498 211.237Z" fill="#DBA763"/>
<path d="M85.9483 211.237L85.896 147.553L39.0034 118.121V181.748L85.9483 211.237Z" fill="#E8B679"/>
<path d="M45.0697 177.553V128.613L43.7104 127.762V178.63L81.1932 202.165V200.237L45.0697 177.553Z" fill="#CC8C46"/>
<path d="M81.1919 200.239V151.299L45.0684 128.615V177.555L81.1919 200.239Z" fill="#DBA763"/>
<path d="M67.5493 187.875L77.6388 194.227V177.781L67.5493 171.43V187.875Z" fill="white"/>
<path d="M126.725 177.553V128.613L128.137 127.762V178.63L90.6016 202.165V200.237L126.725 177.553Z" fill="#BF7E3D"/>
<path d="M90.6016 200.239L90.6539 151.299L126.725 128.615V177.555L90.6016 200.239Z" fill="#CC8C46"/>
<path d="M39.0034 118.122L85.896 147.554L132.841 118.122L85.9483 88.7466L39.0034 118.122Z" fill="#FFE1C0"/>
<path d="M123.119 118.745L124.635 117.781L85.9502 93.5093L47.2129 117.781L48.7811 118.745L85.9502 95.4375L123.119 118.745Z" fill="#DBA763"/>
<path d="M123.118 118.744L85.9494 95.4365L48.7803 118.744L85.9494 142.052L123.118 118.744Z" fill="#E8B679"/>
<path d="M117.003 139.844V156.29L124.74 151.413V134.967L117.003 139.844Z" fill="#4D4D4D"/>
<path d="M105.501 146.876V163.322L113.238 158.501V142.056L105.501 146.876Z" fill="#4D4D4D"/>
</svg>
