<svg width="578" height="516" viewBox="0 0 578 516" fill="none" xmlns="http://www.w3.org/2000/svg">
<path d="M247.19 258.31L578 67.1347L461.937 0L131.127 191.176L247.19 258.31Z" fill="#EDEDED"/>
<path d="M148.506 194.566L467.466 10.4546L460.921 7.06396L141.96 191.176L148.506 194.566Z" fill="#CCCCCC"/>
<path d="M247.811 251.7L566.772 67.5889L560.227 64.1982L241.266 248.31L247.811 251.7Z" fill="#CCCCCC"/>
<path d="M296.224 369.24L320.542 383.311V408.289L296.224 394.217V369.24Z" fill="#303030"/>
<path d="M549.167 246.333C549.167 262.664 539.237 281.596 527.05 288.659C514.862 295.723 504.932 288.264 504.932 271.706C504.932 255.149 514.806 236.444 527.05 229.38C539.293 222.316 549.167 230.058 549.167 246.333Z" fill="#303030"/>
<path d="M529.306 299.171L513.282 290.13L541.889 228.703L557.18 237.236L529.306 299.171Z" fill="#303030"/>
<path d="M565.756 255.599C565.756 271.93 555.882 290.861 543.638 297.925C531.394 304.989 521.52 297.529 521.52 280.972C521.52 264.414 531.451 245.709 543.638 238.645C555.825 231.582 565.756 239.323 565.756 255.599Z" fill="#494949"/>
<path d="M557.969 260.629C557.895 266.011 556.559 271.3 554.07 276.071C551.581 280.841 548.007 284.959 543.637 288.093C535.738 292.67 529.306 287.81 529.306 277.243C529.388 271.862 530.728 266.576 533.216 261.807C535.705 257.038 539.274 252.919 543.637 249.779C551.593 245.201 557.969 250.061 557.969 260.629Z" fill="#969696"/>
<path d="M553.964 263.003C553.901 266.862 552.934 270.652 551.14 274.068C549.347 277.484 546.777 280.43 543.639 282.669C537.996 285.946 533.37 282.669 533.37 274.87C533.435 271.018 534.397 267.234 536.18 263.82C537.963 260.406 540.517 257.456 543.639 255.205C549.337 251.927 553.964 255.374 553.964 263.003Z" fill="white"/>
<path d="M548.603 265.995C548.577 267.865 548.115 269.702 547.252 271.361C546.39 273.019 545.152 274.452 543.638 275.546C540.93 277.128 538.673 275.546 538.673 271.759C538.712 269.892 539.18 268.06 540.042 266.403C540.903 264.747 542.133 263.312 543.638 262.209C546.403 260.683 548.603 262.379 548.603 265.995Z" fill="#383838"/>
<path d="M544.597 258.084C544.599 258.449 544.514 258.809 544.346 259.134C544.179 259.459 543.936 259.738 543.638 259.948C543.13 260.231 542.679 259.948 542.679 259.214C542.681 258.857 542.769 258.506 542.936 258.191C543.103 257.876 543.344 257.607 543.638 257.405C544.202 257.066 544.597 257.405 544.597 258.084Z" fill="#383838"/>
<path d="M551.142 258.084C551.142 258.443 551.061 258.797 550.905 259.12C550.749 259.443 550.521 259.726 550.24 259.948C549.675 260.231 549.28 259.948 549.28 259.214C549.272 258.855 549.356 258.501 549.524 258.184C549.692 257.867 549.938 257.599 550.24 257.405C550.635 257.066 551.142 257.405 551.142 258.084Z" fill="#383838"/>
<path d="M538.674 265.261C538.677 265.619 538.591 265.972 538.423 266.288C538.256 266.603 538.012 266.872 537.715 267.07C537.207 267.352 536.755 267.07 536.755 266.335C536.766 265.98 536.858 265.633 537.025 265.319C537.191 265.005 537.427 264.734 537.715 264.527C538.279 264.244 538.674 264.527 538.674 265.261Z" fill="#383838"/>
<path d="M551.142 271.646C551.142 271.996 551.06 272.343 550.903 272.656C550.747 272.97 550.519 273.243 550.239 273.454C549.675 273.736 549.28 273.454 549.28 272.719C549.277 272.362 549.363 272.009 549.53 271.693C549.698 271.377 549.941 271.108 550.239 270.911C550.634 270.459 551.142 270.798 551.142 271.646Z" fill="#383838"/>
<path d="M538.674 278.658C538.682 279.017 538.598 279.372 538.43 279.688C538.262 280.005 538.016 280.273 537.715 280.467C537.207 280.806 536.755 280.467 536.755 279.789C536.766 279.426 536.858 279.07 537.024 278.747C537.19 278.424 537.426 278.143 537.715 277.924C538.279 277.641 538.674 277.98 538.674 278.658Z" fill="#383838"/>
<path d="M552.609 264.301C552.598 264.656 552.506 265.003 552.339 265.317C552.173 265.63 551.937 265.901 551.65 266.109C551.085 266.392 550.691 266.109 550.691 265.375C550.687 265.017 550.774 264.664 550.941 264.349C551.109 264.033 551.352 263.764 551.65 263.566C552.157 263.284 552.609 263.566 552.609 264.301Z" fill="#383838"/>
<path d="M536.755 273.398C536.758 273.763 536.672 274.123 536.505 274.448C536.338 274.773 536.095 275.052 535.796 275.262C535.288 275.545 534.893 275.262 534.893 274.528C534.889 274.176 534.968 273.828 535.125 273.514C535.283 273.199 535.512 272.927 535.796 272.719C536.36 272.38 536.755 272.719 536.755 273.398Z" fill="#383838"/>
<path d="M544.597 278.658C544.605 279.017 544.522 279.372 544.354 279.688C544.186 280.005 543.939 280.273 543.638 280.467C543.13 280.806 542.679 280.467 542.679 279.789C542.689 279.426 542.781 279.07 542.947 278.747C543.113 278.424 543.349 278.143 543.638 277.924C544.202 277.641 544.597 277.98 544.597 278.658Z" fill="#383838"/>
<path d="M497.26 276.793C497.26 293.124 487.329 312.055 475.142 319.119C462.954 326.183 453.024 318.667 453.024 302.166C453.024 285.665 462.898 266.903 475.142 259.84C487.386 252.776 497.26 260.348 497.26 276.793Z" fill="#303030"/>
<path d="M477.396 329.63L461.372 320.588L489.979 259.104L505.269 267.694L477.396 329.63Z" fill="#303030"/>
<path d="M513.845 286.056C513.845 302.388 503.971 321.319 491.727 328.383C479.483 335.446 469.609 327.931 469.609 311.429C469.609 294.928 479.54 276.167 491.727 269.103C503.915 262.039 513.845 269.781 513.845 286.056Z" fill="#494949"/>
<path d="M506.003 291.086C505.929 296.461 504.593 301.742 502.104 306.503C499.614 311.265 496.04 315.373 491.671 318.494C483.772 323.128 477.34 318.494 477.34 307.644C477.427 302.272 478.769 296.996 481.257 292.236C483.746 287.477 487.312 283.367 491.671 280.236C499.684 275.659 506.003 280.519 506.003 291.086Z" fill="#969696"/>
<path d="M502.053 293.407C501.999 297.275 501.036 301.076 499.242 304.503C497.449 307.929 494.874 310.884 491.728 313.129C486.086 316.406 481.459 313.129 481.459 305.33C481.524 301.478 482.487 297.694 484.27 294.28C486.052 290.866 488.606 287.916 491.728 285.665C497.427 282.33 502.053 285.834 502.053 293.407Z" fill="white"/>
<path d="M496.693 296.512C496.671 298.375 496.21 300.205 495.347 301.855C494.484 303.505 493.244 304.928 491.728 306.006C489.019 307.588 486.762 306.006 486.762 302.276C486.797 300.408 487.264 298.574 488.125 296.917C488.986 295.26 490.22 293.826 491.728 292.726C494.718 291.144 496.693 292.839 496.693 296.512Z" fill="#383838"/>
<path d="M492.686 288.601C492.695 288.96 492.611 289.315 492.443 289.631C492.275 289.948 492.029 290.216 491.727 290.41C491.219 290.749 490.768 290.41 490.768 289.732C490.779 289.369 490.87 289.013 491.036 288.69C491.202 288.368 491.438 288.086 491.727 287.867C492.292 287.528 492.686 287.867 492.686 288.601Z" fill="#383838"/>
<path d="M499.121 288.601C499.126 288.953 499.046 289.301 498.889 289.616C498.732 289.93 498.502 290.202 498.218 290.41C497.654 290.749 497.259 290.41 497.259 289.732C497.257 289.366 497.343 289.006 497.51 288.681C497.677 288.356 497.92 288.077 498.218 287.867C498.726 287.528 499.121 287.867 499.121 288.601Z" fill="#383838"/>
<path d="M486.763 295.721C486.757 296.076 486.666 296.426 486.5 296.74C486.333 297.054 486.095 297.324 485.804 297.529C485.296 297.811 484.845 297.529 484.845 296.794C484.856 296.439 484.948 296.092 485.114 295.778C485.28 295.465 485.516 295.194 485.804 294.986C486.368 294.647 486.763 294.986 486.763 295.721Z" fill="#383838"/>
<path d="M499.122 301.94C499.122 302.299 499.041 302.654 498.884 302.977C498.728 303.3 498.501 303.583 498.219 303.805C497.655 304.088 497.26 303.805 497.26 303.07C497.251 302.712 497.335 302.357 497.503 302.041C497.671 301.724 497.918 301.456 498.219 301.262C498.727 300.923 499.122 301.262 499.122 301.94Z" fill="#383838"/>
<path d="M486.763 309.112C486.766 309.47 486.68 309.823 486.513 310.138C486.345 310.454 486.101 310.723 485.804 310.921C485.296 311.26 484.845 310.921 484.845 310.186C484.856 309.831 484.948 309.484 485.114 309.17C485.28 308.857 485.516 308.585 485.804 308.378C486.368 308.095 486.763 308.378 486.763 309.112Z" fill="#383838"/>
<path d="M500.698 294.703C500.688 295.066 500.596 295.422 500.43 295.744C500.264 296.067 500.028 296.349 499.739 296.568C499.231 296.568 498.78 296.568 498.78 295.833C498.791 295.478 498.883 295.131 499.049 294.817C499.215 294.504 499.451 294.232 499.739 294.025C500.36 293.686 500.698 294.251 500.698 294.703Z" fill="#383838"/>
<path d="M484.844 303.862C484.848 304.22 484.761 304.572 484.594 304.888C484.426 305.204 484.183 305.473 483.885 305.67C483.377 306.009 482.982 305.67 482.982 304.992C482.982 304.633 483.064 304.279 483.22 303.956C483.376 303.633 483.604 303.349 483.885 303.127C484.449 302.845 484.844 303.184 484.844 303.862Z" fill="#383838"/>
<path d="M492.686 309.112C492.69 309.47 492.603 309.823 492.436 310.138C492.268 310.454 492.025 310.723 491.727 310.921C491.219 311.26 490.768 310.921 490.768 310.186C490.779 309.831 490.871 309.484 491.037 309.17C491.204 308.857 491.44 308.585 491.727 308.378C492.291 308.095 492.686 308.378 492.686 309.112Z" fill="#383838"/>
<path d="M300.34 389.866C300.34 406.197 290.41 425.128 278.222 432.192C266.035 439.256 256.104 431.74 256.104 415.239C256.104 398.738 266.035 379.977 278.222 372.913C290.41 365.849 300.34 373.365 300.34 389.866Z" fill="#303030"/>
<path d="M280.481 442.706L264.513 433.665L293.063 372.181L308.41 380.771L280.481 442.706Z" fill="#303030"/>
<path d="M316.93 399.138C316.93 415.47 307.056 434.401 294.868 441.464C282.681 448.528 272.75 441.012 272.75 424.511C272.75 408.01 282.625 389.249 294.868 382.185C307.112 375.121 316.93 382.863 316.93 399.138Z" fill="#494949"/>
<path d="M309.201 404.168C309.118 409.548 307.779 414.835 305.29 419.604C302.802 424.373 299.233 428.492 294.869 431.632C286.914 436.209 280.481 431.35 280.481 420.782C280.557 415.394 281.899 410.1 284.399 405.328C286.899 400.557 290.486 396.442 294.869 393.318C302.881 388.74 309.201 393.6 309.201 404.168Z" fill="#969696"/>
<path d="M305.136 406.537C305.071 410.389 304.109 414.173 302.326 417.587C300.543 421.001 297.989 423.951 294.867 426.202C289.225 429.48 284.542 426.202 284.542 418.404C284.605 414.545 285.572 410.755 287.366 407.339C289.159 403.923 291.729 400.977 294.867 398.738C300.51 395.461 305.136 398.908 305.136 406.537Z" fill="white"/>
<path d="M299.833 409.589C299.798 411.449 299.331 413.275 298.469 414.923C297.607 416.571 296.374 417.995 294.867 419.083C292.103 420.665 289.846 419.083 289.846 415.353C289.878 413.479 290.35 411.638 291.222 409.979C292.094 408.321 293.343 406.89 294.867 405.803C297.576 404.22 299.833 405.916 299.833 409.589Z" fill="#383838"/>
<path d="M295.771 401.624C295.776 401.976 295.696 402.324 295.539 402.638C295.382 402.953 295.152 403.225 294.868 403.433C294.304 403.772 293.909 403.433 293.909 402.754C293.907 402.389 293.993 402.029 294.16 401.704C294.327 401.379 294.57 401.1 294.868 400.889C295.376 400.607 295.771 400.946 295.771 401.624Z" fill="#383838"/>
<path d="M302.258 401.624C302.256 401.981 302.168 402.332 302.001 402.647C301.834 402.962 301.593 403.231 301.299 403.433C300.791 403.772 300.34 403.433 300.34 402.754C300.35 402.392 300.442 402.036 300.608 401.713C300.774 401.39 301.01 401.109 301.299 400.889C301.807 400.607 302.258 400.946 302.258 401.624Z" fill="#383838"/>
<path d="M289.845 408.797C289.845 409.148 289.764 409.494 289.607 409.808C289.45 410.122 289.223 410.395 288.943 410.606C288.378 410.888 287.983 410.606 287.983 409.871C287.98 409.513 288.067 409.161 288.234 408.845C288.402 408.529 288.645 408.26 288.943 408.063C289.45 407.724 289.845 408.062 289.845 408.797Z" fill="#383838"/>
<path d="M302.258 415.072C302.239 415.425 302.144 415.77 301.978 416.082C301.812 416.394 301.581 416.667 301.299 416.88C300.791 417.163 300.34 416.88 300.34 416.145C300.351 415.791 300.443 415.443 300.609 415.129C300.775 414.816 301.012 414.545 301.299 414.337C301.807 413.998 302.258 414.337 302.258 415.072Z" fill="#383838"/>
<path d="M289.848 422.192C289.848 422.543 289.766 422.889 289.609 423.203C289.453 423.517 289.225 423.79 288.945 424C288.381 424.339 287.986 424 287.986 423.266C287.992 422.91 288.083 422.561 288.249 422.247C288.416 421.932 288.654 421.662 288.945 421.457C289.453 421.175 289.848 421.514 289.848 422.192Z" fill="#383838"/>
<path d="M303.784 407.838C303.773 408.193 303.681 408.541 303.515 408.854C303.348 409.168 303.112 409.439 302.825 409.647C302.317 409.929 301.866 409.647 301.866 408.912C301.908 408.582 302.02 408.264 302.195 407.982C302.37 407.699 302.604 407.457 302.881 407.273C303.333 406.765 303.784 407.273 303.784 407.838Z" fill="#383838"/>
<path d="M287.984 416.938C287.983 417.295 287.894 417.646 287.727 417.961C287.56 418.275 287.319 418.545 287.025 418.746C286.461 419.085 286.066 418.746 286.066 418.068C286.063 417.703 286.149 417.343 286.317 417.018C286.484 416.693 286.727 416.413 287.025 416.203C287.533 415.921 287.984 416.26 287.984 416.938Z" fill="#383838"/>
<path d="M295.771 422.192C295.771 422.543 295.69 422.889 295.533 423.203C295.376 423.517 295.149 423.79 294.868 424C294.304 424.339 293.909 424 293.909 423.266C293.916 422.91 294.006 422.561 294.173 422.247C294.339 421.932 294.578 421.662 294.868 421.457C295.376 421.175 295.771 421.514 295.771 422.192Z" fill="#383838"/>
<path d="M214.239 450.502L197.312 440.273L186.027 431.118C186.027 431.118 195.112 427.728 195.958 427.219C196.804 426.711 218.64 434.509 214.239 450.502Z" fill="#262626"/>
<path d="M121.028 259.386V371.107L133.554 362.97L36.8447 307.194L121.028 259.386Z" fill="#EF4F77"/>
<path d="M100.884 381.843L7.44678 435.868V377.944L19.3521 337.596L100.884 381.843Z" fill="#EF4F77"/>
<path d="M23.4155 323.978C25.4505 316.99 30.0992 311.059 36.3928 307.42H36.8442L133.61 362.97L163.458 379.923L159.791 413.83L100.885 381.844L19.353 337.597L23.4155 323.978Z" fill="#EDEDED"/>
<path d="M27.7028 315.273L146.756 382.577L123.509 445.078L7.44678 378C7.44678 378 19.3521 335.899 24.3738 320.585C25.3575 318.738 26.47 316.963 27.7028 315.273Z" fill="#DDDDDD"/>
<path d="M167.238 421.738L221.404 390.431L265.64 416.03L211.474 447.337L167.238 421.738Z" fill="#6B6B6B"/>
<path d="M265.64 416.032L210.74 447.791V469.378L265.64 437.675V416.032Z" fill="#5B5B5B"/>
<path d="M261.576 434.227L218.3 459.091V461.578L261.576 436.657V434.227Z" fill="#8C8C8C"/>
<path d="M261.576 428.863L218.3 453.784V456.214L261.576 431.349V428.863Z" fill="#8C8C8C"/>
<path d="M276.25 361.107L420.355 275.776L464.59 301.376L320.485 386.707L276.25 361.107Z" fill="#6B6B6B"/>
<path d="M464.589 301.372L320.484 386.702V408.29L464.589 323.015V301.372Z" fill="#5B5B5B"/>
<path d="M460.526 319.572L325.336 398.913V401.399L460.526 322.058V319.572Z" fill="#8C8C8C"/>
<path d="M460.526 314.202L325.336 393.599V396.03L460.526 316.689V314.202Z" fill="#8C8C8C"/>
<path d="M131.127 191.176V348.501L247.19 415.579V258.31L131.127 191.176Z" fill="#7C76AC"/>
<path d="M131.127 191.176V240.848L247.19 307.927V258.31L131.127 191.176Z" fill="#CCCCCC"/>
<path d="M131.127 336.409V356.244L247.19 423.323V403.544L131.127 336.409Z" fill="#CCCCCC"/>
<path d="M577.999 67.1338V224.459L247.189 415.578V258.309L577.999 67.1338Z" fill="#5D588D"/>
<path d="M577.999 66.7974V116.809L247.189 307.928V257.973L577.999 66.7974Z" fill="#A5A5A5"/>
<path d="M436.041 178.577L346.384 230.397L332.899 248.085L436.041 188.466V178.577Z" fill="white"/>
<path d="M436.04 161.116L368.05 201.126L354.564 218.814L436.04 171.006V161.116Z" fill="white"/>
<path d="M577.999 212.367V232.202L247.189 423.321V403.543L577.999 212.367Z" fill="#A5A5A5"/>
<path d="M196.353 448.75C196.353 465.082 186.423 484.013 174.235 491.077C162.048 498.141 152.117 490.681 152.117 474.124C152.117 457.566 161.991 438.861 174.235 431.797C186.479 424.733 196.353 432.475 196.353 448.75Z" fill="#303030"/>
<path d="M176.492 501.588L160.467 492.603L189.074 431.12L204.365 439.653L176.492 501.588Z" fill="#303030"/>
<path d="M212.939 458.135C212.939 474.41 203.065 493.341 190.822 500.405C178.578 507.469 168.704 500.009 168.704 483.452C168.704 466.894 178.634 448.189 190.822 441.125C203.009 434.061 212.939 441.747 212.939 458.135Z" fill="#494949"/>
<path d="M205.155 463.052C205.081 468.434 203.746 473.723 201.257 478.494C198.767 483.264 195.194 487.382 190.824 490.516C182.924 495.093 176.492 490.233 176.492 479.666C176.575 474.285 177.914 468.999 180.403 464.23C182.891 459.461 186.46 455.341 190.824 452.202C198.779 447.624 205.155 452.484 205.155 463.052Z" fill="#969696"/>
<path d="M199.012 474.88C202.429 466.839 201.525 458.755 196.995 456.825C192.464 454.894 186.022 459.847 182.606 467.889C179.19 475.93 180.093 484.013 184.623 485.944C189.154 487.875 195.596 482.921 199.012 474.88Z" fill="white"/>
<path d="M195.677 468.477C195.651 470.346 195.188 472.184 194.326 473.842C193.464 475.5 192.226 476.934 190.712 478.027C188.003 479.609 185.747 478.027 185.747 474.241C185.781 472.381 186.248 470.555 187.11 468.907C187.972 467.259 189.205 465.835 190.712 464.747C193.589 463.108 195.677 464.803 195.677 468.477Z" fill="#383838"/>
<path d="M191.781 460.507C191.783 460.872 191.697 461.232 191.53 461.557C191.363 461.882 191.12 462.161 190.821 462.371C190.314 462.654 189.862 462.371 189.862 461.637C189.864 461.28 189.952 460.929 190.119 460.614C190.287 460.299 190.527 460.029 190.821 459.828C191.386 459.489 191.781 459.828 191.781 460.507Z" fill="#383838"/>
<path d="M198.216 460.507C198.216 460.866 198.135 461.22 197.979 461.543C197.822 461.866 197.595 462.149 197.313 462.371C196.749 462.654 196.354 462.371 196.354 461.637C196.346 461.278 196.43 460.924 196.598 460.607C196.766 460.29 197.012 460.022 197.313 459.828C197.821 459.489 198.216 459.828 198.216 460.507Z" fill="#383838"/>
<path d="M185.857 467.684C185.86 468.042 185.774 468.395 185.607 468.71C185.439 469.026 185.196 469.295 184.898 469.493C184.39 469.832 183.939 469.493 183.939 468.758C183.95 468.403 184.042 468.055 184.208 467.742C184.375 467.428 184.611 467.157 184.898 466.95C185.462 466.667 185.857 466.95 185.857 467.684Z" fill="#383838"/>
<path d="M198.216 473.959C198.216 474.309 198.134 474.656 197.977 474.969C197.821 475.283 197.593 475.556 197.313 475.767C196.749 476.049 196.354 475.767 196.354 475.032C196.351 474.675 196.437 474.322 196.604 474.006C196.772 473.691 197.015 473.422 197.313 473.224C197.821 472.941 198.216 473.224 198.216 473.959Z" fill="#383838"/>
<path d="M185.857 481.076C185.866 481.434 185.782 481.789 185.614 482.106C185.446 482.422 185.199 482.69 184.898 482.884C184.39 483.223 183.939 482.884 183.939 482.206C183.95 481.843 184.041 481.487 184.207 481.165C184.373 480.842 184.609 480.56 184.898 480.341C185.462 480.059 185.857 480.398 185.857 481.076Z" fill="#383838"/>
<path d="M199.792 466.724C199.782 467.079 199.689 467.426 199.523 467.74C199.357 468.053 199.121 468.324 198.833 468.532C198.325 468.815 197.874 468.532 197.874 467.797C197.885 467.442 197.977 467.095 198.143 466.781C198.31 466.468 198.546 466.197 198.833 465.989C199.341 465.707 199.792 465.989 199.792 466.724Z" fill="#383838"/>
<path d="M183.939 475.82C183.941 476.185 183.855 476.545 183.688 476.87C183.521 477.195 183.278 477.474 182.98 477.684C182.472 477.967 182.077 477.684 182.077 476.95C182.072 476.598 182.152 476.25 182.309 475.936C182.466 475.621 182.696 475.349 182.98 475.142C183.544 475.085 183.939 475.085 183.939 475.82Z" fill="#383838"/>
<path d="M191.781 481.076C191.789 481.434 191.705 481.789 191.537 482.106C191.369 482.422 191.123 482.69 190.821 482.884C190.314 483.223 189.862 482.884 189.862 482.206C189.873 481.843 189.965 481.487 190.131 481.165C190.297 480.842 190.533 480.56 190.821 480.341C191.386 480.059 191.781 480.398 191.781 481.076Z" fill="#383838"/>
<path d="M236.074 326.183L152.398 374.556C146.116 378.182 141.469 384.091 139.421 391.057L123.51 445.081V503.005L158.323 482.887C161.144 463.108 173.219 442.482 187.663 434.118C202.107 425.755 214.126 432.48 217.003 448.924L236.074 437.905V326.183Z" fill="#A5A5A5"/>
<path d="M176.715 442.933V360.541L179.142 359.185V442.933H176.715Z" fill="#878787"/>
<path d="M187.663 437.114C174.573 444.686 163.627 463.335 161.031 481.305L158.323 482.888C161.144 463.109 173.218 442.482 187.663 434.119C202.107 425.755 214.125 432.48 217.003 448.925L214.238 450.507C211.643 435.531 200.753 429.541 187.663 437.114Z" fill="#BBBBBB"/>
<path d="M7.44678 378.003L123.509 445.081V503.004L7.44678 435.926V378.003Z" fill="#CCCCCC"/>
<path d="M567.788 234.747L575.349 230.395V220.336L567.788 224.688V234.747Z" fill="white"/>
<path d="M565.755 223.504L567.786 224.691V234.749L565.755 233.563V223.504Z" fill="#BBBBBB"/>
<path d="M565.755 223.501L573.316 219.15L575.347 220.337L567.786 224.688L565.755 223.501Z" fill="#CECECE"/>
<path d="M320.595 378.282L328.155 373.93V363.815L320.595 368.223V378.282Z" fill="white"/>
<path d="M318.567 367.038L320.598 368.224V378.283L318.567 377.097V367.038Z" fill="#BBBBBB"/>
<path d="M318.567 367.04L326.128 362.689L328.159 363.876L320.598 368.227L318.567 367.04Z" fill="#CECECE"/>
<path d="M7.44678 378.003L123.509 445.081V449.658L7.44678 382.58V378.003Z" fill="white"/>
<path d="M236.074 379.979L123.51 445.079V449.656L236.074 384.556V379.979Z" fill="#CCCCCC"/>
<path d="M104.326 454.288V457.566L26.4058 412.923V409.25L104.101 454.119L104.326 454.288Z" fill="#383838"/>
<path d="M104.327 470.563C104.327 470.902 104.327 471.185 104.327 471.524L26.7446 426.655C26.7446 426.315 26.7446 425.976 26.7446 425.637V422.925L104.44 468.133L104.327 470.563Z" fill="#383838"/>
<path d="M32.0472 405.069L98.4574 443.496C100.74 445.074 102.444 447.356 103.31 449.995L27.1948 405.973C27.4323 405.57 27.7534 405.222 28.1365 404.953C28.5196 404.684 28.9557 404.501 29.4156 404.415C29.8754 404.33 30.3482 404.343 30.8022 404.456C31.2562 404.569 31.6807 404.778 32.0472 405.069Z" fill="#383838"/>
<path d="M104.327 464.461L26.6318 419.536V416.032L104.327 460.958V464.461Z" fill="#383838"/>
<path d="M98.6834 475.087L32.0476 436.434C29.9922 435.067 28.4142 433.092 27.5337 430.783L102.972 474.466C102.449 475.065 101.729 475.457 100.942 475.571C100.156 475.685 99.3547 475.514 98.6834 475.087Z" fill="#383838"/>
<path d="M103.536 449.993C103.987 451.228 104.254 452.523 104.326 453.836L26.4058 408.967C26.4242 407.919 26.6952 406.892 27.1957 405.972L103.536 449.993Z" fill="#969696"/>
<path d="M104.327 460.96L26.6318 416.034V412.644L104.327 457.569V460.96Z" fill="#969696"/>
<path d="M104.327 467.853L26.6318 422.927V419.536L104.327 464.462V467.853Z" fill="#969696"/>
<path d="M103.198 474.35L27.76 430.668C27.2133 429.388 26.8523 428.037 26.688 426.655L104.27 471.525C104.175 472.546 103.805 473.523 103.198 474.35Z" fill="#969696"/>
<path d="M7.22217 390.321L17.2655 396.65C18.9817 397.922 20.383 399.573 21.3613 401.473C22.3396 403.374 22.8687 405.475 22.9078 407.613V424.227C22.9078 428.352 20.3688 430.274 17.2655 428.465L7.22217 422.136V390.321Z" fill="#FFBA76"/>
<path d="M113.523 452.084L123.51 457.735V489.099L113.523 483.448C111.81 482.211 110.409 480.591 109.429 478.718C108.45 476.844 107.92 474.768 107.88 472.654V456.379C107.88 452.48 110.419 450.332 113.523 452.084Z" fill="#FFBA76"/>
<path d="M110.363 459.035C110.393 461.036 110.889 463.001 111.809 464.777C112.73 466.552 114.05 468.088 115.667 469.264C118.657 470.959 121.309 469.264 121.309 465.195C121.249 463.171 120.706 461.191 119.724 459.421C118.742 457.651 117.351 456.143 115.667 455.023C112.733 453.328 110.363 455.136 110.363 459.035Z" fill="white"/>
<path d="M112.733 475.37C112.757 476.927 113.142 478.457 113.857 479.84C114.571 481.222 115.597 482.42 116.852 483.338C119.166 484.638 121.028 483.338 121.028 480.174C121.006 478.618 120.616 477.09 119.891 475.715C119.165 474.339 118.123 473.156 116.852 472.262C114.595 470.962 112.733 472.319 112.733 475.37Z" fill="white"/>
<path d="M9.47852 400.322C9.50457 402.315 9.99818 404.275 10.9195 406.041C11.8408 407.808 13.164 409.334 14.7823 410.494C17.7163 412.246 20.1425 410.494 20.1425 406.482C20.11 404.484 19.6077 402.521 18.6764 400.754C17.7451 398.987 16.411 397.464 14.7823 396.31C11.7919 394.558 9.47852 396.366 9.47852 400.322Z" fill="white"/>
<path d="M11.7915 416.654C11.8111 418.212 12.1937 419.743 12.9088 421.127C13.6239 422.51 14.6517 423.707 15.9104 424.622C18.2237 425.922 20.0857 424.622 20.0857 421.458C20.0642 419.902 19.6746 418.374 18.9487 416.999C18.2229 415.623 17.1816 414.44 15.9104 413.546C13.597 412.19 11.7915 413.603 11.7915 416.654Z" fill="white"/>
<path d="M30.0174 326.408L17.0964 367.265L15.5166 366.361L27.3655 327.595C27.6501 326.656 28.2354 325.838 29.0309 325.266C29.8263 324.694 30.7877 324.4 31.7665 324.43C31.3519 324.617 30.9816 324.89 30.6801 325.231C30.3786 325.572 30.1527 325.973 30.0174 326.408Z" fill="#8A9AD0"/>
<path d="M112.677 433.775L20.4248 380.598C18.2302 379.353 16.5154 377.408 15.554 375.072C14.5927 372.737 14.4402 370.146 15.121 367.714V366.64L122.325 428.802V429.876C122.068 430.854 121.587 431.76 120.919 432.519C120.251 433.278 119.415 433.871 118.478 434.25C117.541 434.628 116.528 434.783 115.521 434.7C114.514 434.618 113.54 434.301 112.677 433.775Z" fill="#383838"/>
<path d="M61.7828 349.802C70.2463 354.945 109.968 377.323 133.779 390.716L122.494 428.126L27.5903 373.367L31.7656 360.257C37.6901 342.343 49.4826 342.399 61.7828 349.802Z" fill="#8A9AD0"/>
<path d="M30.0171 326.406C30.1525 325.971 30.3784 325.57 30.6799 325.229C30.9814 324.888 31.3516 324.615 31.7662 324.428C32.4728 324.487 33.1619 324.679 33.7975 324.993L128.758 378.565C130.835 379.732 132.46 381.565 133.371 383.769C134.282 385.973 134.426 388.419 133.78 390.715C109.969 377.322 70.2469 354.944 61.7834 349.801C49.4831 342.399 37.5778 342.342 31.7662 360.256L27.5909 373.366L17.0962 367.263L30.0171 326.406Z" fill="#97A9DD"/>
<path d="M145.741 485.936V497.238C145.555 499.149 144.914 500.987 143.874 502.599C142.833 504.211 141.423 505.551 139.761 506.506L138.181 493.339L145.741 485.936Z" fill="#A5A5A5"/>
<path d="M123.905 503.962L123.623 515.999L103.536 504.358L103.705 492.321L123.905 503.962Z" fill="#CCCCCC"/>
<path d="M0 432.478L20.0867 444.062V455.986L0 444.345V432.478Z" fill="#CCCCCC"/>
<path d="M103.705 492.321L103.535 504.358L20.0854 455.985V444.061L103.705 492.321Z" fill="#383838"/>
<path d="M34.1362 454.629L86.9484 485.088L86.7791 492.265L34.1362 461.749V454.629Z" fill="white"/>
<path d="M123.623 504.076V516L138.406 507.41C139.453 506.828 140.356 506.018 141.05 505.04C141.743 504.062 142.208 502.941 142.412 501.759V493.226L123.623 504.076Z" fill="#A5A5A5"/>
<path d="M145.741 485.935L123.623 498.763L7.44787 431.571V428.294L0 432.476L123.623 504.075L138.914 495.259C141.43 494.021 143.514 492.051 144.895 489.608L145.741 485.935Z" fill="#EDEDED"/>
<path d="M91.5747 491.418C91.5899 492.582 91.8787 493.726 92.4179 494.757C92.9571 495.788 93.7314 496.677 94.678 497.352C96.4271 498.369 97.8377 497.352 97.8377 495.035C97.816 493.859 97.5187 492.704 96.9699 491.663C96.4211 490.623 95.6361 489.726 94.678 489.045C92.9853 488.084 91.5747 489.101 91.5747 491.418Z" fill="white"/>
<path d="M23.5284 452.033C23.4953 453.205 23.7385 454.369 24.2385 455.429C24.7385 456.49 25.4811 457.417 26.406 458.136C28.0987 459.097 29.5093 458.136 29.5093 455.763C29.4941 454.599 29.2052 453.455 28.666 452.424C28.1268 451.393 27.3525 450.504 26.406 449.829C24.8825 448.699 23.5284 449.773 23.5284 452.033Z" fill="white"/>
<path d="M152.851 374.326L236.075 326.179L120.013 259.044L36.8447 307.191L152.851 374.326Z" fill="#D1D1D1"/>
<path d="M158.605 353.418L223.943 318.947V304.423C223.943 304.423 202.333 314.934 183.544 323.524C171.654 329.847 162.704 340.575 158.605 353.418Z" fill="#A5A5A5"/>
<path d="M158.605 353.418C162.015 344.462 168.155 336.81 176.153 331.548C191.595 321.669 207.547 312.614 223.944 304.423L132.82 251.699C132.82 251.699 97.5555 270.065 85.4245 278.541C69.3439 289.843 67.4819 300.694 67.4819 300.694L158.605 353.418Z" fill="#EDEDED"/>
<path d="M152.004 383.539L167.013 374.837C167.323 374.589 167.689 374.419 168.078 374.342C168.468 374.265 168.87 374.282 169.251 374.393C169.633 374.503 169.982 374.704 170.27 374.978C170.558 375.252 170.776 375.591 170.906 375.967C170.387 375.994 169.884 376.15 169.439 376.419L154.43 385.121C153.147 386.06 152.098 387.283 151.364 388.695C150.63 390.106 150.231 391.668 150.199 393.259V419.989C150.167 420.707 150.302 421.423 150.594 422.079C148.957 422.079 147.772 420.836 147.772 418.406V391.677C147.805 390.086 148.204 388.524 148.938 387.112C149.672 385.701 150.721 384.478 152.004 383.539Z" fill="#7C76AC"/>
<path d="M150.198 393.259C150.231 391.668 150.63 390.106 151.364 388.695C152.098 387.283 153.147 386.06 154.43 385.121L169.439 376.419C169.883 376.15 170.387 375.994 170.906 375.967C171.168 376.632 171.302 377.342 171.301 378.058V404.787C171.27 406.385 170.867 407.953 170.122 409.366C169.377 410.779 168.312 411.998 167.013 412.925L152.004 421.627C151.58 421.897 151.094 422.052 150.593 422.079C150.302 421.423 150.166 420.707 150.198 419.989V393.259Z" fill="#8A9AD0"/>
<path d="M148.337 479.552L155.898 475.201V465.142L148.337 469.494V479.552Z" fill="white"/>
<path d="M146.305 468.304L148.336 469.491V479.55L146.305 478.363V468.304Z" fill="#BBBBBB"/>
<path d="M146.305 468.307L153.866 463.956L155.897 465.142L148.336 469.494L146.305 468.307Z" fill="#CECECE"/>
<path d="M221.179 436.093L228.74 431.742V421.683L221.179 426.035V436.093Z" fill="white"/>
<path d="M219.148 424.851L221.18 426.037V436.096L219.148 434.91V424.851Z" fill="#BBBBBB"/>
<path d="M219.148 424.848L226.709 420.497L228.74 421.683L221.18 426.035L219.148 424.848Z" fill="#CECECE"/>
<path d="M440.384 158.625L446.026 155.234C452.346 151.617 456.352 153.482 456.352 162.863C456.603 166.735 455.802 170.603 454.033 174.056C452.265 177.509 449.595 180.417 446.308 182.472L440.271 185.976L440.384 158.625ZM446.026 177.782C448.012 176.479 449.594 174.645 450.591 172.487C451.588 170.329 451.962 167.935 451.668 165.575C451.668 159.077 449.299 158.398 446.026 160.376L445.123 160.885V178.29L446.026 177.782Z" fill="white"/>
<path d="M460.3 147.323L473.165 139.864V145.063L464.927 149.81V155.461L471.924 151.392V156.591L464.927 160.603V166.876L473.447 161.959V167.158L460.3 174.787V147.323Z" fill="white"/>
<path d="M477.453 137.156L482.08 134.5V156.652L490.148 151.961V157.16L477.453 164.563V137.156Z" fill="white"/>
<path d="M493.647 127.774L498.331 125.118V152.469L493.647 155.182V127.774Z" fill="white"/>
<path d="M500.361 123.875L505.27 121.049L507.753 132.351C508.373 135.007 508.768 137.55 509.389 140.206C510.066 136.872 510.461 133.821 511.025 130.543L513.452 116.359L518.191 113.59L512.041 144.558L506.399 147.779L500.361 123.875Z" fill="white"/>
<path d="M520.506 112.291L533.371 104.832V110.03L525.189 114.777V120.428L532.13 116.416V121.559L525.189 125.627V131.9L533.709 126.984V132.183L520.506 139.812V112.291Z" fill="white"/>
<path d="M548.775 123.309L544.825 115.68L542.342 117.149V127.039L537.659 129.695V102.117L545.051 97.8225C549.395 95.336 552.95 95.2796 552.95 101.778C552.978 105.437 551.697 108.986 549.339 111.781L553.966 120.088L548.775 123.309ZM542.342 112.007L544.656 110.651C545.794 110.061 546.748 109.169 547.415 108.072C548.082 106.976 548.435 105.718 548.436 104.434C548.436 101.722 547.082 101.609 544.656 102.965L542.342 104.321V112.007Z" fill="white"/>
<path d="M559.943 107.089L553.792 93.0177L558.701 90.1922L560.563 95.391C561.127 97.1429 561.635 98.7251 562.256 100.477C562.82 98.047 563.441 95.7866 564.005 93.4131L565.811 86.0668L570.663 83.2979L564.456 104.489V114.209L559.83 116.865L559.943 107.089Z" fill="white"/>
</svg>
