<svg width="245" height="264" viewBox="0 0 245 264" fill="none" xmlns="http://www.w3.org/2000/svg">
<path d="M122.474 263.999L245 187.925V80.6772L122.474 152.176V263.999Z" fill="#3F1652"/>
<path d="M122.474 152.176L58.5134 96.2791L0 80.7915V187.954L16.3668 198.099L22.1838 193.751L96.9583 240.214V248.199L122.474 264V152.176Z" fill="#72358E"/>
<path d="M0 76.0738L57.4293 92.9254L179.929 16.88L122.474 0L0 76.0738Z" fill="#707070"/>
<path d="M57.4287 92.9248L179.929 16.8794L244.999 76.13L122.473 152.175L57.4287 92.9248Z" fill="#4D4D4D"/>
<path d="M22.1836 193.751L96.958 240.214V165.987L22.1836 119.581V193.751Z" fill="#D3D3D3"/>
<path d="M209.146 115.375L183.737 131.147V144.617L209.146 128.845V115.375Z" fill="#B7B7B7"/>
<path d="M209.146 130.55L204.572 128.418L183.737 141.377V146.407L209.146 130.55Z" fill="#E2E2E2"/>
<path d="M209.146 130.55L204.572 128.419V118.217L209.146 115.375V130.55Z" fill="#919191"/>
<path d="M239.5 96.5054L214.064 112.306V125.775L239.5 109.975V96.5054Z" fill="#B7B7B7"/>
<path d="M239.5 111.681L234.9 109.55L214.064 122.508V127.538L239.5 111.681Z" fill="#E2E2E2"/>
<path d="M22.7654 119.894L16.3667 115.916V198.099L22.7654 194.121V119.894Z" fill="#3F1652"/>
<path d="M54.7322 131.204C53.544 132.023 52.5297 133.101 51.7552 134.369C50.9807 135.638 50.4635 137.067 50.2373 138.564L50.9248 139.047C52.1172 139.924 53.4699 140.516 54.8926 140.786C56.3152 141.055 57.7749 140.996 59.1743 140.61C59.28 135.666 58.0109 132.909 54.7322 131.204Z" fill="#4D4D4D"/>
<path d="M54.7327 131.205C54.1712 130.865 53.544 130.669 52.9004 130.633C52.2567 130.596 51.614 130.721 51.0225 130.996C50.431 131.271 49.9068 131.69 49.4908 132.219C49.0749 132.748 48.7785 133.374 48.6249 134.046C48.3895 134.885 48.4201 135.784 48.7121 136.602C49.0041 137.42 49.5408 138.11 50.2378 138.565C50.464 137.067 50.9812 135.638 51.7557 134.37C52.5301 133.102 53.5445 132.023 54.7327 131.205Z" fill="#707070"/>
<path d="M0 76.0737V80.9616L57.35 98.9499L122.474 157.007V152.176L57.4293 92.9253L0 76.0737Z" fill="#D3D3D3"/>
<path d="M122.474 152.176V157.007L245 80.9334V76.1309L122.474 152.176Z" fill="#AAAAAA"/>
<path d="M122.474 263.999V256.071L245 180.025V187.925L122.474 263.999Z" fill="#AAAAAA"/>
<path d="M122.474 256.071V263.999L96.9585 248.199V240.214L122.474 256.071Z" fill="#D3D3D3"/>
<path d="M16.3668 198.099V190.142L0 179.997V187.953L16.3668 198.099Z" fill="#D3D3D3"/>
<path d="M22.7654 186.191L16.3667 190.141V198.098L22.7654 194.12V186.191Z" fill="#AAAAAA"/>
<path d="M22.7656 124.128V125.521L96.9584 171.614V170.193L22.7656 124.128Z" fill="#AAAAAA"/>
<path d="M22.7656 129.186V130.578L96.9584 176.643V175.25L22.7656 129.186Z" fill="#AAAAAA"/>
<path d="M22.7656 134.501V135.893L96.9584 181.987V180.566L22.7656 134.501Z" fill="#AAAAAA"/>
<path d="M22.7656 139.559V140.951L96.9584 187.016V185.623L22.7656 139.559Z" fill="#AAAAAA"/>
<path d="M22.7656 144.731V146.123L96.9584 192.217V190.796L22.7656 144.731Z" fill="#AAAAAA"/>
<path d="M22.7656 149.789V151.181L96.9584 197.246V195.853L22.7656 149.789Z" fill="#AAAAAA"/>
<path d="M22.7656 155.103V156.495L96.9584 202.589V201.168L22.7656 155.103Z" fill="#AAAAAA"/>
<path d="M22.7656 160.161V161.553L96.9584 207.618V206.226L22.7656 160.161Z" fill="#AAAAAA"/>
<path d="M22.7656 165.106V166.499L96.9584 212.564V211.171L22.7656 165.106Z" fill="#AAAAAA"/>
<path d="M22.7656 170.164V171.528L96.9584 217.621V216.229L22.7656 170.164Z" fill="#AAAAAA"/>
<path d="M22.7656 175.479V176.871L96.9584 222.936V221.543L22.7656 175.479Z" fill="#AAAAAA"/>
<path d="M22.7656 180.509V181.901L96.9584 227.995V226.602L22.7656 180.509Z" fill="#AAAAAA"/>
<path d="M22.7656 185.567V186.96L96.9584 233.025V231.632L22.7656 185.567Z" fill="#AAAAAA"/>
<path d="M22.7656 190.653V192.017L96.9584 238.11V236.718L22.7656 190.653Z" fill="#AAAAAA"/>
<path d="M129.56 164.823L130.908 163.97L131.278 167.608L131.516 170.08C131.648 169.114 131.754 168.176 131.886 167.238L132.521 162.976L133.631 162.294L134.292 165.76C134.292 166.528 134.53 167.352 134.636 168.176C134.636 167.238 134.795 166.3 134.874 165.334L135.297 161.185L136.54 160.418L135.482 169.341L133.843 170.364L133.288 166.954C133.288 166.357 133.129 165.732 133.076 165.164C133.076 165.817 133.076 166.528 132.838 167.238L132.204 171.444L130.591 172.439L129.56 164.823Z" fill="white"/>
<path d="M140.136 164.652L138.365 165.761L137.994 167.949L136.646 168.773L138.497 159.367L140.083 158.4L141.855 165.562L140.48 166.414L140.136 164.652ZM139.872 163.373L139.74 162.691C139.581 161.953 139.422 161.072 139.264 160.304C139.264 161.271 138.946 162.322 138.788 163.146L138.655 163.999L139.872 163.373Z" fill="white"/>
<path d="M145.556 163.259L144.446 160.957L143.732 161.383V164.367L142.41 165.191V156.893L144.498 155.615C145.741 154.847 146.746 154.847 146.746 156.808C146.751 157.922 146.385 159 145.715 159.849L147.01 162.35L145.556 163.259ZM143.758 159.906L144.419 159.479C144.743 159.307 145.014 159.039 145.202 158.707C145.389 158.375 145.484 157.992 145.477 157.604C145.477 156.78 145.107 156.751 144.419 157.149L143.758 157.575V159.906Z" fill="white"/>
<path d="M147.91 153.541L151.559 151.296V152.859L149.232 154.308V155.956L151.188 154.763V156.326L149.205 157.519V159.452L151.611 157.946V159.537L147.883 161.839L147.91 153.541Z" fill="white"/>
<path d="M152.775 150.557L154.097 149.733V152.915L156.106 151.693V148.511L157.428 147.687V155.984L156.106 156.809V153.342L154.097 154.564V158.031L152.775 158.826V150.557Z" fill="white"/>
<path d="M158.459 151.154C158.386 150.011 158.592 148.867 159.056 147.836C159.519 146.804 160.225 145.92 161.103 145.271C162.663 144.305 163.747 145.271 163.747 147.914C163.816 149.064 163.61 150.215 163.147 151.255C162.684 152.295 161.98 153.189 161.103 153.853C159.517 154.819 158.459 153.853 158.459 151.154ZM162.372 148.71C162.372 147.062 161.896 146.379 161.103 146.863C160.636 147.273 160.273 147.803 160.046 148.404C159.82 149.005 159.738 149.657 159.808 150.301C159.808 151.949 160.31 152.688 161.077 152.234C161.541 151.802 161.901 151.256 162.127 150.642C162.352 150.029 162.437 149.366 162.372 148.71Z" fill="white"/>
<path d="M164.805 143.025L166.101 142.229V146.861C166.101 148.509 166.444 148.85 167.079 148.453C167.714 148.055 168.11 147.259 168.137 145.611V141.092L169.406 140.325V144.758C169.523 145.799 169.37 146.854 168.964 147.807C168.558 148.759 167.915 149.573 167.106 150.158C165.598 151.095 164.805 150.385 164.805 147.6V143.025Z" fill="white"/>
<path d="M170.992 145.3C171.215 145.421 171.461 145.483 171.711 145.479C171.96 145.474 172.205 145.405 172.424 145.276C172.643 145.147 172.829 144.963 172.967 144.739C173.104 144.516 173.189 144.259 173.213 143.993C173.213 143.453 172.896 143.509 172.394 143.509H171.653C171.045 143.509 170.464 143.168 170.49 141.975C170.526 141.217 170.732 140.48 171.091 139.826C171.45 139.173 171.952 138.623 172.552 138.224C172.828 138.031 173.149 137.928 173.478 137.928C173.806 137.928 174.128 138.031 174.403 138.224L173.742 139.815C173.563 139.697 173.357 139.635 173.147 139.635C172.937 139.635 172.731 139.697 172.552 139.815C172.342 139.926 172.162 140.094 172.032 140.304C171.902 140.514 171.826 140.757 171.812 141.009C171.812 141.52 172.182 141.463 172.685 141.435H173.425C174.139 141.435 174.562 141.804 174.562 142.97C174.531 143.768 174.314 144.546 173.93 145.231C173.547 145.917 173.009 146.487 172.367 146.891C172.046 147.105 171.675 147.218 171.296 147.218C170.918 147.218 170.547 147.105 170.226 146.891L170.992 145.3Z" fill="white"/>
<path d="M175.567 136.519L179.189 134.302V135.865L176.863 137.286V138.963L178.846 137.741V139.304L176.863 140.526V142.43L179.269 140.952V142.543L175.541 144.817L175.567 136.519Z" fill="white"/>
<path d="M61.3688 90.4817L3.93945 73.6301L5.63166 72.5786L63.0346 89.4587L61.3688 90.4817Z" fill="#AAAAAA"/>
<path d="M67.2653 86.8157L9.83594 69.964L11.5281 68.9126L68.931 85.7926L67.2653 86.8157Z" fill="#AAAAAA"/>
<path d="M73.1618 83.1501L15.7324 66.2985L17.3982 65.2471L74.8275 82.1271L73.1618 83.1501Z" fill="#AAAAAA"/>
<path d="M79.0314 79.5124L21.6021 62.6608L23.2678 61.6094L80.6972 78.4894L79.0314 79.5124Z" fill="#AAAAAA"/>
<path d="M84.9274 75.8464L27.498 58.9948L29.1638 57.9434L86.5667 74.8234L84.9274 75.8464Z" fill="#AAAAAA"/>
<path d="M90.7975 72.2082L33.3682 55.3282L35.0604 54.3052L92.4633 71.1568L90.7975 72.2082Z" fill="#AAAAAA"/>
<path d="M96.6935 68.5442L39.2642 51.6926L40.9299 50.6411L98.3593 67.5212L96.6935 68.5442Z" fill="#AAAAAA"/>
<path d="M102.59 64.8777L45.1606 48.0261L46.8264 46.9746L104.229 63.8546L102.59 64.8777Z" fill="#AAAAAA"/>
<path d="M108.46 61.24L51.0308 44.3599L52.723 43.3369L110.126 60.217L108.46 61.24Z" fill="#AAAAAA"/>
<path d="M114.356 57.5735L56.9268 40.7219L58.5925 39.6704L116.022 56.5504L114.356 57.5735Z" fill="#AAAAAA"/>
<path d="M120.252 53.9088L62.7964 37.0572L64.4886 36.0342L121.892 52.8858L120.252 53.9088Z" fill="#AAAAAA"/>
<path d="M126.122 50.2712L68.6929 33.4196L70.3851 32.3682L127.788 49.2482L126.122 50.2712Z" fill="#AAAAAA"/>
<path d="M132.018 46.6057L74.5889 29.7541L76.2546 28.7026L133.658 45.5827L132.018 46.6057Z" fill="#AAAAAA"/>
<path d="M137.915 42.968L80.4854 26.088L82.1511 25.0649L139.554 41.945L137.915 42.968Z" fill="#AAAAAA"/>
<path d="M143.785 39.302L86.3555 22.4504L88.0477 21.3989L145.451 38.279L143.785 39.302Z" fill="#AAAAAA"/>
<path d="M149.681 35.6638L92.252 18.7838L93.9177 17.7607L151.321 34.6408L149.681 35.6638Z" fill="#AAAAAA"/>
<path d="M155.551 31.9983L98.1216 15.1467L99.8138 14.0952L157.217 30.9752L155.551 31.9983Z" fill="#AAAAAA"/>
<path d="M161.447 28.3323L104.018 11.4806L105.71 10.4292L163.113 27.3092L161.447 28.3323Z" fill="#AAAAAA"/>
<path d="M167.317 24.6951L109.888 7.84344L111.58 6.79199L168.983 23.672L167.317 24.6951Z" fill="#AAAAAA"/>
<path d="M173.214 21.029L115.784 4.17743L117.45 3.12598L174.879 20.006L173.214 21.029Z" fill="#AAAAAA"/>
<path d="M61.3687 90.4815L126.413 149.704L128.052 148.709L63.0344 89.4585L61.3687 90.4815Z" fill="#707070"/>
<path d="M67.2651 86.8155L132.283 146.066L133.949 145.043L68.9309 85.7925L67.2651 86.8155Z" fill="#707070"/>
<path d="M73.1616 83.1784L138.179 142.401L139.819 141.378L74.801 82.127L73.1616 83.1784Z" fill="#707070"/>
<path d="M79.0317 79.5128L144.076 138.763L145.715 137.74L80.6975 78.4897L79.0317 79.5128Z" fill="#707070"/>
<path d="M84.9277 75.8468L149.946 135.097L151.611 134.074L86.5671 74.8237L84.9277 75.8468Z" fill="#707070"/>
<path d="M90.7974 72.2096L155.842 131.46L157.481 130.437L92.4631 71.1865L90.7974 72.2096Z" fill="#707070"/>
<path d="M96.6938 68.544L161.738 127.795L163.377 126.772L98.3596 67.521L96.6938 68.544Z" fill="#707070"/>
<path d="M102.59 64.9064L167.608 124.129L169.274 123.106L104.23 63.855L102.59 64.9064Z" fill="#707070"/>
<path d="M108.46 61.2393L173.504 120.49L175.144 119.467L110.126 60.2163L108.46 61.2393Z" fill="#707070"/>
<path d="M114.356 57.5738L179.4 116.824L181.04 115.801L116.022 56.5508L114.356 57.5738Z" fill="#707070"/>
<path d="M120.252 53.9371L185.27 113.188L186.936 112.165L121.892 52.9141L120.252 53.9371Z" fill="#707070"/>
<path d="M126.122 50.2706L191.166 109.521L192.806 108.498L127.788 49.2476L126.122 50.2706Z" fill="#707070"/>
<path d="M132.019 46.6334L197.063 105.856L198.703 104.833L133.685 45.6104L132.019 46.6334Z" fill="#707070"/>
<path d="M137.915 42.9679L202.933 102.218L204.599 101.195L139.554 41.9448L137.915 42.9679Z" fill="#707070"/>
<path d="M143.785 39.3307L208.829 98.5529L210.469 97.5299L145.451 38.2793L143.785 39.3307Z" fill="#707070"/>
<path d="M149.681 35.6637L214.725 94.9143L216.365 93.8912L151.347 34.6406L149.681 35.6637Z" fill="#707070"/>
<path d="M155.577 31.9981L220.595 91.2487L222.261 90.2257L157.216 30.9751L155.577 31.9981Z" fill="#707070"/>
<path d="M161.448 28.3609L226.492 87.5831L228.158 86.5885L163.114 27.3379L161.448 28.3609Z" fill="#707070"/>
<path d="M167.344 24.6676L232.388 83.9466L234.054 82.9236L169.01 23.6445L167.344 24.6676Z" fill="#707070"/>
<path d="M173.24 21.0289L238.284 80.3079L239.923 79.2849L174.879 20.0059L173.24 21.0289Z" fill="#707070"/>
</svg>
