<svg width="175" height="208" viewBox="0 0 175 208" fill="none" xmlns="http://www.w3.org/2000/svg">
<path d="M172.191 144.553L90.8298 194.107L93.3667 195.778L175 146.129L172.191 144.553Z" fill="#ED8E2F"/>
<path d="M174.999 146.129L93.3657 195.778V208L174.999 158.35V146.129Z" fill="#C96A1C"/>
<path d="M90.8298 206.471V194.107L93.3667 195.778V207.999L90.8298 206.471Z" fill="#D87923"/>
<path d="M81.3615 89.0322L0 138.586L2.53687 140.257L84.1249 90.6077L81.3615 89.0322Z" fill="#ED8E2F"/>
<path d="M84.1251 90.6084L2.53711 140.258V152.479L84.1251 102.83V90.6084Z" fill="#C96A1C"/>
<path d="M0 150.95V138.585L2.53688 140.256V152.478L0 150.95Z" fill="#D87923"/>
<path d="M125.485 115.434L44.0784 164.988L46.6152 166.659L128.249 117.009L125.485 115.434Z" fill="#ED8E2F"/>
<path d="M128.249 117.009L46.6157 166.659V178.88L128.249 129.231V117.009Z" fill="#C96A1C"/>
<path d="M44.0784 177.352V164.987L46.6153 166.658V178.88L44.0784 177.352Z" fill="#D87923"/>
<path d="M93.3664 192.053L0 135.243V139.157L93.3664 196.016V192.053Z" fill="#D87923"/>
<path d="M103.152 186.277L93.3664 192.054L0 135.243L9.73983 129.467L103.152 186.277Z" fill="#ED8E2F"/>
<path d="M103.151 186.279L93.3657 192.055V199.407L103.151 193.392V186.279Z" fill="#C96A1C"/>
<path d="M111.577 180.74L17.9392 123.644V127.606L111.577 184.703V180.74Z" fill="#D87923"/>
<path d="M121.363 174.963L111.577 180.74L17.9392 123.643L27.679 117.914L121.363 174.963Z" fill="#ED8E2F"/>
<path d="M121.363 174.964L111.577 180.74V188.092L121.363 182.077V174.964Z" fill="#C96A1C"/>
<path d="M130.242 169.571L36.3772 112.427V116.389L130.242 173.534V169.571Z" fill="#D87923"/>
<path d="M140.027 163.843L130.242 169.572L36.3772 112.427L46.117 106.65L140.027 163.843Z" fill="#ED8E2F"/>
<path d="M140.027 163.84L130.242 169.569V176.969L140.027 170.954V163.84Z" fill="#C96A1C"/>
<path d="M148.452 158.306L54.8142 101.447V105.41L148.452 162.268V158.306Z" fill="#D87923"/>
<path d="M158.238 152.528L148.452 158.305L54.8142 101.447L64.554 95.7178L158.238 152.528Z" fill="#ED8E2F"/>
<path d="M158.238 152.525L148.453 158.301V165.653L158.238 159.638V152.525Z" fill="#C96A1C"/>
<path d="M165.215 148.372L71.3047 91.2749V95.2373L165.215 152.334V148.372Z" fill="#D87923"/>
<path d="M175 142.599L165.215 148.376L71.3047 91.2787L81.0445 85.5498L175 142.599Z" fill="#ED8E2F"/>
<path d="M175 142.595L165.215 148.372V155.724L175 149.708V142.595Z" fill="#C96A1C"/>
<path d="M52.5491 159.686V106.074L93.1846 81.2974V134.862L52.5491 159.686Z" fill="#DBA763"/>
<path d="M52.5491 159.686V106.074L11.8684 81.2974V134.862L52.5491 159.686Z" fill="#E8B679"/>
<path d="M17.1694 131.282V90.1306L15.9463 89.4146V132.237L48.4727 152.049V150.426L17.1694 131.282Z" fill="#CC8C46"/>
<path d="M48.473 150.428V109.181L17.1697 90.1328V131.285L48.473 150.428Z" fill="#DBA763"/>
<path d="M36.6494 140.02L45.3473 145.367V131.522L36.6494 126.175V140.02Z" fill="white"/>
<path d="M87.9306 131.282V90.1306L89.1084 89.4146V132.237L56.6272 152.049V150.426L87.9306 131.282Z" fill="#BF7E3D"/>
<path d="M56.6272 150.428V109.181L87.9306 90.1328V131.285L56.6272 150.428Z" fill="#CC8C46"/>
<path d="M11.8684 81.2999L52.5491 106.077L93.1846 81.2999L52.5491 56.5229L11.8684 81.2999Z" fill="#FFE1C0"/>
<path d="M84.759 81.8247L86.1181 80.9654L52.5496 60.5327L18.9812 80.9654L20.3402 81.8247L52.5496 62.2036L84.759 81.8247Z" fill="#DBA763"/>
<path d="M84.7594 81.8233L52.55 62.2021L20.3406 81.8233L52.55 101.444L84.7594 81.8233Z" fill="#E8B679"/>
<path d="M79.459 99.5856V113.43L86.1636 109.325V95.48L79.459 99.5856Z" fill="#4D4D4D"/>
<path d="M69.4929 105.505V119.35L76.1975 115.244V101.447L69.4929 105.505Z" fill="#4D4D4D"/>
<path d="M126.708 167.612V113.952L167.344 89.2231V142.74L126.708 167.612Z" fill="#DBA763"/>
<path d="M126.708 167.612V113.952L86.073 89.2231V142.74L126.708 167.612Z" fill="#E8B679"/>
<path d="M91.3275 139.209V98.0095L90.1497 97.2935V140.116L122.631 159.976V158.305L91.3275 139.209Z" fill="#CC8C46"/>
<path d="M122.631 158.302V117.102L91.3276 98.0063V139.206L122.631 158.302Z" fill="#DBA763"/>
<path d="M110.807 147.897L119.551 153.244V139.4L110.807 134.101V147.897Z" fill="white"/>
<path d="M162.088 139.209V98.0095L163.311 97.2935V140.116L130.785 159.976V158.305L162.088 139.209Z" fill="#BF7E3D"/>
<path d="M130.785 158.302V117.102L162.088 98.0063V139.206L130.785 158.302Z" fill="#CC8C46"/>
<path d="M86.073 89.2258L126.708 113.955L167.344 89.2258L126.708 64.4487L86.073 89.2258Z" fill="#FFE1C0"/>
<path d="M158.918 89.7028L160.277 88.8912L126.754 68.4585L93.1855 88.8912L94.4993 89.7028L126.754 70.0816L158.918 89.7028Z" fill="#DBA763"/>
<path d="M158.917 89.7017L126.753 70.0806L94.4983 89.7017L126.708 109.323L158.917 89.7017Z" fill="#E8B679"/>
<path d="M153.617 107.458V121.303L160.322 117.197V103.4L153.617 107.458Z" fill="#4D4D4D"/>
<path d="M143.696 113.427V127.272L150.401 123.166V109.322L143.696 113.427Z" fill="#4D4D4D"/>
<path d="M82.8115 103.165V49.5051L123.447 24.728V78.2922L82.8115 103.165Z" fill="#DBA763"/>
<path d="M82.8117 103.165V49.5051L42.1763 24.728V78.2922L82.8117 103.165Z" fill="#E8B679"/>
<path d="M47.4305 74.7604V33.5608L46.2527 32.8447V75.6674L78.7339 95.4795V93.8563L47.4305 74.7604Z" fill="#CC8C46"/>
<path d="M78.734 93.8532V52.6536L47.4307 33.5576V74.7572L78.734 93.8532Z" fill="#DBA763"/>
<path d="M66.9104 83.4447L75.6536 88.7915V74.9469L66.9104 69.6001V83.4447Z" fill="white"/>
<path d="M118.192 74.7604V33.5608L119.415 32.8447V75.6674L86.8882 95.4795V93.8563L118.192 74.7604Z" fill="#BF7E3D"/>
<path d="M86.8882 93.8532V52.6536L118.192 33.5576V74.7572L86.8882 93.8532Z" fill="#CC8C46"/>
<path d="M42.1763 24.7293L82.8117 49.5063L123.447 24.7293L82.8117 0L42.1763 24.7293Z" fill="#FFE1C0"/>
<path d="M115.02 25.254L116.379 24.4424L82.856 4.00977L49.2876 24.4424L50.6013 25.254L82.856 5.6329L115.02 25.254Z" fill="#DBA763"/>
<path d="M115.02 25.2529L82.8562 5.63184L50.6016 25.2529L82.8109 44.8741L115.02 25.2529Z" fill="#E8B679"/>
<path d="M109.72 43.0109V56.8554L116.425 52.7498V38.9053L109.72 43.0109Z" fill="#4D4D4D"/>
<path d="M99.7993 48.9787V62.7755L106.504 58.7176V44.873L99.7993 48.9787Z" fill="#4D4D4D"/>
</svg>
