<svg width="144" height="215" viewBox="0 0 144 215" fill="none" xmlns="http://www.w3.org/2000/svg">
<path d="M120.716 187.258C120.716 187.258 98.9015 174.818 92.9153 170.506C88.6184 167.338 89.9772 164.667 92.6215 155.699C95.2657 146.732 101.032 130.399 101.032 130.399L95.7064 129.521C95.7064 129.521 89.4998 149.25 87.2963 156.806C85.0927 164.362 84.1379 169.704 90.7852 174.055C99.7829 179.969 120.716 192.562 120.716 192.562V187.258Z" fill="#C1C1C1"/>
<path d="M100.37 177.717C95.5227 174.626 90.1241 172.756 88.4714 166.04C86.8188 159.323 90.1975 152.684 92.548 146.654C95.8165 138.412 96.0001 130.474 99.893 122.422C82.2648 124.254 64.6734 137.954 63.4247 139.594C62.1761 141.235 52.4071 179.014 51.0115 183.937C49.616 188.859 51.0115 191.76 59.1646 196.797C67.3176 201.834 83.2932 209.619 83.2932 209.619L119.578 188.287C113.849 184.814 106.283 181.533 100.37 177.717Z" fill="#C1C1C1"/>
<path d="M83.1834 209.732C83.1834 209.732 60.9279 196.796 55.0885 192.98C50.6447 190.08 52.4076 186.836 55.0885 177.716C57.7695 168.596 63.5354 152.416 63.5354 152.416L58.2102 151.538C58.2102 151.538 52.0036 171.267 49.8001 178.823C47.5965 186.378 46.1275 192.255 52.7014 196.605C61.7358 202.52 83.2202 214.96 83.2202 214.96L83.1834 209.732Z" fill="#777777"/>
<path d="M83.1826 209.734V215L120.716 192.523V187.257L83.1826 209.734Z" fill="#9E9E9E"/>
<path d="M1.47218e-06 78.5012V179.626C0.0018012 181.348 0.440173 183.04 1.27101 184.531C2.10184 186.021 3.29584 187.258 4.73284 188.117C6.16985 188.975 7.79919 189.426 9.45691 189.422C11.1146 189.419 12.7422 188.962 14.176 188.098L128.686 119.409C130.112 118.545 131.296 117.308 132.12 115.823C132.945 114.337 133.381 112.653 133.387 110.937V9.81265C133.388 8.09253 132.953 6.40241 132.127 4.9119C131.3 3.42139 130.111 2.18295 128.679 1.3208C127.246 0.458654 125.621 0.00315261 123.965 1.63065e-05C122.31 -0.00312 120.683 0.446212 119.247 1.30293L4.73758 69.9914C3.29701 70.8512 2.10034 72.0907 1.26849 73.5849C0.436641 75.0791 -0.000926264 76.775 1.47218e-06 78.5012Z" fill="#3A3A3A"/>
<path d="M4.81104 188.058L15.4981 194.469L22.9167 186.418L8.2265 177.106L4.81104 188.058Z" fill="#3A3A3A"/>
<path d="M130.802 3.00244L141.158 9.22259L130.251 9.4134L130.802 3.00244Z" fill="#3A3A3A"/>
<path d="M10.6133 84.7591V185.884C10.6087 187.61 11.0423 189.306 11.8705 190.802C12.6987 192.298 13.8921 193.54 15.3302 194.403C16.7683 195.267 18.4002 195.72 20.061 195.719C21.7219 195.717 23.3529 195.26 24.7893 194.394L139.299 125.705C140.73 124.838 141.918 123.595 142.742 122.102C143.567 120.609 144.001 118.917 144 117.195V16.0706C144.006 14.3492 143.573 12.6568 142.747 11.1648C141.921 9.67275 140.73 8.43404 139.295 7.57415C137.86 6.71426 136.231 6.26374 134.575 6.2681C132.918 6.27246 131.292 6.73157 129.861 7.59901L15.3509 76.2875C13.9157 77.144 12.7225 78.3776 11.891 79.8645C11.0595 81.3514 10.6188 83.0394 10.6133 84.7591Z" fill="#4D4D4D"/>
<path d="M133.423 20.6118L22.9165 86.9725V182.068L133.423 115.707V20.6118Z" fill="white"/>
<path d="M92.8049 148.488L82.9258 154.326C81.7138 155.051 80.6855 154.67 80.6121 153.487C80.6453 152.78 80.8516 152.093 81.2115 151.492C81.5714 150.891 82.073 150.396 82.6687 150.053L92.5478 144.214C93.7598 143.489 94.7881 143.871 94.8615 145.054C94.8283 145.761 94.6219 146.447 94.262 147.048C93.9022 147.649 93.4006 148.145 92.8049 148.488Z" fill="white"/>
<path d="M27.1765 173.253V169.131L129.971 107.426V111.357L27.1765 173.253Z" fill="#4D4D4D"/>
<path d="M27.5073 105.442V162.453L129.641 100.939V44.1562L27.5073 105.442ZM41.8302 151.539L29.417 159.171V147.723L41.8302 140.091V151.539ZM41.8302 137.878L29.3803 145.319V133.871L41.7935 126.239L41.8302 137.878ZM41.8302 124.178L29.417 131.81V120.362L41.8302 112.73V124.178ZM41.8302 110.517L29.417 118.149V106.701L41.8302 99.0689V110.517ZM56.1531 142.915L43.74 150.547V139.099L56.1531 131.467V142.915ZM56.1531 129.254L43.74 136.886V125.438L56.1531 117.806V129.254ZM56.1531 115.592L43.74 123.224V111.776L56.1531 104.144V115.592ZM56.1531 101.931L43.74 109.563V98.1149L56.1531 90.4828V101.931ZM70.4761 134.329L58.0629 141.961V130.513L70.4761 122.881V134.329ZM70.4761 120.668L58.0629 128.3V116.852L70.4761 109.22V120.668ZM70.4761 107.006L58.0629 114.448V102.999L70.4761 95.3674V107.006ZM70.4761 93.3449L58.0629 100.977V89.5288L70.4761 81.8968V93.3449ZM84.799 125.743L72.3858 133.375V121.927L84.799 114.295V125.743ZM84.799 112.082L72.3858 119.523V108.075L84.799 100.443V112.082ZM84.799 98.3821L72.3858 106.014V94.566L84.799 86.934V98.3821ZM84.799 84.7207L72.3858 92.3527V80.9046L84.799 73.2726V84.7207ZM99.1219 117.157L86.7087 124.789V113.341L99.1219 105.709V117.157ZM99.1219 103.457L86.7087 111.089V99.6413L99.1219 92.0092V103.457ZM99.1586 89.9486L86.7454 97.5807V86.1326L99.1586 78.5005V89.9486ZM99.1586 76.2872L86.7454 83.9193V72.4712L99.1586 64.8391V76.2872ZM113.481 108.685L101.032 116.317V104.869L113.481 97.2372V108.685ZM113.481 95.0239L101.032 102.656V91.2079L113.481 83.5758V95.0239ZM113.481 81.3625L101.032 88.8038V77.3557L113.481 69.7236V81.3625ZM113.481 67.7011L101.032 75.3332V63.8851L113.481 56.2531V67.7011ZM127.804 100.099L115.354 107.731V96.2832L127.804 88.6512V100.099ZM127.804 86.4379L115.354 94.0699V82.6218L127.804 74.9898V86.4379ZM127.804 72.7765L115.354 80.2177V68.7696L127.804 61.1376V72.7765ZM127.804 59.0769L115.354 66.709V55.2609L127.804 47.6289V59.0769Z" fill="#4D4D4D"/>
<path d="M31.6577 107.998V114.409L39.9577 109.372V103L31.6577 107.998Z" fill="#D1406B"/>
<path d="M46.1641 112.921V119.332L54.464 114.295V107.922L46.1641 112.921Z" fill="#D1406B"/>
<path d="M60.2661 117.997V124.37L68.5661 119.371V112.998L60.2661 117.997Z" fill="#D1406B"/>
<path d="M74.4424 123.035V129.446L82.7423 124.447V118.036L74.4424 123.035Z" fill="#D1406B"/>
<path d="M74.4424 82.3183V88.6911L82.7423 83.6921V77.3193L74.4424 82.3183Z" fill="#D1406B"/>
<path d="M88.9487 87.2378V93.6106L97.2487 88.6116V82.2007L88.9487 87.2378Z" fill="#D1406B"/>
<path d="M103.052 92.2758V98.6867L111.352 93.6878V87.2769L103.052 92.2758Z" fill="#D1406B"/>
<path d="M117.227 97.3515V103.724L125.527 98.7253V92.3525L117.227 97.3515Z" fill="#D1406B"/>
</svg>
