<svg width="369" height="369" viewBox="0 0 369 369" fill="none" xmlns="http://www.w3.org/2000/svg">
<path d="M184.695 368.47L368.494 262.292V112.604L184.695 212.396V368.47Z" fill="#3F1652"/>
<path d="M184.696 212.396L88.7509 134.379L0.976562 112.762V262.332L25.528 276.491L34.2539 270.423L146.421 335.272V346.417L184.696 368.47V212.396Z" fill="#72358E"/>
<path d="M0.976562 106.178L87.1247 129.698L270.884 23.5598L184.696 0L0.976562 106.178Z" fill="#707070"/>
<path d="M87.124 129.697L270.883 23.5591L368.494 106.257L184.695 212.395L87.124 129.697Z" fill="#4D4D4D"/>
<path d="M34.2539 270.422L146.421 335.271V231.672L34.2539 166.902V270.422Z" fill="#D3D3D3"/>
<path d="M314.711 161.032L276.595 183.045V201.846L314.711 179.833V161.032Z" fill="#B7B7B7"/>
<path d="M314.711 182.211L307.849 179.236L276.595 197.323V204.343L314.711 182.211Z" fill="#E2E2E2"/>
<path d="M314.711 182.212L307.849 179.238V164.999L314.711 161.032V182.212Z" fill="#919191"/>
<path d="M360.245 134.695L322.089 156.747V175.548L360.245 153.495V134.695Z" fill="#B7B7B7"/>
<path d="M360.245 155.876L353.343 152.901L322.089 170.988V178.008L360.245 155.876Z" fill="#E2E2E2"/>
<path d="M35.1258 167.339L25.5273 161.786V276.492L35.1258 270.939V167.339Z" fill="#3F1652"/>
<path d="M83.0791 183.124C81.2968 184.267 79.7751 185.772 78.6134 187.542C77.4516 189.312 76.6758 191.307 76.3364 193.397L77.3677 194.071C79.1565 195.294 81.1856 196.121 83.3196 196.497C85.4537 196.874 87.6434 196.79 89.7425 196.252C89.9012 189.351 87.9974 185.504 83.0791 183.124Z" fill="#4D4D4D"/>
<path d="M83.0793 183.125C82.2369 182.651 81.2961 182.377 80.3306 182.327C79.3651 182.276 78.4009 182.45 77.5137 182.834C76.6264 183.218 75.84 183.802 75.2161 184.541C74.5921 185.28 74.1475 186.153 73.9171 187.092C73.5639 188.262 73.61 189.517 74.0479 190.659C74.4859 191.8 75.291 192.764 76.3365 193.398C76.6759 191.308 77.4517 189.313 78.6135 187.543C79.7752 185.773 81.2969 184.268 83.0793 183.125Z" fill="#707070"/>
<path d="M0.976562 106.178V113L87.0057 138.107L184.696 219.138V212.395L87.1247 129.698L0.976562 106.178Z" fill="#D3D3D3"/>
<path d="M184.695 212.396V219.138L368.494 112.96V106.257L184.695 212.396Z" fill="#AAAAAA"/>
<path d="M184.695 368.47V357.404L368.494 251.266V262.292L184.695 368.47Z" fill="#AAAAAA"/>
<path d="M184.696 357.404V368.47L146.421 346.418V335.272L184.696 357.404Z" fill="#D3D3D3"/>
<path d="M25.528 276.49V265.385L0.976562 251.225V262.331L25.528 276.49Z" fill="#D3D3D3"/>
<path d="M35.1258 259.872L25.5273 265.385V276.491L35.1258 270.938V259.872Z" fill="#AAAAAA"/>
<path d="M35.1265 173.249V175.193L146.421 239.526V237.543L35.1265 173.249Z" fill="#AAAAAA"/>
<path d="M35.1265 180.308V182.251L146.421 246.545V244.601L35.1265 180.308Z" fill="#AAAAAA"/>
<path d="M35.1265 187.726V189.669L146.421 254.003V252.019L35.1265 187.726Z" fill="#AAAAAA"/>
<path d="M35.1265 194.785V196.728L146.421 261.022V259.078L35.1265 194.785Z" fill="#AAAAAA"/>
<path d="M35.1265 202.004V203.948L146.421 268.281V266.298L35.1265 202.004Z" fill="#AAAAAA"/>
<path d="M35.1265 209.063V211.006L146.421 275.3V273.357L35.1265 209.063Z" fill="#AAAAAA"/>
<path d="M35.1265 216.481V218.424L146.421 282.758V280.775L35.1265 216.481Z" fill="#AAAAAA"/>
<path d="M35.1265 223.54V225.484L146.421 289.777V287.834L35.1265 223.54Z" fill="#AAAAAA"/>
<path d="M35.1265 230.443V232.386L146.421 296.68V294.737L35.1265 230.443Z" fill="#AAAAAA"/>
<path d="M35.1265 237.502V239.406L146.421 303.739V301.796L35.1265 237.502Z" fill="#AAAAAA"/>
<path d="M35.1265 244.919V246.863L146.421 311.157V309.213L35.1265 244.919Z" fill="#AAAAAA"/>
<path d="M35.1265 251.94V253.883L146.421 318.217V316.273L35.1265 251.94Z" fill="#AAAAAA"/>
<path d="M35.1265 259.001V260.944L146.421 325.238V323.295L35.1265 259.001Z" fill="#AAAAAA"/>
<path d="M35.1265 266.099V268.002L146.421 332.336V330.392L35.1265 266.099Z" fill="#AAAAAA"/>
<path d="M195.325 230.047L197.348 228.857L197.903 233.934L198.26 237.385C198.459 236.036 198.617 234.727 198.816 233.419L199.767 227.469L201.433 226.517L202.425 231.356C202.425 232.427 202.782 233.577 202.94 234.727C202.94 233.419 203.178 232.11 203.297 230.761L203.932 224.97L205.796 223.899L204.21 236.354L201.751 237.781L200.918 233.022C200.918 232.189 200.68 231.316 200.6 230.523C200.6 231.435 200.6 232.427 200.243 233.419L199.291 239.289L196.872 240.677L195.325 230.047Z" fill="white"/>
<path d="M211.191 229.809L208.534 231.356L207.978 234.41L205.956 235.56L208.732 222.432L211.112 221.083L213.769 231.078L211.707 232.268L211.191 229.809ZM210.794 228.024L210.596 227.072C210.358 226.041 210.12 224.811 209.882 223.74C209.882 225.089 209.406 226.557 209.168 227.707L208.97 228.897L210.794 228.024Z" fill="white"/>
<path d="M219.321 227.864L217.656 224.652L216.585 225.247V229.411L214.602 230.561V218.98L217.735 217.195C219.599 216.124 221.106 216.124 221.106 218.861C221.114 220.415 220.565 221.92 219.559 223.105L221.503 226.595L219.321 227.864ZM216.624 223.184L217.616 222.589C218.102 222.348 218.509 221.974 218.79 221.511C219.071 221.047 219.214 220.513 219.202 219.971C219.202 218.821 218.647 218.781 217.616 219.337L216.624 219.932V223.184Z" fill="white"/>
<path d="M222.852 214.3L228.326 211.167V213.348L224.835 215.371V217.672L227.77 216.006V218.187L224.796 219.853V222.55L228.405 220.448V222.669L222.812 225.882L222.852 214.3Z" fill="white"/>
<path d="M230.15 210.135L232.133 208.985V213.427L235.147 211.722V207.28L237.131 206.129V217.711L235.147 218.861V214.022L232.133 215.728V220.567L230.15 221.677V210.135Z" fill="white"/>
<path d="M238.677 210.968C238.568 209.373 238.876 207.777 239.571 206.337C240.267 204.898 241.326 203.664 242.643 202.758C244.983 201.409 246.609 202.758 246.609 206.447C246.713 208.052 246.403 209.658 245.708 211.109C245.014 212.561 243.958 213.809 242.643 214.736C240.263 216.085 238.677 214.736 238.677 210.968ZM244.547 207.557C244.547 205.257 243.833 204.305 242.643 204.979C241.943 205.552 241.397 206.292 241.058 207.13C240.718 207.969 240.595 208.88 240.7 209.778C240.7 212.079 241.453 213.11 242.603 212.475C243.3 211.873 243.84 211.111 244.179 210.255C244.517 209.398 244.643 208.473 244.547 207.557Z" fill="white"/>
<path d="M248.196 199.623L250.14 198.513V204.978C250.14 207.278 250.655 207.754 251.607 207.199C252.559 206.644 253.154 205.533 253.194 203.233V196.926L255.098 195.855V202.043C255.273 203.495 255.044 204.967 254.435 206.297C253.826 207.627 252.861 208.763 251.647 209.579C249.386 210.888 248.196 209.896 248.196 206.009V199.623Z" fill="white"/>
<path d="M257.477 202.799C257.811 202.968 258.181 203.054 258.555 203.048C258.929 203.042 259.296 202.945 259.625 202.766C259.953 202.586 260.232 202.329 260.439 202.017C260.645 201.704 260.772 201.347 260.809 200.974C260.809 200.22 260.333 200.3 259.58 200.3H258.469C257.557 200.3 256.684 199.824 256.724 198.158C256.777 197.1 257.087 196.071 257.626 195.159C258.164 194.247 258.917 193.48 259.818 192.922C260.23 192.653 260.713 192.509 261.206 192.509C261.699 192.509 262.181 192.653 262.594 192.922L261.602 195.144C261.334 194.979 261.025 194.892 260.71 194.892C260.395 194.892 260.086 194.979 259.818 195.144C259.501 195.298 259.232 195.533 259.037 195.826C258.841 196.119 258.728 196.458 258.707 196.809C258.707 197.523 259.262 197.444 260.016 197.404H261.126C262.197 197.404 262.832 197.92 262.832 199.546C262.785 200.661 262.46 201.747 261.884 202.703C261.309 203.659 260.503 204.456 259.54 205.02C259.057 205.318 258.501 205.476 257.934 205.476C257.366 205.476 256.81 205.318 256.327 205.02L257.477 202.799Z" fill="white"/>
<path d="M264.339 190.542L269.773 187.449V189.63L266.283 191.613V193.953L269.258 192.248V194.429L266.283 196.135V198.792L269.892 196.73V198.951L264.3 202.124L264.339 190.542Z" fill="white"/>
<path d="M93.0344 126.288L6.88623 102.767L9.42467 101.3L95.5331 124.86L93.0344 126.288Z" fill="#AAAAAA"/>
<path d="M101.879 121.17L15.731 97.6502L18.2694 96.1826L104.378 119.742L101.879 121.17Z" fill="#AAAAAA"/>
<path d="M110.724 116.055L24.5762 92.5344L27.0749 91.0669L113.223 114.627L110.724 116.055Z" fill="#AAAAAA"/>
<path d="M119.529 110.977L33.3813 87.4573L35.8801 85.9897L122.028 109.55L119.529 110.977Z" fill="#AAAAAA"/>
<path d="M128.374 105.861L42.2261 82.3406L44.7248 80.873L130.833 104.433L128.374 105.861Z" fill="#AAAAAA"/>
<path d="M137.18 100.783L51.0317 77.2233L53.5702 75.7954L139.679 99.3156L137.18 100.783Z" fill="#AAAAAA"/>
<path d="M146.024 95.6684L59.876 72.1482L62.3747 70.6807L148.523 94.2405L146.024 95.6684Z" fill="#AAAAAA"/>
<path d="M154.869 90.5517L68.7212 67.0315L71.22 65.564L157.328 89.1238L154.869 90.5517Z" fill="#AAAAAA"/>
<path d="M163.674 85.4736L77.5264 61.9137L80.0648 60.4858L166.173 84.0457L163.674 85.4736Z" fill="#AAAAAA"/>
<path d="M172.519 80.3569L86.3711 56.8367L88.8699 55.3691L175.018 78.929L172.519 80.3569Z" fill="#AAAAAA"/>
<path d="M181.364 75.242L95.1758 51.7218L97.7142 50.2939L183.823 73.8141L181.364 75.242Z" fill="#AAAAAA"/>
<path d="M190.169 70.1645L104.021 46.6443L106.559 45.1768L192.668 68.7366L190.169 70.1645Z" fill="#AAAAAA"/>
<path d="M199.013 65.0483L112.865 41.5281L115.364 40.0605L201.472 63.6204L199.013 65.0483Z" fill="#AAAAAA"/>
<path d="M207.859 59.9711L121.71 36.4113L124.209 34.9834L210.318 58.5432L207.859 59.9711Z" fill="#AAAAAA"/>
<path d="M216.664 54.8549L130.516 31.3347L133.055 29.8672L219.163 53.427L216.664 54.8549Z" fill="#AAAAAA"/>
<path d="M225.509 49.7768L139.361 26.2169L141.86 24.7891L227.968 48.3489L225.509 49.7768Z" fill="#AAAAAA"/>
<path d="M234.314 44.6611L148.166 21.1409L150.704 19.6733L236.813 43.2332L234.314 44.6611Z" fill="#AAAAAA"/>
<path d="M243.159 39.5439L157.011 16.0237L159.549 14.5562L245.658 38.116L243.159 39.5439Z" fill="#AAAAAA"/>
<path d="M251.965 34.4677L165.816 10.9475L168.355 9.47998L254.463 33.0398L251.965 34.4677Z" fill="#AAAAAA"/>
<path d="M260.809 29.3505L174.661 5.83033L177.16 4.36279L263.308 27.9226L260.809 29.3505Z" fill="#AAAAAA"/>
<path d="M93.0342 126.287L190.605 208.945L193.064 207.557L95.533 124.859L93.0342 126.287Z" fill="#707070"/>
<path d="M101.879 121.171L199.41 203.868L201.909 202.44L104.378 119.743L101.879 121.171Z" fill="#707070"/>
<path d="M110.724 116.094L208.256 198.751L210.715 197.323L113.183 114.626L110.724 116.094Z" fill="#707070"/>
<path d="M119.53 110.978L217.101 193.675L219.56 192.247L122.029 109.55L119.53 110.978Z" fill="#707070"/>
<path d="M128.375 105.861L225.906 188.559L228.405 187.131L130.834 104.434L128.375 105.861Z" fill="#707070"/>
<path d="M137.179 100.785L234.75 183.482L237.209 182.054L139.678 99.3569L137.179 100.785Z" fill="#707070"/>
<path d="M146.024 95.6686L243.595 178.366L246.054 176.938L148.523 94.2407L146.024 95.6686Z" fill="#707070"/>
<path d="M154.869 90.5911L252.401 173.249L254.899 171.821L157.328 89.1235L154.869 90.5911Z" fill="#707070"/>
<path d="M163.674 85.4733L261.245 168.171L263.704 166.743L166.173 84.0454L163.674 85.4733Z" fill="#707070"/>
<path d="M172.519 80.3571L270.09 163.055L272.549 161.627L175.018 78.9292L172.519 80.3571Z" fill="#707070"/>
<path d="M181.364 75.2809L278.895 157.978L281.394 156.55L183.823 73.853L181.364 75.2809Z" fill="#707070"/>
<path d="M190.169 70.1642L287.74 152.862L290.199 151.434L192.668 68.7363L190.169 70.1642Z" fill="#707070"/>
<path d="M199.014 65.0875L296.585 147.745L299.044 146.317L201.513 63.6597L199.014 65.0875Z" fill="#707070"/>
<path d="M207.859 59.9713L305.39 142.669L307.889 141.241L210.318 58.5435L207.859 59.9713Z" fill="#707070"/>
<path d="M216.665 54.8948L314.236 137.553L316.695 136.125L219.163 53.4272L216.665 54.8948Z" fill="#707070"/>
<path d="M225.509 49.7765L323.08 132.474L325.539 131.046L228.008 48.3486L225.509 49.7765Z" fill="#707070"/>
<path d="M234.354 44.6603L331.885 127.358L334.384 125.93L236.813 43.2324L234.354 44.6603Z" fill="#707070"/>
<path d="M243.16 39.5836L340.731 122.241L343.23 120.853L245.658 38.1558L243.16 39.5836Z" fill="#707070"/>
<path d="M252.004 34.4288L349.575 117.166L352.074 115.738L254.503 33.001L252.004 34.4288Z" fill="#707070"/>
<path d="M260.849 29.3507L358.42 112.088L360.879 110.66L263.308 27.9229L260.849 29.3507Z" fill="#707070"/>
</svg>
