<svg width="135" height="196" viewBox="0 0 135 196" fill="none" xmlns="http://www.w3.org/2000/svg">
<path d="M58.4799 74.38C56.778 74.0542 55.0566 73.8411 53.3267 73.7424C53.725 73.0585 53.9743 72.2978 54.0583 71.5104C54.4401 69.7249 54.0583 68.3219 53.3267 69.8843C52.2134 72.3557 50.1989 74.3065 47.6964 75.3366C43.911 77.1221 32.6504 70.5539 32.6504 70.5539L31.9824 71.5104C30.9645 79.7366 37.2946 79.1946 37.2946 79.1946C40.4718 80.0452 43.7404 80.5056 47.0284 80.5657C50.5574 80.5153 54.0731 80.1202 57.5256 79.3859C63.0605 78.0149 60.8656 74.8902 58.4799 74.38Z" fill="#FFAD97"/>
<path d="M89.1443 150.743C89.1443 150.743 87.2358 152.816 84.691 155.303C82.1462 157.79 81.51 158.268 79.4423 160.404C78.17 161.648 79.2197 162.796 81.6372 162.7C84.8868 162.359 88.0879 161.654 91.1801 160.596C93.6882 159.535 96.1035 158.265 98.401 156.801C99.4393 156.206 100.213 155.237 100.564 154.091V150.265L89.1443 150.743Z" fill="#4D4D4D"/>
<path d="M123.849 147.364C122.733 148.893 121.477 150.313 120.095 151.605C118.2 153.422 116.485 155.419 114.974 157.567C114.497 158.173 114.21 159.959 116.66 159.863C119.427 159.576 122.144 158.922 124.739 157.918C127.457 156.473 129.971 154.672 132.215 152.561C133.434 151.632 134.344 150.353 134.823 148.895L133.583 145.132L123.849 147.364Z" fill="#4D4D4D"/>
<path d="M122.894 85.2202C123.293 81.3689 122.891 77.4767 121.714 73.7889C120.537 70.1012 118.61 66.6979 116.055 63.7937C116.66 59.0748 94.7746 65.6749 94.7746 65.6749C94.7746 65.6749 90.0667 91.1826 88.0945 104.542C85.8361 119.783 87.2039 150.807 87.2039 150.807C87.2039 150.807 87.4901 153.995 93.1523 153.995C96.0673 153.756 98.7733 152.383 100.691 150.169L101.137 114.873L106.162 89.8116C106.162 89.8116 111.029 110.186 112.524 117.487C114.019 124.789 120.413 148.224 120.413 148.224C121.508 149.501 122.979 150.396 124.614 150.78C126.25 151.164 127.964 151.017 129.511 150.36C134.537 147.842 133.551 145.036 133.551 145.036C132.692 134.408 130.169 123.981 126.075 114.14C125.566 103.171 122.481 91.6927 122.894 85.2202Z" fill="#3F1652"/>
<path d="M97.7649 28.8178C97.7649 28.8178 94.5839 28.6584 91.403 34.7483C88.222 40.8383 85.041 47.3108 85.041 47.3108C88.7604 48.156 92.167 50.0346 94.8702 52.7312C101.9 46.3862 103.014 31.783 97.7649 28.8178Z" fill="#D1406B"/>
<path d="M97.7646 28.8174C96.3028 31.8792 95.1621 35.0848 94.3609 38.3828C92.7704 44.7597 93.343 73.4558 93.343 73.4558C98.7195 76.6372 104.986 77.9696 111.188 77.2501C115.01 77.0177 118.601 75.343 121.24 72.5631C121.24 72.5631 125.216 44.2814 124.676 40.232C124.135 36.1827 115.737 26.8405 115.737 26.8405C109.678 26.4721 103.6 27.1406 97.7646 28.8174Z" fill="#EF4F77"/>
<path d="M105.399 24.8639L104.126 32.4524C104.126 32.4524 107.975 36.7887 111.729 33.5365C113.483 32.2822 114.956 30.675 116.055 28.8176L114.21 18.4551L105.399 24.8639Z" fill="#FFAD97"/>
<path d="M107.054 46.354C109.378 42.6688 112.34 39.4294 115.801 36.7886C117.651 35.7007 119.642 34.8744 121.718 34.3335C121.718 34.3335 120.318 31.432 119.396 31.145C117.203 31.6009 115.112 32.4546 113.225 33.6639C109.611 35.8436 106.594 38.8895 104.445 42.5278C101.392 48.012 104.827 49.4787 107.054 46.354Z" fill="#3F1652"/>
<path d="M99.2601 28.1476C97.7057 31.7617 96.5123 35.5211 95.6973 39.371C95.3156 43.0377 96.0473 44.1537 97.5105 44.2812C98.9738 44.4088 99.0374 41.7942 99.4827 38.8927C99.928 35.9912 102.664 27.1592 102.664 27.1592L99.2601 28.1476Z" fill="#3F1652"/>
<path d="M121.781 68.6415C119.765 70.2215 117.278 71.0751 114.719 71.0647C111.538 70.714 107.18 67.7169 107.435 57.9283C107.442 53.1453 107.814 48.37 108.548 43.644L96.6512 38.4468C94.1854 45.5322 92.8959 52.9752 92.834 60.4791C92.1978 75.0503 91.9434 80.0881 91.9434 80.0881C98.617 80.5032 105.31 80.5032 111.983 80.0881C115.544 79.8118 119.075 79.2466 122.544 78.3982L121.781 68.6415Z" fill="#3F1652"/>
<path d="M98.0512 41.1256C98.0512 41.7314 97.7331 42.2097 97.3196 42.2097C96.9061 42.2097 96.5562 41.7314 96.5562 41.1256C96.5562 40.5198 96.9061 40.0415 97.3196 40.0415C97.7331 40.0415 98.0512 40.5198 98.0512 41.1256Z" fill="white"/>
<path d="M105.145 44.441C104.795 44.9193 104.763 45.5251 105.145 45.7483C105.527 45.9715 106.036 45.7483 106.386 45.3019C106.736 44.8555 106.736 44.2178 106.386 43.9946C106.036 43.7715 105.495 43.9628 105.145 44.441Z" fill="white"/>
<path d="M95.7609 45.9712C95.2519 48.4263 95.5064 56.1424 99.8643 57.2902C104.222 58.4381 104.827 53.6873 105.749 50.0843C102.248 49.176 98.8877 47.7922 95.7609 45.9712Z" fill="#72358E"/>
<path d="M110.743 7.07175C109.606 6.2222 108.279 5.66273 106.877 5.44161C105.476 5.2205 104.042 5.34434 102.699 5.80249C101.356 6.26064 100.144 7.03935 99.1682 8.07145C98.1923 9.10356 97.4814 10.3581 97.097 11.7269C94.1705 20.0169 101.646 30.3794 105.654 28.5939C109.404 26.7841 112.343 23.6336 113.892 19.7618C114.525 17.5557 114.567 15.2214 114.015 12.9937C113.462 10.7661 112.334 8.72361 110.743 7.07175Z" fill="#FFC5B3"/>
<path d="M79.9517 97.3048V67.2376L104.095 55.1533V83.5306L79.9517 97.3048Z" fill="#DBA763"/>
<path d="M79.9513 97.3048V67.2376L55.7441 55.1533V83.5306L79.9513 97.3048Z" fill="#E8B679"/>
<path d="M79.9517 97.5593V67.2371L104.095 53.2397V83.5301L79.9517 97.5593Z" fill="#DBA763"/>
<path d="M79.9513 97.5593V67.2371L55.7441 53.2397V83.5301L79.9513 97.5593Z" fill="#E8B679"/>
<path d="M55.7441 53.2407L79.9513 67.238L104.095 53.2407L79.9513 39.2114L55.7441 53.2407Z" fill="#FFE1C0"/>
<path d="M95.1249 67.2373L89.7173 70.3939V61.53L95.1249 58.4053V67.2373Z" fill="#4D4D4D"/>
<path d="M95.1245 58.4051L70.9809 44.4077L65.5732 47.5324L89.7168 61.5616L95.1245 58.4051Z" fill="#6D6D6D"/>
<path d="M83.1323 93.2246V91.6623L91.2438 86.9434V88.5376L83.1323 93.2246Z" fill="#4D4D4D"/>
<path d="M83.1323 90.4492V88.8869L91.2438 84.168V85.7303L83.1323 90.4492Z" fill="#4D4D4D"/>
<path d="M98.5278 79.0679V84.4883L102.409 82.2244V76.8359L98.5278 79.0679Z" fill="#4D4D4D"/>
<path d="M61.0878 78.5255V84.1372L57.207 81.9053V76.2617L61.0878 78.5255Z" fill="#4D4D4D"/>
<path d="M66.3686 81.5869V87.2305L62.4878 84.9986V79.355L66.3686 81.5869Z" fill="#4D4D4D"/>
<path d="M65.1595 62.0403V70.139L57.207 65.5157V57.417L65.1595 62.0403Z" fill="white"/>
<path d="M64.2051 63.6975V62.3583L57.9067 58.7554V60.0308L64.2051 63.6975Z" fill="#4D4D4D"/>
<path d="M110.075 54.9616C110.075 54.9616 105.495 64.527 103.713 67.3009C100.376 70.9737 96.618 74.2379 92.5162 77.0258C90.3234 78.1765 87.897 78.8091 85.4227 78.8751C83.5141 78.8751 82.2417 79.6403 84.0867 80.3099C85.2447 80.7447 86.4521 81.0339 87.6812 81.1707C85.9159 82.4745 84.3419 84.02 83.0051 85.7621C81.9554 87.452 81.0648 90.5448 85.1682 89.652C88.3492 88.9187 93.057 83.8491 94.2658 82.7012C96.5243 80.565 105.558 75.6866 107.594 74.2199C110.489 72.1793 118.664 60.095 118.664 60.095C118.664 60.095 116.055 53.7181 110.075 54.9616Z" fill="#FFC5B3"/>
<path d="M123.244 36.7885C120.858 34.8754 115.801 41.3798 113.097 45.4292C111.138 48.6246 109.507 52.0111 108.23 55.5366C108.23 55.5366 111.411 57.8961 114.401 59.7454C116.011 60.7465 117.679 61.6514 119.395 62.4556C119.395 62.4556 131.387 43.3886 123.244 36.7885Z" fill="#D1406B"/>
<path d="M96.4287 14.3416C97.3298 15.3368 98.4823 16.0695 99.7645 16.4623C101.047 16.8552 102.411 16.8936 103.713 16.5735C105.691 16.2357 107.589 15.533 109.312 14.501L109.98 18.8692C110.384 18.8063 110.773 18.6655 111.125 18.4547C111.125 16.7011 111.825 16.1909 112.779 16.7011C113.733 17.2112 113.892 19.8895 113.892 19.8895C114.884 18.8188 115.6 17.521 115.977 16.1094C116.354 14.6978 116.381 13.2152 116.055 11.7908C115.356 8.60238 111.22 2.57619 105.399 3.11822C103.152 3.20595 100.989 3.99757 99.2147 5.38169C97.4402 6.76581 96.1432 8.67279 95.5062 10.8343C95.3798 11.4506 95.3973 12.0879 95.5574 12.6963C95.7174 13.3048 96.0156 13.8679 96.4287 14.3416Z" fill="#4D4D4D"/>
<path d="M95.2519 10.5474C95.2519 10.5474 87.8085 15.8083 86.5361 16.9243C85.2637 18.0403 92.4209 22.8867 97.5105 21.2606C102.032 19.3533 106.304 16.9014 110.234 13.959L95.2519 10.5474Z" fill="#3F1652"/>
<path d="M95.252 10.5482C95.252 10.5482 103.745 15.841 109.057 14.3105C111.473 13.8302 113.767 12.8649 115.801 11.4728C115.801 11.4728 115.324 0.376953 105.59 0.376953C95.8563 0.376953 95.252 10.5482 95.252 10.5482Z" fill="#72358E"/>
<path d="M21.2623 181.926C24.0934 180.523 26.7654 178.738 25.9065 177.176C25.6595 176.824 25.3369 176.533 24.9625 176.323C24.5881 176.113 24.1715 175.991 23.7434 175.964C21.1669 176.825 19.8627 177.399 19.8627 177.399C19.9459 170.227 20.4025 163.065 21.2305 155.94C21.6122 153.868 11.6876 153.804 11.6876 153.804C11.1536 161.117 11.1536 168.46 11.6876 175.773C11.9129 177.615 11.9129 179.478 11.6876 181.321L14.8685 182.692C15.9283 183.02 17.0451 183.122 18.1465 182.99C19.2479 182.858 20.3094 182.496 21.2623 181.926Z" fill="#FFC5B3"/>
<path d="M11.497 185.467C12.4513 187.699 14.6779 187.508 19.0359 185.913C22.5693 184.732 25.9045 183.023 28.9287 180.844C31.7279 178.803 31.7279 178.516 32.1097 177.113C32.6186 175.168 29.7876 174.084 25.0479 175.551L23.7437 175.965C24.1718 175.992 24.5884 176.115 24.9628 176.324C25.3372 176.534 25.6598 176.826 25.9068 177.177C26.7656 178.771 24.0936 180.365 21.2626 181.928C20.2893 182.52 19.2002 182.895 18.0694 183.027C16.9386 183.159 15.7927 183.045 14.7097 182.693L11.5288 181.322C11.3379 183.235 10.9244 184.096 11.497 185.467Z" fill="#4D4D4D"/>
<path d="M35.0044 189.929C37.8355 188.495 40.5393 186.741 39.6804 185.147C39.4301 184.801 39.1061 184.516 38.7319 184.312C38.3577 184.108 37.9428 183.99 37.5174 183.967C34.909 184.828 33.6048 185.402 33.6048 185.402C33.6048 185.402 34.3364 161.616 35.4497 155.303C35.7996 153.23 25.9068 156.355 25.9068 156.355C25.1957 165.477 25.0576 174.636 25.4933 183.776C25.7186 185.618 25.7186 187.481 25.4933 189.324L28.6742 190.695C29.7247 191.014 30.8298 191.11 31.9195 190.979C33.0092 190.847 34.0597 190.49 35.0044 189.929Z" fill="#FFC5B3"/>
<path d="M25.2387 193.469C26.193 195.701 28.4196 195.51 32.7776 193.916C36.311 192.735 39.6462 191.026 42.6704 188.846C45.4696 186.774 45.5015 186.519 45.8514 185.116C46.3603 183.171 43.5293 182.087 38.8214 183.553L37.5172 183.968C37.9426 183.991 38.3576 184.109 38.7318 184.313C39.106 184.517 39.43 184.802 39.6803 185.148C40.5391 186.774 37.8353 188.336 35.0043 189.93C34.031 190.522 32.9419 190.897 31.8111 191.029C30.6803 191.161 29.5344 191.048 28.4514 190.696L25.2705 189.325C25.0796 191.206 24.6661 192.098 25.2387 193.469Z" fill="#4D4D4D"/>
<path d="M24.6663 28.3068C25.8432 29.1358 30.2012 30.1242 31.4099 39.7534C32.4915 48.2984 30.6147 50.4985 28.897 51.2318C27.4616 51.5116 26.001 51.6398 24.539 51.6144V58.8203C21.8752 59.774 18.9641 59.774 16.3003 58.8203L12.2605 57.1624C13.3467 54.835 13.7968 52.2602 13.5647 49.7013C13.2466 43.8346 11.1789 35.5127 12.6422 32.388C13.0927 31.267 13.7796 30.257 14.6559 29.4269C15.5321 28.5968 16.577 27.9664 17.7189 27.5788C18.8609 27.1912 20.0729 27.0555 21.272 27.1812C22.4711 27.3068 23.629 27.6908 24.6663 28.3068Z" fill="#FFC5B3"/>
<path d="M10.2246 52.6343C10.2246 52.6343 21.7397 55.8227 24.6662 56.9706C27.5927 58.1184 29.6603 59.8083 32.555 65.6432C35.4497 71.4781 33.3184 80.3102 33.3184 80.3102L32.4277 96.2525C32.4277 96.2525 26.4157 103.554 21.0717 104.064C13.7554 104.766 12.9602 100.876 12.9602 100.876C12.9602 100.876 3.67174 80.4377 5.1668 70.681C6.24335 64.5103 7.93785 58.4642 10.2246 52.6343Z" fill="#FFBA76"/>
<path d="M31.7278 36.4064C31.4097 39.5949 28.5468 40.7109 26.2883 43.2297C24.5219 45.6369 23.3648 48.4379 22.9165 51.3922C22.1849 53.656 23.2028 63.6997 19.5447 71.2882C17.9083 75.508 14.7845 78.9795 10.7652 81.0449C6.24061 73.7152 3.01224 65.6576 1.22225 57.2271C-1.25891 44.1863 7.58418 27.1918 17.4134 25.1512C27.5925 23.0787 32.364 29.6788 31.7278 36.4064Z" fill="#4D4D4D"/>
<path d="M29.8507 62.3281C27.4649 62.1049 24.9838 66.4412 25.2383 71.8935C25.5564 78.8124 39.9662 90.6416 39.9662 90.6416C44.833 93.5112 59.5609 89.2387 63.06 88.8561C66.5591 88.4735 70.6625 89.5894 72.8574 89.0474C75.0523 88.5053 77.8833 85.0618 76.4519 83.9459C73.9267 83.2438 71.3094 82.932 68.6903 83.0212C69.2233 81.8539 69.6389 80.6363 69.9309 79.3863C69.9309 76.1979 68.404 79.769 66.3364 81.4589C64.7032 82.7938 62.6842 83.5653 60.5789 83.6589C54.7833 84.4053 48.9047 84.1898 43.1789 83.0212C43.1789 83.0212 34.4631 62.7745 29.8507 62.3281Z" fill="#FFC5B3"/>
<path d="M18.3682 25.0557C18.3682 25.0557 27.7202 25.8209 26.9886 33.9515C26.257 42.0821 26.2888 43.2618 26.2888 43.2618C26.2888 43.2618 28.0383 38.4472 28.8972 34.7486C29.756 31.05 28.6109 22.5687 18.3682 25.0557Z" fill="#FFBA76"/>
<path d="M28.8968 41.1875C28.8968 41.1875 26.3839 36.8512 25.2705 41.1875C24.9482 42.2381 25.0269 43.3713 25.4912 44.3671C25.9556 45.3628 26.7726 46.1501 27.7835 46.576L28.8968 41.1875Z" fill="#FFC5B3"/>
<path d="M12.2288 92.8414C10.5247 97.8675 9.11208 102.988 7.99806 108.178C5.54872 122.398 6.34397 153.805 6.34397 153.805C6.34397 153.805 19.0679 161.138 28.0064 160.532C40.9211 159.672 44.7701 153.805 44.7701 153.805C44.7701 153.805 39.5533 123.451 38.6626 116.978C37.3186 108.373 34.8923 99.9739 31.4418 91.9805L12.2288 92.8414Z" fill="#FFBA76"/>
<path d="M10.2881 99.0902C15.0502 100.759 20.1795 101.079 25.1114 100.015C27.9571 99.1781 30.7077 98.0453 33.3183 96.635L32.5549 93.064C29.1343 94.4896 25.5403 95.4545 21.8668 95.9336C17.948 96.3909 13.9774 95.8537 10.3199 94.3712L10.2881 99.0902Z" fill="#FFA543"/>
</svg>
