<svg width="156" height="206" viewBox="0 0 156 206" fill="none" xmlns="http://www.w3.org/2000/svg">
<path d="M7.53626 78.9644C14.1574 59.0873 22.5234 49.4102 40.4548 47.3806C58.3861 45.3509 62.6927 78.1826 91.7688 71.4309C120.845 64.6792 136.103 66.6674 141.6 85.6436C147.097 104.62 149.581 167.037 106.479 158.457C63.3761 149.878 49.6203 133.905 29.9741 142.562C10.3278 151.219 2.31202 148.325 0.377918 134.454C-1.55619 120.583 4.40731 88.3567 7.53626 78.9644Z" fill="#FFEFDF"/>
<path d="M26.4859 194.759C26.4859 194.759 54.2524 194.382 89.6095 194.759C124.967 195.137 150.074 195.155 154.219 198.179C158.363 201.202 156.574 206.594 134.677 205.252C112.779 203.911 100.408 199.601 87.3354 202.09C74.2632 204.579 63.1024 201.684 52.5977 201.781C42.0931 201.878 26.9729 203.497 22.0986 200.492C17.2243 197.487 22.3411 194.807 26.4859 194.759Z" fill="#FFEFDF"/>
<path d="M54.9817 33.7002C54.9817 33.7002 53.02 42.4648 54.1765 47.3741C55.333 52.2835 59.0782 51.6877 59.651 51.5298C60.2239 51.3719 60.7319 49.9358 60.7319 49.9358C60.9727 50.3211 61.3201 50.6375 61.7371 50.8511C62.1541 51.0646 62.6249 51.1672 63.099 51.1478C64.2856 51.02 65.4296 50.6554 66.455 50.0784C66.455 50.0784 71.6107 51.2242 74.6317 50.5876C77.6527 49.9511 78.0851 48.739 78.0851 48.739C78.0851 48.739 79.8685 49.508 81.9059 47.8121C83.9433 46.1162 81.0845 39.2869 79.982 36.5827C78.8795 33.8784 54.9817 33.7002 54.9817 33.7002Z" fill="#00557F"/>
<path d="M64.6826 179.067L65.3722 186.439L71.7488 185.554V178.829L64.6826 179.067Z" fill="#FFA78C"/>
<path d="M89.6855 178.829L91.3685 185.352H96.7517L96.1094 178.829H89.6855Z" fill="#FFA78C"/>
<path d="M71.4622 184.809C71.4622 184.809 76.2567 190.404 78.5357 191.672C80.8146 192.94 79.7504 194.139 78.8581 194.435C77.9659 194.731 75.386 194.538 70.484 194.435C70.0486 194.435 66.7215 194.129 65.0176 193.902C64.8826 193.884 64.7529 193.841 64.636 193.777C64.5191 193.712 64.4174 193.627 64.3368 193.526C64.2563 193.425 64.1984 193.31 64.1667 193.188C64.1351 193.066 64.1301 192.94 64.1523 192.816L65.367 185.795L70.57 184.952L71.4622 184.809Z" fill="#00557F"/>
<path d="M90.9921 183.932L90.2318 192.614C90.2168 192.784 90.2748 192.953 90.3929 193.084C90.5111 193.214 90.68 193.296 90.8627 193.312C92.9549 193.497 99.1828 194.049 99.9808 194.049C100.946 194.049 105.869 194.049 106.937 193.477C108.004 192.905 107.686 191.886 106.937 191.204C106.187 190.521 102.014 188.354 102.014 188.354L96.6862 183.722L90.9921 183.932Z" fill="#00557F"/>
<path d="M81.8633 56.8827C81.8633 56.8827 77.8234 52.7251 68.1121 52.7251C60.7118 52.7251 54.3555 57.6619 54.3555 57.6619L59.657 81.0389L57.1014 91.861H85.8816L83.1629 79.5932C83.1629 79.5932 86.0773 63.4088 81.8633 56.8827Z" fill="#FFD07F"/>
<path d="M78.1382 31.1704C78.1382 31.1704 79.8412 39.9525 79.9003 42.5004C79.9594 45.0482 77.3968 47.6573 74.6032 49.0563C71.8096 50.4553 66.0075 47.9483 64.6913 46.1511C63.3751 44.3538 60.877 34.8058 60.877 34.8058C60.877 34.8058 73.013 25.5335 78.1382 31.1704Z" fill="#FFA78C"/>
<path d="M73.7189 48.4879C73.8097 50.4964 74.2456 52.478 75.0098 54.356L65.8224 53.0339L64.1387 45.6592L73.7189 48.4879Z" fill="#FFA78C"/>
<path d="M63.48 39.6532C63.48 39.6532 61.5395 37.138 59.9337 38.4061C58.328 39.6742 59.8605 43.1419 61.2466 44.1943C62.6327 45.2467 64.1391 43.7628 64.1391 43.7628L63.48 39.6532Z" fill="#FFA78C"/>
<path d="M73.4862 49.3547C73.4862 49.3547 69.5581 49.4218 66.8564 47.8325C66.8564 47.8325 70.4255 52.2143 73.9226 52.1808L73.4862 49.3547Z" fill="#D88471"/>
<path d="M74.2342 29.9352C74.2342 29.9352 74.7104 33.1016 70.0352 35.2004C66.5535 36.7628 65.6557 38.4502 65.6557 38.4502C65.6557 38.4502 66.5645 41.6322 63.9039 42.5488C63.9039 42.5488 62.2615 37.4294 60.1374 38.1117C58.0134 38.7939 60.0991 44.757 63.4221 44.1164C64.2546 45.3958 64.6928 46.8719 64.6867 48.3765C64.6867 48.3765 57.0827 44.8976 54.9476 38.6637C52.8126 32.4298 57.1374 29.706 57.1374 29.706C57.1374 29.706 58.1885 26.2896 63.5645 24.3522C68.9404 22.4149 75.0115 23.5867 77.9513 25.8261C78.7833 26.4087 79.4287 27.1999 79.8154 28.1113C80.202 29.0227 80.3148 30.0183 80.1411 30.9872C80.1411 30.9872 82.3035 32.5496 82.0572 34.9192C81.8108 37.2888 79.413 38.221 79.413 38.221C79.413 38.221 77.7707 32.0288 76.3637 30.4976C74.9568 28.9665 74.2342 29.9352 74.2342 29.9352Z" fill="#00557F"/>
<path d="M74.4658 37.5049C74.4658 37.5049 74.6605 39.2403 75.737 40.1718C76.8136 41.1032 75.1288 41.8533 75.1288 41.8533" stroke="#BF6D60" stroke-width="0.543554" stroke-linecap="round" stroke-linejoin="round"/>
<path d="M78.2715 34.6986C78.2715 34.6986 76.7602 33.619 75.5537 34.7877" stroke="#00557F" stroke-width="0.543554" stroke-linecap="round" stroke-linejoin="round"/>
<path d="M71.2055 35.8745C70.5529 36.3691 69.8158 36.7377 69.0312 36.9616" stroke="#00557F" stroke-width="0.543554" stroke-linecap="round" stroke-linejoin="round"/>
<path d="M60.334 39.6797C61.0043 39.8959 61.6037 40.2575 62.0781 40.732C62.5526 41.2065 62.8872 41.7788 63.0518 42.3975" stroke="#BF6D60" stroke-width="0.543554" stroke-linecap="round" stroke-linejoin="round"/>
<path d="M61.9639 41.8532C61.9639 41.6671 61.9639 41.4675 61.9639 41.2759C61.9639 41.0843 61.9639 40.908 61.9639 40.7661" stroke="#BF6D60" stroke-width="0.543554" stroke-linecap="round" stroke-linejoin="round"/>
<path d="M70.1783 38.9801C70.355 39.4418 70.8314 39.7281 71.2463 39.6727C71.6613 39.6173 71.8611 39.2109 71.6843 38.7492C71.5076 38.2875 71.0389 37.9966 70.6239 38.0566C70.209 38.1167 70.0092 38.5368 70.1783 38.9801Z" fill="#00557F"/>
<path d="M76.6807 37.8929C76.7985 38.3317 77.1161 38.6411 77.3928 38.5857C77.6694 38.5302 77.8026 38.1238 77.6847 37.662C77.5669 37.2002 77.2544 36.9092 76.9778 36.9692C76.7012 37.0293 76.568 37.4496 76.6807 37.8929Z" fill="#00557F"/>
<path d="M75.5531 44.048C75.1544 43.9896 74.7512 44.0554 74.3742 44.2403C73.9973 44.4252 73.6568 44.7242 73.3789 45.1145" stroke="#BF6D60" stroke-width="0.543554" stroke-linecap="round" stroke-linejoin="round"/>
<path d="M100.912 53.8121C99.6204 49.9715 91.4368 35.6552 91.4368 35.6552C90.7445 34.1362 89.8025 32.7264 88.6446 31.4761C88.6446 31.4761 86.3655 29.5891 85.4164 29.343C84.8546 28.912 84.2233 28.5659 83.5457 28.3175C82.5414 28.0303 80.1464 28.9892 79.9422 29.3738C79.7381 29.7584 80.3175 29.8865 81.2666 29.6712C82.2158 29.4558 82.5358 29.3481 82.5358 29.3481L83.2643 30.1891C82.6808 30.5155 82.1725 30.9459 81.7688 31.4556C81.6419 31.8863 82.2709 32.5273 82.2709 32.5273C82.2709 32.5273 82.6517 33.8759 83.187 34.0246L83.7388 34.1733C83.7388 34.1733 84.9087 36.1013 86.3214 36.2243C86.3214 36.2243 86.967 38.2754 88.4349 38.6087C88.7549 41.1366 90.0021 50.5868 91.194 53.9352L86.0123 54.9095C86.3159 56.8169 88.7163 64.1392 88.7163 64.1392C91.0837 63.8213 102.711 59.2218 100.912 53.8121Z" fill="#FFA78C"/>
<path d="M94.5259 147.999C94.5259 147.999 93.0172 108.194 86.0215 91.8608H57.2951C57.2951 91.8608 54.3481 99.5398 54.9885 115.535C55.5041 128.389 58.8527 142.606 60.1498 147.682C60.0142 152.707 60.0413 166.753 64.0032 179.368H72.372L71.8781 149.632L74.2878 112.471L81.6146 145.769H81.582C81.582 145.769 82.7163 166.25 89.3646 179.373H96.7511L94.5259 147.999Z" fill="#00557F"/>
<path d="M90.2303 38.0488C90.0084 38.3414 89.7346 38.5254 89.444 38.5773C89.1534 38.6292 88.8593 38.5465 88.5996 38.34" stroke="#BF6D60" stroke-width="0.543554" stroke-linecap="round" stroke-linejoin="round"/>
<path d="M60.2117 92.9478C60.2117 92.9478 56.6837 106.307 57.8542 119.355C58.7084 128.012 60.0807 136.617 61.9646 145.129" stroke="#004560" stroke-width="0.543554" stroke-linecap="round" stroke-linejoin="round"/>
<path d="M86.2102 35.8748C86.3167 35.7824 86.3896 35.6475 86.4147 35.4963C86.4399 35.3451 86.4155 35.1885 86.3463 35.0569L85.8809 34.2441" stroke="#BF6D60" stroke-width="0.543554" stroke-linecap="round" stroke-linejoin="round"/>
<path d="M85.3367 32.6133C85.3367 32.6133 83.845 33.3511 83.7061 34.2439" stroke="#BF6D60" stroke-width="0.543554" stroke-linecap="round" stroke-linejoin="round"/>
<path d="M84.2508 31.5254C83.6211 31.6223 83.041 32.009 82.6201 32.6125" stroke="#BF6D60" stroke-width="0.543554" stroke-linecap="round" stroke-linejoin="round"/>
<path d="M77.1848 53.812L86.6913 54.1326L89.1428 64.1552C89.1428 64.1552 85.2583 66.3894 81.9669 66.3118C77.0693 66.198 77.1848 53.812 77.1848 53.812Z" fill="#FFD07F"/>
<path d="M66.5935 95.5577C66.5935 95.5577 67.3068 95.8015 67.9276 95.9571C68.5483 96.1128 69.2562 96.1439 68.9622 95.4955C68.6681 94.8471 67.0183 94.0379 65.3248 94.2869C63.6314 94.5358 63.0869 94.6811 63.0869 94.6811L60.0757 94.9923L51.0695 82.9319L54.1895 75.0732L46.1089 69.5747C44.205 73.6975 42.6411 77.9553 41.4315 82.3094C39.7436 88.7468 56.1334 98.8153 56.1334 98.8153C56.9998 99.6024 58.0809 100.142 59.2535 100.372C60.5996 100.594 61.9741 100.613 63.3265 100.429H63.3591L63.5061 100.403L63.7566 100.366L65.7169 100.06C65.7169 100.06 66.4356 100.309 67.0509 100.465C67.6662 100.621 68.385 100.646 68.091 99.998C67.835 99.4326 66.55 98.7531 65.107 98.7479L66.1307 98.5871C66.1307 98.5871 66.844 98.8361 67.4648 98.9865C68.0855 99.1369 68.7934 99.1733 68.5048 98.5249C68.2162 97.8764 66.6099 97.1035 64.9546 97.311L66.4193 97.0828C66.4193 97.0828 67.1326 97.3266 67.7533 97.4822C68.3741 97.6378 69.082 97.6689 68.7934 97.0205C68.5048 96.3721 66.844 95.5629 65.1506 95.8119C64.5516 95.9001 64.0942 95.9779 63.7566 96.035V95.9831L66.5935 95.5577Z" fill="#FFA78C"/>
<path d="M54.5261 57.7377C54.5261 57.7377 47.7717 62.3818 45.1143 70.2459L54.9469 76.0975C54.9469 76.0975 59.2376 70.3801 60.6217 66.1281C62.0058 61.8761 57.4549 56.7624 54.5261 57.7377Z" fill="#FFD07F"/>
<path d="M60.334 54.4941C60.334 54.4941 63.8765 56.6801 69.7573 56.5213C75.638 56.3625 77.1842 53.9437 77.1842 53.9437L74.5313 52.991L65.9543 52.1812L60.334 54.4941Z" fill="#FFA78C"/>
<path d="M57.6162 71.7495C58.7945 69.1616 59.5287 66.4084 59.7904 63.5962" stroke="#BF6D60" stroke-width="0.543554" stroke-linecap="round" stroke-linejoin="round"/>
<path d="M82.0762 58.1606C82.0762 58.1606 84.9972 64.0327 84.7827 66.314" stroke="#BF6D60" stroke-width="0.543554" stroke-linecap="round" stroke-linejoin="round"/>
<path d="M80.9885 78.8154L74.4658 80.4461" stroke="#BF6D60" stroke-width="0.543554" stroke-linecap="round" stroke-linejoin="round"/>
<path d="M61.9639 80.9897L63.051 81.8866L61.9639 82.6204" stroke="#BF6D60" stroke-width="0.543554" stroke-linecap="round" stroke-linejoin="round"/>
<path d="M60.877 56.3769C60.877 56.3769 67.7025 58.3591 72.4673 57.3097C77.232 56.2603 78.2707 54.8984 78.2707 54.8984" stroke="#BF6D60" stroke-width="0.543554" stroke-linecap="round" stroke-linejoin="round"/>
<path d="M51.0935 83.1641C49.801 83.7821 48.3035 84.1565 46.7451 84.2512" stroke="#BF6D60" stroke-width="0.543554" stroke-linecap="round" stroke-linejoin="round"/>
<path d="M91.3164 53.812C92.8982 54.4971 94.5349 55.0427 96.2084 55.4427" stroke="#BF6D60" stroke-width="0.543554" stroke-linecap="round" stroke-linejoin="round"/>
<path d="M66.3125 147.847C67.0592 148.56 67.9016 148.934 68.7585 148.934C69.6154 148.934 70.4578 148.56 71.2045 147.847" stroke="#004560" stroke-width="0.543554" stroke-linecap="round" stroke-linejoin="round"/>
<path d="M93.49 147.245C93.49 147.245 90.5894 147.669 89.1416 146.215" stroke="#004560" stroke-width="0.543554" stroke-linecap="round" stroke-linejoin="round"/>
<path d="M81.5332 145.673L84.251 146.76" stroke="#004560" stroke-width="0.543554" stroke-linecap="round" stroke-linejoin="round"/>
<path d="M60.334 147.847L61.9646 149.478" stroke="#004560" stroke-width="0.543554" stroke-linecap="round" stroke-linejoin="round"/>
<path d="M74.4658 112.515C74.4658 112.515 75.0785 106.589 76.8372 104.423C77.9065 103.12 79.3511 102.153 80.9885 101.644" stroke="#004560" stroke-width="0.543554" stroke-linecap="round" stroke-linejoin="round"/>
<path d="M64.1387 192.418C64.1387 192.418 67.5433 192.696 72.2539 192.874C74.6181 192.991 76.994 192.991 79.3582 192.874" stroke="#004560" stroke-width="0.543554" stroke-linecap="round" stroke-linejoin="round"/>
<path d="M90.2295 192.418C90.2295 192.418 98.4213 193.013 101.526 192.958C103.394 192.927 105.254 192.746 107.08 192.418" stroke="#004560" stroke-width="0.543554" stroke-linecap="round" stroke-linejoin="round"/>
<path d="M66.3123 179.372C66.3123 179.372 60.9998 159.8 62.1187 151.651" stroke="#004560" stroke-width="0.543554" stroke-linecap="round" stroke-linejoin="round"/>
<path d="M76.0977 107.08C76.0977 107.08 83.0299 141.655 83.1639 145.128" stroke="#004560" stroke-width="0.543554" stroke-linecap="round" stroke-linejoin="round"/>
<path d="M84.25 148.934C84.25 148.934 85.105 170.387 91.3162 179.373" stroke="#004560" stroke-width="0.543554" stroke-linecap="round" stroke-linejoin="round"/>
<path d="M57.0723 29.895C58.5193 29.895 59.9737 29.895 61.4207 29.895" stroke="#004560" stroke-width="0.543554" stroke-linecap="round" stroke-linejoin="round"/>
<path d="M74.1752 28.8086C74.472 29.5752 74.5434 30.402 74.3819 31.203C74.2204 32.0041 73.8319 32.7502 73.2568 33.3639C71.2605 35.5953 67.0204 35.4158 65.8985 38.3603C65.8985 38.3603 66.5804 42.1358 64.1387 42.3974" stroke="#004560" stroke-width="0.543554" stroke-linecap="round" stroke-linejoin="round"/>
<path d="M64.6826 37.5059C64.6826 37.5059 64.7185 35.6854 65.2262 34.7881" stroke="#004560" stroke-width="0.543554" stroke-linecap="round" stroke-linejoin="round"/>
<path d="M78.8145 30.439L80.4451 30.9825" stroke="#004560" stroke-width="0.543554" stroke-linecap="round" stroke-linejoin="round"/>
<path d="M55.9854 40.2236C55.9854 41.3078 55.9854 42.4008 55.9854 43.485" stroke="#004560" stroke-width="0.543554" stroke-linecap="round" stroke-linejoin="round"/>
<path d="M58.1602 46.2017C58.1602 46.7441 58.1602 47.2899 58.1602 47.8323" stroke="#004560" stroke-width="0.543554" stroke-linecap="round" stroke-linejoin="round"/>
<path d="M61.9639 46.7456V47.8327" stroke="#004560" stroke-width="0.543554" stroke-linecap="round" stroke-linejoin="round"/>
<path d="M74.4658 25.5474C74.4658 25.5474 76.3429 26.167 77.1836 27.178" stroke="#004560" stroke-width="0.543554" stroke-linecap="round" stroke-linejoin="round"/>
<path d="M79.9014 45.6592V46.7463" stroke="#004560" stroke-width="0.543554" stroke-linecap="round" stroke-linejoin="round"/>
<path d="M58.1598 32.6133C57.6831 33.4847 57.5169 34.4133 57.6732 35.3311" stroke="#004560" stroke-width="0.543554" stroke-linecap="round" stroke-linejoin="round"/>
<path d="M69.0309 28.2646C68.9926 28.8388 68.8065 29.397 68.4873 29.8953" stroke="#004560" stroke-width="0.543554" stroke-linecap="round" stroke-linejoin="round"/>
<path d="M60.877 27.178C61.8095 26.4206 62.9251 25.8628 64.1383 25.5474" stroke="#004560" stroke-width="0.543554" stroke-linecap="round" stroke-linejoin="round"/>
<path d="M106.314 0H84.4712C83.2592 0 82.0968 0.457163 81.2398 1.27092C80.3828 2.08468 79.9014 3.18837 79.9014 4.3392V20.2651C79.9014 21.4164 80.3826 22.5206 81.2395 23.3352C82.0964 24.1498 83.2587 24.6081 84.4712 24.6094H91.6688L90.9343 27.6211C90.8916 27.8104 90.9087 28.0075 90.9837 28.1875C91.0586 28.3676 91.1879 28.5226 91.3554 28.633C91.5229 28.7435 91.721 28.8044 91.9249 28.8082C92.1288 28.8119 92.3292 28.7584 92.5011 28.6542L99.0295 24.5991H106.314C107.527 24.5977 108.689 24.1394 109.546 23.3249C110.403 22.5103 110.884 21.4061 110.884 20.2548V4.32887C110.881 3.17983 110.398 2.07879 109.542 1.26727C108.685 0.455742 107.524 -3.2569e-06 106.314 0Z" fill="#FF9400"/>
<path d="M90.798 7.28928C90.5343 7.16522 90.3027 6.98678 90.1196 6.76678C89.9364 6.54677 89.8065 6.29065 89.7389 6.01681C89.6713 5.74297 89.6679 5.4582 89.7288 5.18293C89.7897 4.90767 89.9135 4.64873 90.0912 4.42473C91.0045 3.30495 92.6354 2.14871 95.446 2.17475C99.0394 2.21121 102.22 4.48723 102.187 7.72157C102.187 9.96634 100.404 11.3257 98.0989 12.2476C97.278 12.5809 97.2509 13.2267 97.24 13.9819C97.2393 14.1508 97.2036 14.3179 97.135 14.4735C97.0664 14.6291 96.9662 14.7701 96.8403 14.8883C96.7144 15.0065 96.5652 15.0996 96.4015 15.1621C96.2377 15.2247 96.0626 15.2555 95.8864 15.2527H94.6197C94.4408 15.2521 94.2639 15.2172 94.0994 15.1499C93.9348 15.0826 93.7861 14.9844 93.6619 14.861C93.5377 14.7377 93.4406 14.5917 93.3764 14.4317C93.3121 14.2718 93.282 14.1011 93.2878 13.9298V12.7163C93.2878 11.7059 93.353 10.8778 94.4403 10.2268C95.9081 9.34134 97.2726 9.28926 97.2889 7.65907C97.2992 7.4123 97.2571 7.16609 97.1651 6.93539C97.0731 6.70469 96.9331 6.4943 96.7536 6.31701C96.5742 6.13972 96.359 5.99921 96.1211 5.90402C95.8833 5.80883 95.6277 5.76094 95.3699 5.76325C94.9581 5.75897 94.551 5.84776 94.1817 6.02241C93.8124 6.19706 93.4912 6.45265 93.2443 6.76845C92.9588 7.10843 92.5611 7.34522 92.1165 7.43988C91.6719 7.53454 91.2069 7.48142 90.798 7.28928ZM97.9576 19.1954C97.9458 19.7079 97.7765 20.2056 97.4707 20.6263C97.165 21.0469 96.7365 21.3717 96.2389 21.5601C95.7413 21.7484 95.1967 21.7919 94.6735 21.685C94.1502 21.5782 93.6714 21.3258 93.2973 20.9594C92.9231 20.593 92.6701 20.129 92.57 19.6255C92.4698 19.1219 92.527 18.6013 92.7344 18.1288C92.9418 17.6563 93.2901 17.2529 93.7357 16.9692C94.1813 16.6855 94.7044 16.5341 95.2395 16.534C95.6001 16.5339 95.9571 16.6026 96.2898 16.7361C96.6224 16.8696 96.924 17.0651 97.177 17.3114C97.43 17.5576 97.6293 17.8497 97.7633 18.1704C97.8973 18.4912 97.9634 18.8343 97.9576 19.1798V19.1954Z" fill="white"/>
</svg>
