<svg width="193" height="162" viewBox="0 0 193 162" fill="none" xmlns="http://www.w3.org/2000/svg">
<path d="M192.837 40.9424L70.6636 111.219V160.868L192.837 90.5916V40.9424Z" fill="#FFA543"/>
<path d="M75.3662 108.645L74.6816 109.047V158.696L75.3662 158.294V108.645Z" fill="#ED8E2F"/>
<path d="M80.0842 105.654L79.3848 106.056V155.705L80.0842 155.303V105.654Z" fill="#ED8E2F"/>
<path d="M84.6682 103.049L83.9688 103.451V153.1L84.6682 152.699V103.049Z" fill="#ED8E2F"/>
<path d="M89.3719 100.058L88.6724 100.46V150.109L89.3719 149.707V100.058Z" fill="#ED8E2F"/>
<path d="M93.6433 98.8228L92.9438 99.2246V148.874L93.6433 148.472V98.8228Z" fill="#ED8E2F"/>
<path d="M98.3455 95.8301L97.646 96.2319V145.881L98.3455 145.479V95.8301Z" fill="#ED8E2F"/>
<path d="M102.93 93.2256L102.246 93.6274V143.277L102.93 142.875V93.2256Z" fill="#ED8E2F"/>
<path d="M107.632 90.2344L106.948 90.6362V140.285L107.632 139.884V90.2344Z" fill="#ED8E2F"/>
<path d="M112.113 87.4961L111.428 87.8979V137.547L112.113 137.145V87.4961Z" fill="#ED8E2F"/>
<path d="M116.816 84.4893L116.131 84.8911V134.54L116.816 134.153V84.4893Z" fill="#ED8E2F"/>
<path d="M121.414 81.9009L120.715 82.3027V131.952L121.414 131.55V81.9009Z" fill="#ED8E2F"/>
<path d="M126.117 78.9082L125.418 79.31V128.959L126.117 128.557V78.9082Z" fill="#ED8E2F"/>
<path d="M130.388 77.6743L129.688 78.0762V126.192L130.388 125.791V77.6743Z" fill="#ED8E2F"/>
<path d="M135.091 74.667L134.392 75.0688V123.602L135.091 123.2V74.667Z" fill="#ED8E2F"/>
<path d="M139.676 72.0771L138.976 72.479V121.057L139.676 120.655V72.0771Z" fill="#ED8E2F"/>
<path d="M144.378 69.0859L143.694 69.4878V118.259L144.378 117.857V69.0859Z" fill="#ED8E2F"/>
<path d="M149.141 66.0806L148.442 66.4824V116.132L149.141 115.73V66.0806Z" fill="#ED8E2F"/>
<path d="M153.844 63.0879L153.145 63.4897V113.139L153.844 112.737V63.0879Z" fill="#ED8E2F"/>
<path d="M158.428 60.4995L157.729 60.8865V110.536L158.428 110.134V60.4995Z" fill="#ED8E2F"/>
<path d="M163.13 57.4922L162.431 57.894V107.543L163.13 107.141V57.4922Z" fill="#ED8E2F"/>
<path d="M167.402 56.2568L166.703 56.6587V106.308L167.402 105.906V56.2568Z" fill="#ED8E2F"/>
<path d="M172.105 101.352V53.2656L171.406 53.6675V101.828L172.105 101.352Z" fill="#ED8E2F"/>
<path d="M176.689 99.1643V50.6016L176.004 51.0034V99.3727L176.689 99.1643Z" fill="#ED8E2F"/>
<path d="M181.392 47.6704L180.708 48.0722V97.7214L181.392 97.3196V47.6704Z" fill="#ED8E2F"/>
<path d="M185.574 45.7939L184.875 46.1958V95.845L185.574 95.4431V45.7939Z" fill="#ED8E2F"/>
<path d="M190.277 42.8027L189.578 43.2046V92.8538L190.277 92.4519V42.8027Z" fill="#ED8E2F"/>
<path d="M0 70.3809V120.03L70.6638 160.869V111.219L0 70.3809Z" fill="#FFBA76"/>
<path d="M65.3652 107.052L66.0498 107.454V157.103L65.3652 156.701V107.052Z" fill="#FFA543"/>
<path d="M60.6621 104.061L61.3467 104.462V154.112L60.6621 153.71V104.061Z" fill="#FFA543"/>
<path d="M56.0635 101.456L56.763 101.858V151.507L56.0635 151.105V101.456Z" fill="#FFA543"/>
<path d="M51.3604 98.4653L52.0598 98.8672V148.516L51.3604 148.115V98.4653Z" fill="#FFA543"/>
<path d="M47.0889 97.23L47.7884 97.6318V147.281L47.0889 146.879V97.23Z" fill="#FFA543"/>
<path d="M42.3862 94.2388L43.0857 94.6406V144.29L42.3862 143.888V94.2388Z" fill="#FFA543"/>
<path d="M37.8022 91.6343L38.5017 92.0361V141.685L37.8022 141.283V91.6343Z" fill="#FFA543"/>
<path d="M32.7422 88.6416L33.4417 89.0434V138.693L32.7422 138.291V88.6416Z" fill="#FFA543"/>
<path d="M27.7861 85.8003L28.4856 86.1872V135.836L27.7861 135.449V85.8003Z" fill="#FFA543"/>
<path d="M23.083 82.793L23.7825 83.1948V132.844L23.083 132.442V82.793Z" fill="#FFA543"/>
<path d="M18.499 80.2031L19.1985 80.605V130.254L18.499 129.852V80.2031Z" fill="#FFA543"/>
<path d="M13.7964 77.1978L14.4959 77.5996V127.249L13.7964 126.847V77.1978Z" fill="#FFA543"/>
<path d="M9.5249 75.9766L10.2244 76.3635V126.013L9.5249 125.626V75.9766Z" fill="#FFA543"/>
<path d="M4.82227 72.9712L5.50686 73.373V123.022L4.82227 122.62V72.9712Z" fill="#FFA543"/>
<path d="M0 117.976V121.161L70.6638 161.999V158.814L0 117.976Z" fill="#CCCCCC"/>
<path d="M192.837 88.3599V91.5597L180.231 98.7927L179.576 98.4207L171.495 103.079V103.853L151.85 115.194L151.21 114.643L138.44 122.025V122.918L135.761 124.421L135.121 123.841L122.352 131.222V132.16L70.6636 162V158.815L192.837 88.3599Z" fill="#A8A8A8"/>
<path d="M0 70.3809V74.3843L70.6638 115.223V111.219L0 70.3809Z" fill="#CCCCCC"/>
<path d="M192.837 40.9424V44.9459L70.6636 115.223V111.219L192.837 40.9424Z" fill="#A8A8A8"/>
<path d="M192.837 40.9427L122.01 0L0 70.381L70.8275 111.324L192.837 40.9427Z" fill="#E2E2E2"/>
<path d="M184.651 42.729L187.747 40.9431L122.009 2.76855L4.91113 70.3813L8.02164 72.1822L122.009 6.3702L184.651 42.729Z" fill="#B5B5B5"/>
<path d="M184.651 42.7289L122.009 6.37012L8.02148 72.1821L70.6634 108.541L184.651 42.7289Z" fill="#CCCCCC"/>
<path d="M122.01 2.76855V6.3702L184.652 42.729L187.747 40.9431L122.01 2.76855Z" fill="#A8A8A8"/>
<path d="M70.6639 129.704L34.0967 108.645V130.359L70.6639 151.523V129.704Z" fill="white"/>
<path d="M70.6635 130.999L35.1084 110.446V129.689L70.6635 150.243V130.999Z" fill="#9B9B9B"/>
<path d="M40.3025 112.678L39.5137 112.232V133.068L40.3025 133.514V112.678Z" fill="white"/>
<path d="M45.6604 115.818L44.8716 115.371V136.162L45.6604 136.609V115.818Z" fill="white"/>
<path d="M51.1372 118.929L50.3633 118.483V139.259L51.1372 139.706V118.929Z" fill="white"/>
<path d="M56.4951 121.905L55.7212 121.443V142.354L56.4951 142.8V121.905Z" fill="white"/>
<path d="M61.2876 124.673L60.5137 124.227V145.316L61.2876 145.777V124.673Z" fill="white"/>
<path d="M66.645 127.962L65.8711 127.516V148.426L66.645 148.873V127.962Z" fill="white"/>
<path d="M70.6635 144.453L34.3643 123.439V122.471L70.6635 143.486V144.453Z" fill="white"/>
<path d="M70.6635 137.562L34.3643 116.548V115.595L70.6635 136.61V137.562Z" fill="white"/>
<path d="M70.6636 129.704L107.231 108.645V130.359L70.6636 151.523V129.704Z" fill="white"/>
<path d="M70.6636 130.999L106.219 110.446V129.689L70.6636 150.243V130.999Z" fill="#7C7C7C"/>
<path d="M101.024 112.678L101.813 112.232V133.068L101.024 133.514V112.678Z" fill="white"/>
<path d="M95.6675 115.818L96.4563 115.371V136.162L95.6675 136.609V115.818Z" fill="white"/>
<path d="M90.1895 118.929L90.9634 118.483V139.259L90.1895 139.706V118.929Z" fill="white"/>
<path d="M84.832 121.905L85.606 121.443V142.354L84.832 142.8V121.905Z" fill="white"/>
<path d="M80.0405 124.673L80.8145 124.227V145.316L80.0405 145.777V124.673Z" fill="white"/>
<path d="M74.6816 127.962L75.4555 127.516V148.426L74.6816 148.873V127.962Z" fill="white"/>
<path d="M70.6636 144.453L106.963 123.439V122.471L70.6636 143.486V144.453Z" fill="white"/>
<path d="M70.6636 137.562L106.963 116.548V115.595L70.6636 136.61V137.562Z" fill="white"/>
<path d="M171.495 81.8255V103.078L179.71 98.3306V77.0928L171.495 81.8255Z" fill="#5B5B5B"/>
<path d="M180.232 76.7803V98.792L179.577 98.4199V77.1523L180.232 76.7803Z" fill="#7C7C7C"/>
<path d="M179.1 90.756L178.624 91.0387V88.211L179.1 87.9282V90.756Z" fill="white"/>
<path d="M174.695 73.253L177.686 71.5266V69.9639L174.695 71.6903V73.253Z" fill="white"/>
<path d="M174.695 73.2528L173.817 72.7766V71.2139L174.695 71.6901V73.2528Z" fill="#C1C1C1"/>
<path d="M177.686 69.965L174.695 71.6914L173.817 71.2152L176.868 69.4888L177.686 69.965Z" fill="#D3D3D3"/>
<path d="M143.322 91.2911L146.313 89.5498V88.002L143.322 89.7284V91.2911Z" fill="white"/>
<path d="M143.322 91.2909L142.444 90.8147V89.252L143.322 89.7282V91.2909Z" fill="#C1C1C1"/>
<path d="M146.313 88.0016L143.322 89.7281L142.444 89.2518L145.48 87.5254L146.313 88.0016Z" fill="#D3D3D3"/>
<path d="M126.996 100.355L129.987 98.6281V97.0654L126.996 98.7918V100.355Z" fill="white"/>
<path d="M126.996 100.354L126.118 99.8781V98.3154L126.996 98.7917V100.354Z" fill="#C1C1C1"/>
<path d="M129.987 97.0666L126.996 98.793L126.118 98.3167L129.154 96.5903L129.987 97.0666Z" fill="#D3D3D3"/>
<path d="M14.9426 94.4175L11.9512 92.6762V91.1284L14.9426 92.8548V94.4175Z" fill="white"/>
<path d="M14.9424 94.4174L15.8205 93.9411V92.3784L14.9424 92.8547V94.4174Z" fill="#C1C1C1"/>
<path d="M11.9512 91.1281L14.9426 92.8545L15.8207 92.3783L12.7847 90.6519L11.9512 91.1281Z" fill="#D3D3D3"/>
<path d="M55.364 117.47L52.3726 115.743V114.181L55.364 115.907V117.47Z" fill="white"/>
<path d="M55.3643 117.47L56.2423 116.993V115.431L55.3643 115.907V117.47Z" fill="#C1C1C1"/>
<path d="M52.3726 114.182L55.364 115.908L56.2421 115.432L53.206 113.706L52.3726 114.182Z" fill="#D3D3D3"/>
<path d="M122.352 106.233V131.222L135.122 123.84V98.8516L122.352 106.233Z" fill="#D3D3D3"/>
<path d="M135.761 98.4795V124.42L134.957 123.944V98.9409L135.761 98.4795Z" fill="#7C7C7C"/>
<path d="M122.352 113.526V114.27L134.958 106.992V106.248L122.352 113.526Z" fill="#AAAAAA"/>
<path d="M122.352 115.968V116.712L134.958 109.434V108.69L122.352 115.968Z" fill="#AAAAAA"/>
<path d="M122.352 118.408V119.152L134.958 111.875V111.13L122.352 118.408Z" fill="#AAAAAA"/>
<path d="M122.352 108.645V109.404L134.958 102.112V101.368L122.352 108.645Z" fill="#AAAAAA"/>
<path d="M122.352 111.086V111.83L134.958 104.552V103.808L122.352 111.086Z" fill="#AAAAAA"/>
<path d="M122.352 120.833V121.592L134.958 114.3V113.556L122.352 120.833Z" fill="#AAAAAA"/>
<path d="M122.352 123.275V124.019L134.958 116.742V115.998L122.352 123.275Z" fill="#AAAAAA"/>
<path d="M122.352 125.716V126.46L134.958 119.182V118.438L122.352 125.716Z" fill="#AAAAAA"/>
<path d="M122.352 128.156V128.9L134.958 121.622V120.878L122.352 128.156Z" fill="#AAAAAA"/>
<path d="M138.44 97.0367V122.025L151.21 114.643V89.6548L138.44 97.0367Z" fill="#D3D3D3"/>
<path d="M151.85 89.2681V115.224L151.046 114.748V89.7443L151.85 89.2681Z" fill="#7C7C7C"/>
<path d="M138.44 104.328V105.073L151.046 97.7949V97.0508L138.44 104.328Z" fill="#AAAAAA"/>
<path d="M138.44 106.769V107.513L151.046 100.235V99.4912L138.44 106.769Z" fill="#AAAAAA"/>
<path d="M138.44 109.211V109.955L151.046 102.677V101.918L138.44 109.211Z" fill="#AAAAAA"/>
<path d="M138.44 99.4467V100.206L151.046 92.9131V92.1689L138.44 99.4467Z" fill="#AAAAAA"/>
<path d="M138.44 101.889V102.648L151.046 95.355V94.6108L138.44 101.889Z" fill="#AAAAAA"/>
<path d="M138.44 111.637V112.396L151.046 105.103V104.359L138.44 111.637Z" fill="#AAAAAA"/>
<path d="M138.44 114.077V114.821L151.046 107.543V106.799L138.44 114.077Z" fill="#AAAAAA"/>
<path d="M138.44 116.518V117.263L151.046 109.985V109.241L138.44 116.518Z" fill="#AAAAAA"/>
<path d="M138.44 118.959V119.703L151.046 112.425V111.681L138.44 118.959Z" fill="#AAAAAA"/>
<path d="M28.5601 70.7078L37.8618 76.0805L43.6364 72.7467L34.3346 67.374L28.5601 70.7078Z" fill="#E4E4E4"/>
<path d="M37.8618 79.9203L43.6364 76.5568V72.7021L37.8618 76.0806V79.9203Z" fill="#A8A8A8"/>
<path d="M37.8618 79.9205L28.5601 74.5478V70.708L37.8618 76.0807V79.9205Z" fill="#969696"/>
<path d="M41.1509 63.49L50.4378 68.8627L56.2123 65.529L46.9105 60.1562L41.1509 63.49Z" fill="#E4E4E4"/>
<path d="M50.4375 72.7026L56.2121 69.339V65.4844L50.4375 68.8628V72.7026Z" fill="#A8A8A8"/>
<path d="M50.4378 72.7027L41.1509 67.3449V63.4902L50.4378 68.8629V72.7027Z" fill="#969696"/>
<path d="M89.8773 39.6925L88.8354 39.0674L121.741 20.0322L133.038 26.7295L131.996 27.3397L121.741 21.2675L89.8773 39.6925Z" fill="#A8A8A8"/>
<path d="M91.5736 40.6897L89.877 39.6925L121.741 21.2676L131.995 27.3398L128.483 29.3638L119.955 24.2739L91.5736 40.6897Z" fill="#848484"/>
<path d="M91.5747 40.6892L119.956 24.2734L128.484 29.3634L100.132 45.7643L91.5747 40.6892Z" fill="#9B9B9B"/>
<path d="M109.062 23.7837L128.484 35.0054V36.3597L109.062 25.138V23.7837Z" fill="#CCCCCC"/>
<path d="M97.4375 30.584L117.381 42.0884V43.4428L97.4375 31.9383V30.584Z" fill="#CCCCCC"/>
<path d="M110.982 27.4736L121.37 33.4862L122.442 32.8612L110.982 26.2383V27.4736Z" fill="#A8A8A8"/>
<path d="M99.2979 34.245L109.671 40.2428L110.758 39.6178L99.2979 33.0098V34.245Z" fill="#A8A8A8"/>
<path d="M107.901 50.1104L106.844 49.4854L139.75 30.4502L151.061 37.1475L150.005 37.7577L139.75 31.6855L107.901 50.1104Z" fill="#A8A8A8"/>
<path d="M109.583 51.1077L107.901 50.1105L139.75 31.6855L150.004 37.7578L146.492 39.7818L137.964 34.7068L109.583 51.1077Z" fill="#848484"/>
<path d="M109.582 51.1079L137.964 34.707L146.492 39.7821L118.155 56.183L109.582 51.1079Z" fill="#9B9B9B"/>
<path d="M127.084 34.2017L146.491 45.4233V46.7777L127.084 35.5709V34.2017Z" fill="#CCCCCC"/>
<path d="M115.461 41.002L135.39 52.5064V53.8607L115.461 42.3563V41.002Z" fill="#CCCCCC"/>
<path d="M129.004 37.9064L139.377 43.9042L140.464 43.2791L129.004 36.6562V37.9064Z" fill="#A8A8A8"/>
<path d="M117.322 44.6779L127.695 50.6608L128.767 50.0357L117.322 43.4277V44.6779Z" fill="#A8A8A8"/>
<path d="M117.157 94.0898L118.169 93.5094L118.452 96.0395L118.631 97.7659C118.705 97.1111 118.794 96.4413 118.884 95.7865L119.36 92.8099L120.193 92.3337L120.655 94.7596C120.744 95.2953 120.833 95.8758 120.908 96.4413L121.22 94.5066L121.533 91.6193L122.47 91.0835L121.682 97.3045L120.446 98.0189L120.03 95.6377C120.03 95.2358 119.911 94.7893 119.866 94.3875C119.866 94.8489 119.762 95.3549 119.687 95.8758L119.271 98.7333L118.05 99.4328L117.157 94.0898Z" fill="white"/>
<path d="M125.016 93.9847L123.692 94.7437L123.424 96.232L122.412 96.7975L123.811 90.2342L124.971 89.5645L126.326 94.5651L125.284 95.1604L125.016 93.9847ZM124.823 93.0768L124.718 92.6006C124.599 92.0945 124.495 91.4843 124.376 90.9486C124.272 91.6183 124.153 92.4368 124.034 93.0024L123.915 93.5977L124.823 93.0768Z" fill="white"/>
<path d="M129.124 93.0032L128.305 91.3958L127.769 91.7084V93.7622L126.787 94.3278V88.5383L128.35 87.6454C129.273 87.1245 130.032 87.1096 130.017 88.4788C130.022 89.2535 129.747 90.004 129.243 90.5922L130.21 92.3483L129.124 93.0032ZM127.769 90.6666L128.275 90.3838C128.515 90.2561 128.716 90.0651 128.855 89.8316C128.994 89.5981 129.066 89.331 129.064 89.0592C129.064 88.4937 128.796 88.4639 128.275 88.7616L127.784 89.0444L127.769 90.6666Z" fill="white"/>
<path d="M130.895 86.2319L133.618 84.7437V85.845L131.877 86.8273V88.003L133.365 87.1547V88.2411L131.877 89.0894V90.414L133.678 89.3871V90.4884L130.88 92.0809L130.895 86.2319Z" fill="white"/>
<path d="M134.525 84.1481L135.508 83.5826V85.8001L136.996 84.9518V82.7194L137.978 82.1538V87.9432L136.996 88.5088V86.0829L135.508 86.9461V89.2976L134.525 89.8631V84.1481Z" fill="white"/>
<path d="M138.782 84.5646C138.736 83.7665 138.895 82.9697 139.244 82.2506C139.593 81.5314 140.121 80.9138 140.777 80.4569C141.952 79.7872 142.741 80.4569 142.741 82.3024C142.789 83.1069 142.63 83.9102 142.281 84.6366C141.933 85.363 141.404 85.9887 140.747 86.4547C139.586 87.1244 138.782 86.4547 138.782 84.5646ZM141.759 82.8828C141.759 81.7219 141.387 81.2457 140.792 81.588C140.447 81.8778 140.178 82.2478 140.009 82.6655C139.841 83.0833 139.777 83.5361 139.824 83.9841C139.824 85.145 140.196 85.6659 140.777 85.3236C141.124 85.0262 141.392 84.648 141.558 84.2223C141.724 83.7966 141.783 83.3366 141.729 82.8828H141.759Z" fill="white"/>
<path d="M143.545 78.9831L144.527 78.4324V81.662C144.527 82.7931 144.795 83.0312 145.286 82.7633C145.777 82.4954 146.06 81.9299 146.06 80.7839V77.5543L146.998 77.0186V80.1142C147.089 80.8419 146.975 81.5808 146.667 82.2465C146.359 82.9123 145.87 83.4781 145.256 83.8795C144.14 84.5195 143.53 84.0284 143.545 82.0936V78.9831Z" fill="white"/>
<path d="M148.174 80.4861C148.342 80.5719 148.529 80.6151 148.718 80.6122C148.907 80.6092 149.093 80.5601 149.258 80.4692C149.424 80.3782 149.565 80.2482 149.669 80.0903C149.773 79.9325 149.837 79.7516 149.855 79.5634C149.855 79.2062 149.602 79.236 149.23 79.236H148.665C148.218 79.236 147.787 78.9978 147.787 78.1644C147.808 77.6428 147.954 77.134 148.213 76.6808C148.472 76.2275 148.836 75.8431 149.275 75.5599C149.481 75.4185 149.725 75.3428 149.975 75.3428C150.224 75.3428 150.468 75.4185 150.674 75.5599L150.168 76.6612C150.031 76.5857 149.878 76.546 149.721 76.546C149.565 76.546 149.412 76.5857 149.275 76.6612C149.115 76.7412 148.979 76.8615 148.879 77.0103C148.78 77.159 148.722 77.3312 148.709 77.5096C148.709 77.8668 148.992 77.8221 149.379 77.8072H149.93C150.451 77.8072 150.778 78.0751 150.778 78.8788C150.757 79.436 150.596 79.979 150.31 80.4576C150.024 80.9362 149.622 81.3351 149.141 81.6172C148.906 81.775 148.632 81.8666 148.35 81.8823C148.067 81.898 147.785 81.8373 147.534 81.7065L148.174 80.4861Z" fill="white"/>
<path d="M151.597 74.4141L154.32 72.9258V74.0271L152.579 75.0243V76.1851L154.067 75.3368V76.4381L152.579 77.2865V78.611L154.38 77.5692V78.6706L151.597 80.2779V74.4141Z" fill="white"/>
</svg>
