<svg width="180" height="151" viewBox="0 0 180 151" fill="none" xmlns="http://www.w3.org/2000/svg">
<path d="M7.50635 66.8855L120.476 1.61182L128.232 12.009L20.2347 72.6514L7.50635 66.8855Z" fill="#9B9B9B"/>
<path d="M38.3877 81.5572L66.7973 129.145L180.001 57.8722L158.383 16.1592L38.3877 81.5572Z" fill="#9B9B9B"/>
<path d="M66.7967 150.763V122.789C66.7967 106.952 57.0834 88.3645 45.1942 81.4952L21.6025 67.9742C9.71334 61.105 0 68.456 0 84.3082V112.283L5.20634 115.251L6.06112 114.754L28.5184 127.731V128.756L37.2682 133.776L37.952 133.17L60.5802 146.272V147.251L66.7967 150.763Z" fill="#A5A5A5"/>
<path d="M66.7967 150.763V122.789C66.7967 106.952 57.0834 88.3645 45.1942 81.4952L21.6025 67.9742C9.71334 61.105 0 68.456 0 84.3082V112.283L5.20634 115.251L6.06112 114.754L28.5184 127.731V128.756L37.2682 133.776L37.952 133.17L60.5802 146.272V147.251L66.7967 150.763Z" fill="#F78181"/>
<path d="M180 85.3646V57.3902C180 41.5535 170.271 22.9661 158.382 16.0968L134.837 2.57581C122.963 -4.29347 113.234 3.05759 113.234 18.9098V46.8842L180 85.3646Z" fill="#9B9B9B"/>
<path d="M180 57.8721L66.7969 123.301V150.763L93.1861 135.517V134.522L103.832 128.352L104.516 128.958L180 85.3492V57.8721Z" fill="#8C8C8C"/>
<path d="M158.381 16.1583L45.1936 81.5564L21.6484 67.9732L134.836 2.5752L158.381 16.1583Z" fill="#9B9B9B"/>
<path d="M53.5556 76.6609L30.0104 63.0777C24.8663 60.1093 20.1261 59.7985 16.4118 61.6945C15.9956 61.9026 15.5956 62.1416 15.2151 62.4094L15.0752 62.5027C18.774 60.6688 23.4675 60.9485 28.5651 63.9325L52.0947 77.5156C63.9528 84.4315 73.6817 103.081 73.6817 118.871V146.846L75.1581 145.975V118.001C75.1581 102.164 65.4447 83.5768 53.5556 76.6609Z" fill="#7C7C7C"/>
<path d="M61.5434 72.1388L38.0138 58.5401C32.854 55.5717 28.1295 55.2609 24.3995 57.1569C23.9917 57.3711 23.5972 57.6098 23.2184 57.8718L23.063 57.9651C26.7618 56.1312 31.4553 56.4109 36.5529 59.3949L60.098 72.9936C71.9872 79.8473 81.7005 98.4348 81.7005 114.287V142.261L83.2547 141.391V113.417C83.1614 97.58 73.4325 78.9925 61.5434 72.1388Z" fill="#7C7C7C"/>
<path d="M69.7802 67.3364L46.235 53.7533C41.0909 50.7693 36.3507 50.474 32.6364 52.3701C32.2253 52.5784 31.8304 52.8174 31.4552 53.085L31.2998 53.1782C34.9986 51.3444 39.6921 51.6241 44.7897 54.6081L68.3349 68.1912C80.224 75.1071 89.984 93.7567 89.984 109.531V137.506L91.5381 136.635V108.661C91.4293 92.8087 81.7004 74.2368 69.7802 67.3364Z" fill="#7C7C7C"/>
<path d="M77.8155 62.7834L54.2393 49.2003C49.0951 46.2319 44.355 45.921 40.6251 47.8171C40.2089 48.0252 39.8089 48.2642 39.4284 48.532L39.2729 48.6252C42.9873 46.7914 47.6808 47.0711 52.7784 50.055L76.308 63.6382C88.1972 70.5075 97.926 89.0949 97.926 104.932V130.777L99.4025 129.907V104.077C99.418 88.2402 89.6891 69.6527 77.8155 62.7834Z" fill="#7C7C7C"/>
<path d="M85.617 58.198L62.0874 44.6148C56.9432 41.6464 52.2031 41.3356 48.4732 43.2316C48.0603 43.4457 47.6606 43.6844 47.2765 43.9465L47.1211 44.0398C50.8355 42.2059 55.5289 42.4857 60.6265 45.4696L84.1561 59.0683C96.0453 65.922 105.774 84.5095 105.774 100.362V128.274L107.328 127.404V99.4292C107.235 83.6547 97.5062 65.0672 85.617 58.198Z" fill="#7C7C7C"/>
<path d="M93.621 53.6278L70.0759 40.0291C64.9317 37.0607 60.1916 36.7654 56.4772 38.6459C56.0663 38.8634 55.6669 39.1021 55.2805 39.3608L55.1406 39.4541C58.8395 37.6202 63.533 37.8999 68.6306 40.8839L92.1757 54.4825C104.049 61.3363 113.778 79.9237 113.778 95.7759V123.75L115.332 122.88V94.9056C115.239 79.069 105.526 60.4815 93.621 53.6278Z" fill="#7C7C7C"/>
<path d="M101.888 48.8581L78.3431 35.275C73.1989 32.3066 68.4587 31.9958 64.7444 33.8918C64.3305 34.1305 63.9356 34.4007 63.5632 34.6999L63.4233 34.7932C67.1222 32.9593 71.8157 33.2391 76.9132 36.223L100.443 49.8061C112.332 56.6754 122.061 75.2629 122.061 91.0995V119.074L123.537 118.204V90.2292C123.491 74.2993 113.777 55.7274 101.888 48.8581Z" fill="#7C7C7C"/>
<path d="M109.877 44.2732L86.3477 30.69C81.2036 27.7216 76.4634 27.4108 72.7335 29.3068C72.3276 29.5245 71.9334 29.7631 71.5524 30.0217L71.397 30.115C75.1114 28.2811 79.8048 28.5608 84.8869 31.5448L108.432 45.1435C120.321 51.9972 130.05 70.5847 130.05 86.4369V114.411L131.526 113.541V85.5665C131.495 69.7299 121.766 51.1424 109.877 44.2732Z" fill="#7C7C7C"/>
<path d="M118.098 39.4709L94.6466 25.8878C89.5024 22.9194 84.7623 22.6085 81.0323 24.5046C80.6212 24.7129 80.2264 24.9519 79.8512 25.2195L79.6958 25.3127C83.4102 23.4789 88.1037 23.7586 93.1857 26.7425L116.731 40.3257C128.62 47.195 138.349 65.7824 138.349 81.6191V109.594L139.825 108.723V80.7488C139.717 64.9121 129.988 46.3402 118.098 39.4709Z" fill="#7C7C7C"/>
<path d="M126.102 34.886L102.557 21.3028C97.4131 18.3344 92.673 18.0236 88.9586 19.9196C88.5424 20.1277 88.1424 20.3667 87.7619 20.6345L87.6221 20.7278C91.3209 18.8939 96.0144 19.1736 101.112 22.1576L124.642 35.7407C136.531 42.61 146.26 61.1975 146.26 77.0341V105.009L147.736 104.138V76.1638C147.705 60.3427 137.992 41.7552 126.102 34.886Z" fill="#7C7C7C"/>
<path d="M134.37 30.131L110.825 16.5323C105.681 13.5639 100.94 13.2686 97.2105 15.1646C96.7943 15.3728 96.3943 15.6117 96.0138 15.8796L95.8584 15.9573C99.5728 14.1389 104.266 14.4031 109.364 17.4026L132.893 30.9858C144.767 37.8084 154.496 56.458 154.496 72.2947V100.269L155.972 99.3833V71.4244C155.972 55.5722 146.243 37.0003 134.37 30.131Z" fill="#7C7C7C"/>
<path d="M142.359 25.5464L118.829 11.9632C113.669 8.9793 108.929 8.68401 105.215 10.5801C104.779 10.8155 104.363 11.0858 103.971 11.3882L103.816 11.4815C107.515 9.64757 112.208 9.92732 117.306 12.9113L140.851 26.4944C152.74 33.3637 162.453 51.9356 162.453 67.7878V95.7622L164.008 94.8919V66.9175C163.977 50.9876 154.248 32.4157 142.359 25.5464Z" fill="#7C7C7C"/>
<path d="M150.238 20.8669L126.709 7.28377C121.564 4.31537 116.824 4.00454 113.094 5.90059C112.688 6.11821 112.294 6.35683 111.913 6.61549L111.742 6.72428C115.457 4.8904 120.15 5.17014 125.232 8.15408L148.777 21.7528C160.666 28.6065 170.395 47.194 170.395 63.0462V90.9429L171.872 90.0726V62.1758C171.856 46.3237 162.127 27.7362 150.238 20.8669Z" fill="#7C7C7C"/>
<path d="M158.241 16.2982L134.696 2.69949C129.552 -0.268908 124.812 -0.564194 121.097 1.31631C120.686 1.53385 120.287 1.77247 119.901 2.03121L119.761 2.12446C123.46 0.290581 128.153 0.570325 133.251 3.55427L156.811 17.1685C168.685 24.0222 178.414 42.6097 178.414 58.4619V86.4363L179.968 85.566V57.5916C179.859 41.7394 170.13 23.1519 158.241 16.2982Z" fill="#7C7C7C"/>
<path d="M5.93652 114.583L28.5647 127.669V101.575L5.93652 88.4888V114.583Z" fill="#D3D3D3"/>
<path d="M5.25293 88.0835V115.188L6.10771 114.69V88.5808L5.25293 88.0835Z" fill="#7C7C7C"/>
<path d="M6.10742 96.2124V96.9895L28.5647 109.967V109.189L6.10742 96.2124Z" fill="#AAAAAA"/>
<path d="M6.10742 98.7603V99.5373L28.5647 112.514V111.722L6.10742 98.7603Z" fill="#AAAAAA"/>
<path d="M6.10742 101.311V102.088L28.5647 115.065V114.272L6.10742 101.311Z" fill="#AAAAAA"/>
<path d="M6.10742 91.1143V91.8913L28.5647 104.884V104.091L6.10742 91.1143Z" fill="#AAAAAA"/>
<path d="M6.10742 93.6641V94.4411L28.5647 107.418V106.641L6.10742 93.6641Z" fill="#AAAAAA"/>
<path d="M6.10742 103.843V104.62L28.5647 117.597V116.82L6.10742 103.843Z" fill="#AAAAAA"/>
<path d="M6.10742 106.392V107.169L28.5647 120.146V119.369L6.10742 106.392Z" fill="#AAAAAA"/>
<path d="M6.10742 108.94V109.717L28.5647 122.694V121.917L6.10742 108.94Z" fill="#AAAAAA"/>
<path d="M6.10742 111.49V112.267L28.5647 125.244V124.451L6.10742 111.49Z" fill="#AAAAAA"/>
<path d="M37.999 133.108L60.6272 146.209V120.1L37.999 107.029V133.108Z" fill="#D3D3D3"/>
<path d="M37.3145 106.625V133.714L38.1692 133.216V107.122L37.3145 106.625Z" fill="#7C7C7C"/>
<path d="M38.1689 114.737V115.514L60.6262 128.507V127.714L38.1689 114.737Z" fill="#AAAAAA"/>
<path d="M38.1689 117.286V118.063L60.6262 131.04V130.263L38.1689 117.286Z" fill="#AAAAAA"/>
<path d="M38.1689 119.835V120.613L60.6262 133.59V132.812L38.1689 119.835Z" fill="#AAAAAA"/>
<path d="M38.1689 109.656V110.433L60.6262 123.41V122.633L38.1689 109.656Z" fill="#AAAAAA"/>
<path d="M38.1689 112.189V112.982L60.6262 125.959V125.166L38.1689 112.189Z" fill="#AAAAAA"/>
<path d="M38.1689 122.383V123.16L60.6262 136.137V135.36L38.1689 122.383Z" fill="#AAAAAA"/>
<path d="M38.1689 124.917V125.709L60.6262 138.686V137.894L38.1689 124.917Z" fill="#AAAAAA"/>
<path d="M38.1689 127.467V128.244L60.6262 141.236V140.444L38.1689 127.467Z" fill="#AAAAAA"/>
<path d="M38.1689 130.015V130.792L60.6262 143.769V142.992L38.1689 130.015Z" fill="#AAAAAA"/>
<path d="M93.186 106.952V134.522L103.832 128.352V100.797L93.186 106.952Z" fill="#CF5353"/>
<path d="M104.516 100.392V128.957L103.661 128.46V100.889L104.516 100.392Z" fill="#7C7C7C"/>
<path d="M39.9875 96.7249L29.6836 90.7881V79.4429L39.9875 85.3952V96.7249Z" fill="#7C7C7C"/>
<path d="M30.1504 80.4072V90.4314L39.4752 95.8087V85.7845L30.1504 80.4072Z" fill="white"/>
<path d="M30.166 88.7056V89.2495L39.5064 94.7045V94.0984L30.166 88.7056Z" fill="#7C7C7C"/>
<path d="M30.166 86.8872V87.4467L39.5064 92.8395V92.2801L30.166 86.8872Z" fill="#7C7C7C"/>
<path d="M30.166 85.147V85.6909L39.5064 91.0838V90.5243L30.166 85.147Z" fill="#7C7C7C"/>
<path d="M30.166 83.3286V83.8881L39.5064 89.281V88.7215L30.166 83.3286Z" fill="#7C7C7C"/>
<path d="M30.166 81.4629V82.0224L39.5064 87.4152V86.8557L30.166 81.4629Z" fill="#7C7C7C"/>
<path d="M102.884 118.622L102.386 118.902V115.949L102.884 115.669V118.622Z" fill="white"/>
</svg>
