<svg width="152" height="127" viewBox="0 0 152 127" fill="none" xmlns="http://www.w3.org/2000/svg">
<path d="M151.975 37.5908L61.1094 90.1164V126.248L151.975 73.7349V37.5908Z" fill="#8A9AD0"/>
<path d="M0 54.7339V90.8655L6.48772 94.5835L7.16144 94.1842L25.2023 104.614V105.45L61.1093 126.249V90.1169L28.3089 60.6726L0 54.7339Z" fill="#97A9DD"/>
<path d="M0 52.5256L28.6583 60.3608L119.561 7.83517L90.9154 0L0 52.5256Z" fill="#A8A8A8"/>
<path d="M28.6582 60.3615L119.561 7.83594L152 35.3588L61.1093 87.8595L28.6582 60.3615Z" fill="#999999"/>
<path d="M0 52.5249V54.8081L28.6208 63.1548L61.1093 90.1163V87.858L28.6583 60.3601L0 52.5249Z" fill="#E2E2E2"/>
<path d="M151.975 35.3696L61.1094 87.8578V90.116L151.975 37.6029V35.3696Z" fill="#C1C1C1"/>
<path d="M30.6297 59.2268L1.97144 51.4041L2.80735 50.9175L31.4531 58.7526L30.6297 59.2268Z" fill="#999999"/>
<path d="M33.574 57.5168L4.91577 49.6941L5.75169 49.2075L34.3975 57.0427L33.574 57.5168Z" fill="#999999"/>
<path d="M36.5059 55.8195L7.84766 47.9968L8.68357 47.5103L37.3294 55.3454L36.5059 55.8195Z" fill="#999999"/>
<path d="M39.438 54.1359L10.7798 46.3008L11.6157 45.8267L40.2615 53.6618L39.438 54.1359Z" fill="#999999"/>
<path d="M42.3824 52.4382L13.7241 44.603L14.56 44.1289L43.2058 51.9516L42.3824 52.4382Z" fill="#999999"/>
<path d="M45.3145 50.7412L16.6562 42.906L17.4922 42.4194L46.138 50.2546L45.3145 50.7412Z" fill="#999999"/>
<path d="M48.2586 49.0451L19.6003 41.2099L20.4363 40.7358L49.082 48.5585L48.2586 49.0451Z" fill="#999999"/>
<path d="M51.191 47.3481L22.5327 39.5129L23.3686 39.0264L52.0144 46.8615L51.191 47.3481Z" fill="#999999"/>
<path d="M54.1226 45.6508L25.4644 37.8157L26.3003 37.3291L54.9461 45.1643L54.1226 45.6508Z" fill="#999999"/>
<path d="M57.067 43.9551L28.4087 36.1199L29.2446 35.6333L57.8904 43.4809L57.067 43.9551Z" fill="#999999"/>
<path d="M59.9988 42.2578L31.3406 34.4226L32.1765 33.936L60.8223 41.7712L59.9988 42.2578Z" fill="#999999"/>
<path d="M62.9432 40.5607L34.2849 32.7256L35.1208 32.2515L63.7666 40.0866L62.9432 40.5607Z" fill="#999999"/>
<path d="M65.8755 38.864L37.2173 31.0288L38.0532 30.5547L66.699 38.3774L65.8755 38.864Z" fill="#999999"/>
<path d="M68.8201 37.155L40.1619 29.3323L40.9978 28.8457L69.6436 36.6809L68.8201 37.155Z" fill="#999999"/>
<path d="M71.752 35.4702L43.0938 27.635L43.9297 27.1484L72.5755 34.9836L71.752 35.4702Z" fill="#999999"/>
<path d="M74.6836 33.7741L46.0254 25.9389L46.8738 25.4648L75.5196 33.3L74.6836 33.7741Z" fill="#999999"/>
<path d="M77.628 32.0766L48.9697 24.2415L49.8057 23.7549L78.4514 31.6025L77.628 32.0766Z" fill="#999999"/>
<path d="M80.5599 30.3799L51.9016 22.5447L52.7375 22.0581L81.3833 29.8933L80.5599 30.3799Z" fill="#999999"/>
<path d="M83.4918 28.6833L54.8335 20.8481L55.6694 20.374L84.3152 28.1967L83.4918 28.6833Z" fill="#999999"/>
<path d="M86.4366 26.9865L57.7783 19.1514L58.6142 18.6772L87.26 26.4999L86.4366 26.9865Z" fill="#999999"/>
<path d="M89.3687 25.2766L60.7104 17.4539L61.5464 16.9673L90.1922 24.8025L89.3687 25.2766Z" fill="#999999"/>
<path d="M92.3004 23.5808L63.6421 15.7581L64.4905 15.2715L93.1363 23.1067L92.3004 23.5808Z" fill="#999999"/>
<path d="M95.2322 21.8955L66.574 14.0603L67.4099 13.5737L96.0557 21.4089L95.2322 21.8955Z" fill="#999999"/>
<path d="M98.1766 20.2002L69.5183 12.365L70.3542 11.8784L99 19.7136L98.1766 20.2002Z" fill="#999999"/>
<path d="M101.109 18.4899L72.4507 10.6672L73.2866 10.1807L101.932 18.0158L101.109 18.4899Z" fill="#999999"/>
<path d="M104.054 16.8056L75.3953 8.97047L76.2312 8.48389L104.877 16.3191L104.054 16.8056Z" fill="#999999"/>
<path d="M106.985 15.0969L78.3269 7.27418L79.1628 6.7876L107.809 14.6228L106.985 15.0969Z" fill="#999999"/>
<path d="M109.917 13.4001L81.2588 5.5774L82.1072 5.09082L110.753 12.926L109.917 13.4001Z" fill="#999999"/>
<path d="M112.861 11.7028L84.2031 3.88013L85.039 3.39355L113.685 11.2287L112.861 11.7028Z" fill="#999999"/>
<path d="M115.793 10.0065L87.135 2.18385L87.9709 1.69727L116.617 9.53244L115.793 10.0065Z" fill="#999999"/>
<path d="M118.738 8.32175L90.0793 0.486579L90.9153 0L119.561 7.83517L118.738 8.32175Z" fill="#999999"/>
<path d="M30.6296 59.2256L63.0807 86.7235L63.9041 86.2494L31.4531 58.7515L30.6296 59.2256Z" fill="#8C8C8C"/>
<path d="M33.5615 57.5288L66.0126 85.0267L66.836 84.5526L34.385 57.0547L33.5615 57.5288Z" fill="#8C8C8C"/>
<path d="M36.5059 55.832L68.9569 83.33L69.7804 82.8559L37.3293 55.3579L36.5059 55.832Z" fill="#8C8C8C"/>
<path d="M39.438 54.1347L71.8891 81.6327L72.7125 81.1586L40.2614 53.6606L39.438 54.1347Z" fill="#8C8C8C"/>
<path d="M42.3823 52.4385L74.8334 79.9364L75.6444 79.4623L43.2058 51.9644L42.3823 52.4385Z" fill="#8C8C8C"/>
<path d="M45.3147 50.7412L77.7658 78.2516L78.5892 77.765L46.1381 50.2671L45.3147 50.7412Z" fill="#8C8C8C"/>
<path d="M48.2463 49.0439L80.7099 76.5544L81.5209 76.0678L49.0823 48.5698L48.2463 49.0439Z" fill="#8C8C8C"/>
<path d="M51.1907 47.3486L83.6418 74.859L84.4652 74.3725L52.0141 46.8745L51.1907 47.3486Z" fill="#8C8C8C"/>
<path d="M54.1226 45.6513L86.5737 73.1618L87.3971 72.6752L54.9585 45.1772L54.1226 45.6513Z" fill="#8C8C8C"/>
<path d="M57.0669 43.9536L89.518 71.464L90.3414 70.9774L57.8903 43.4795L57.0669 43.9536Z" fill="#8C8C8C"/>
<path d="M59.999 42.2578L92.4501 69.7682L93.2735 69.2941L60.8349 41.7837L59.999 42.2578Z" fill="#8C8C8C"/>
<path d="M62.9434 40.5605L95.3944 68.071L96.2179 67.5969L63.7668 40.0864L62.9434 40.5605Z" fill="#8C8C8C"/>
<path d="M65.8755 38.8642L98.3266 66.3747L99.15 65.9006L66.6989 38.3901L65.8755 38.8642Z" fill="#8C8C8C"/>
<path d="M68.8201 37.1675L101.271 64.6779L102.095 64.2038L69.6435 36.6934L68.8201 37.1675Z" fill="#8C8C8C"/>
<path d="M71.7515 35.4702L104.203 62.9806L105.026 62.5065L72.5749 34.9961L71.7515 35.4702Z" fill="#8C8C8C"/>
<path d="M74.696 33.7739L107.147 61.2843L107.971 60.8102L75.5195 33.2998L74.696 33.7739Z" fill="#8C8C8C"/>
<path d="M77.6279 32.0766L110.079 59.5871L110.902 59.113L78.4514 31.6025L77.6279 32.0766Z" fill="#8C8C8C"/>
<path d="M80.5601 30.3799L113.024 57.8903L113.847 57.4162L81.396 29.9058L80.5601 30.3799Z" fill="#8C8C8C"/>
<path d="M83.5049 28.6704L115.968 56.1933L116.792 55.7192L84.3283 28.1963L83.5049 28.6704Z" fill="#8C8C8C"/>
<path d="M86.4365 26.9866L118.9 54.497L119.724 54.0229L87.2724 26.5L86.4365 26.9866Z" fill="#8C8C8C"/>
<path d="M89.3562 25.289L121.807 52.7995L122.631 52.3254L90.1796 24.8149L89.3562 25.289Z" fill="#8C8C8C"/>
<path d="M92.2876 23.5937L124.739 51.1042L125.562 50.6301L93.111 23.1196L92.2876 23.5937Z" fill="#8C8C8C"/>
<path d="M95.2322 21.8955L127.683 49.4059L128.507 48.9318L96.0556 21.4214L95.2322 21.8955Z" fill="#8C8C8C"/>
<path d="M98.1643 20.2002L130.615 47.7106L131.439 47.2365L99.0002 19.7261L98.1643 20.2002Z" fill="#8C8C8C"/>
<path d="M101.109 18.5029L133.56 46.0133L134.383 45.5392L101.932 18.0288L101.109 18.5029Z" fill="#8C8C8C"/>
<path d="M104.041 16.8056L136.492 44.3161L137.315 43.842L104.864 16.3315L104.041 16.8056Z" fill="#8C8C8C"/>
<path d="M106.985 15.1218L139.436 42.6198L140.26 42.1457L107.809 14.6353L106.985 15.1218Z" fill="#8C8C8C"/>
<path d="M109.917 13.4251L142.368 40.923L143.192 40.4489L110.741 12.9385L109.917 13.4251Z" fill="#8C8C8C"/>
<path d="M112.861 11.7273L145.312 39.2253L146.136 38.7512L113.685 11.2407L112.861 11.7273Z" fill="#8C8C8C"/>
<path d="M115.793 10.032L148.245 37.5299L149.068 37.0558L116.617 9.54541L115.793 10.032Z" fill="#8C8C8C"/>
<path d="M118.726 8.33424L151.177 35.8322L152 35.3581L119.562 7.84766L118.726 8.33424Z" fill="#8C8C8C"/>
<path d="M152 71.4644L61.0842 123.953V126.248L152 73.76V71.4644Z" fill="#C1C1C1"/>
<path d="M25.2024 103.218V105.452L61.0845 126.25V123.954L25.2024 103.218Z" fill="#D3D3D3"/>
<path d="M6.48772 92.425L0 88.6821V90.8655L6.48772 94.5835V92.425Z" fill="#D3D3D3"/>
<path opacity="0.5" d="M33.7986 104.216V109.306L39.6251 112.687V107.584L33.7986 104.216Z" fill="#777777"/>
<path d="M30.6296 101.621V106.711L36.4561 110.092V104.989L30.6296 101.621Z" fill="#EAEAEA"/>
<path d="M36.4558 104.989V110.092L39.6248 108.282V103.205L36.4558 104.989Z" fill="#C1C1C1"/>
<path d="M30.6296 101.621L36.4561 104.989L39.6251 103.205L33.7487 99.8115L30.6296 101.621Z" fill="white"/>
<path d="M33 105.949C32.9996 106.438 33.1287 106.919 33.3742 107.342C33.6196 107.764 33.9726 108.115 34.3974 108.357C35.1709 108.669 35.7822 108.095 35.7448 107.11C35.7528 106.618 35.6327 106.133 35.3965 105.702C35.1602 105.271 34.8159 104.909 34.3974 104.652C33.5864 104.34 32.9751 104.926 33 105.949Z" fill="#999999"/>
<path d="M33.4866 106.137C33.4863 106.456 33.5704 106.769 33.7304 107.045C33.8903 107.321 34.1204 107.55 34.3974 107.709C34.8965 107.908 35.2957 107.534 35.2832 106.86C35.2748 106.539 35.1829 106.225 35.0167 105.949C34.8505 105.674 34.6156 105.446 34.335 105.288C33.8609 105.101 33.4741 105.476 33.4866 106.137Z" fill="#777777"/>
<path opacity="0.5" d="M40.4236 108.059V113.149L46.2501 116.53V111.427L40.4236 108.059Z" fill="#777777"/>
<path d="M37.2422 105.463V110.554L43.0811 113.935V108.832L37.2422 105.463Z" fill="#EAEAEA"/>
<path d="M43.0811 108.831V113.934L46.25 112.138V107.047L43.0811 108.831Z" fill="#C1C1C1"/>
<path d="M37.2422 105.463L43.0811 108.832L46.2501 107.047L40.3738 103.654L37.2422 105.463Z" fill="white"/>
<path d="M39.6248 109.793C39.631 110.288 39.7682 110.773 40.0224 111.198C40.2766 111.623 40.6387 111.973 41.072 112.213C41.8456 112.525 42.4444 111.939 42.4195 110.965C42.4123 110.472 42.2746 109.989 42.0204 109.566C41.7662 109.143 41.4046 108.795 40.9722 108.557C40.1987 108.196 39.5998 108.77 39.6248 109.793Z" fill="#999999"/>
<path d="M40.1115 109.992C40.1149 110.315 40.2046 110.631 40.3713 110.907C40.5381 111.183 40.7757 111.41 41.0597 111.564C41.5587 111.776 41.958 111.389 41.933 110.728C41.9317 110.404 41.8444 110.087 41.6799 109.809C41.5155 109.53 41.2799 109.301 40.9973 109.143C40.4857 108.956 40.0865 109.318 40.1115 109.992Z" fill="#777777"/>
<path d="M43.8296 109.368V114.458L49.6561 117.827V112.736L43.8296 109.368Z" fill="#EAEAEA"/>
<path d="M49.656 112.737V117.827L52.8375 116.03V110.94L49.656 112.737Z" fill="#C1C1C1"/>
<path d="M43.8296 109.368L49.6561 112.737L52.8375 110.94L46.9487 107.546L43.8296 109.368Z" fill="white"/>
<path d="M50.4548 113.211L56.2813 116.579L59.4503 114.795L53.5739 111.389L50.4548 113.211Z" fill="white"/>
<path d="M54.0354 91.9393L36.9927 82.1079V88.0841L54.0354 97.9155V91.9393Z" fill="white"/>
<path d="M45.0272 87.3845L37.4915 83.0303V87.2223L45.0272 91.5891V87.3845Z" fill="#999999"/>
<path d="M45.0272 91.0779L38.4896 87.335L37.4915 87.7592L45.0272 92.1384V91.0779Z" fill="#E2E2E2"/>
<path d="M38.4896 83.6042L37.4915 83.0303V87.7588L38.4896 87.3346V83.6042Z" fill="#C1C1C1"/>
<path d="M53.4366 92.2256L45.8884 87.8589V92.0634L53.4366 96.4177V92.2256Z" fill="#999999"/>
<path d="M53.4366 95.906L46.8865 92.1631L45.8884 92.5998L53.4366 96.9665V95.906Z" fill="#E2E2E2"/>
<path d="M46.8865 88.4453L45.8884 87.8589V92.5999L46.8865 92.1632V88.4453Z" fill="#C1C1C1"/>
<path d="M68.1213 91.9393L85.1641 82.1079V88.0841L68.1213 97.9155V91.9393Z" fill="white"/>
<path d="M77.1289 87.3845L84.6646 83.0303V87.2223L77.1289 91.5891V87.3845Z" fill="#999999"/>
<path d="M77.1289 91.0779L83.6665 87.335L84.6646 87.7592L77.1289 92.1384V91.0779Z" fill="#E2E2E2"/>
<path d="M83.667 83.6042L84.6651 83.0303V87.7588L83.667 87.3346V83.6042Z" fill="#C1C1C1"/>
<path d="M68.7202 92.2256L76.2684 87.8589V92.0634L68.7202 96.4177V92.2256Z" fill="#999999"/>
<path d="M68.7202 95.906L75.2703 92.1631L76.2684 92.5998L68.7202 96.9665V95.906Z" fill="#E2E2E2"/>
<path d="M75.27 88.4453L76.2681 87.8589V92.5999L75.27 92.1632V88.4453Z" fill="#C1C1C1"/>
<path d="M130.291 56.007L147.334 46.1631V52.1393L130.291 61.9831V56.007Z" fill="white"/>
<path d="M139.299 51.4524L146.835 47.0981V51.2902L139.299 55.6445V51.4524Z" fill="#999999"/>
<path d="M139.299 55.1335L145.837 51.3906L146.835 51.8273L139.299 56.2065V55.1335Z" fill="#E2E2E2"/>
<path d="M145.837 47.6721L146.835 47.0981V51.8267L145.837 51.39V47.6721Z" fill="#C1C1C1"/>
<path d="M130.89 56.281L138.438 51.9268V56.1313L130.89 60.4856V56.281Z" fill="#999999"/>
<path d="M130.89 59.9744L137.44 56.2314L138.438 56.6681L130.89 61.0349V59.9744Z" fill="#E2E2E2"/>
<path d="M137.44 52.5131L138.438 51.9268V56.6678L137.44 56.2311V52.5131Z" fill="#C1C1C1"/>
<path d="M109.917 67.8844L126.96 58.0405V64.0167L109.917 73.8606V67.8844Z" fill="white"/>
<path d="M118.925 63.3308L126.473 58.9766V63.1686L118.925 67.5229V63.3308Z" fill="#999999"/>
<path d="M118.925 67.011L125.475 63.2681L126.473 63.7047L118.925 68.0715V67.011Z" fill="#E2E2E2"/>
<path d="M125.475 59.5505L126.473 58.9766V63.7051L125.475 63.2684V59.5505Z" fill="#C1C1C1"/>
<path d="M110.528 68.158L118.064 63.8037V68.0083L110.528 72.3625V68.158Z" fill="#999999"/>
<path d="M110.528 71.8513L117.066 68.1084L118.064 68.5326L110.528 72.9118V71.8513Z" fill="#E2E2E2"/>
<path d="M117.066 64.3776L118.064 63.8037V68.5323L117.066 68.1081V64.3776Z" fill="#C1C1C1"/>
<path d="M7.02441 94.0965L25.2025 104.614V83.6538L7.02441 73.1611V94.0965Z" fill="#D3D3D3"/>
<path d="M6.48779 72.8369V94.5833L7.16152 94.184V73.2362L6.48779 72.8369Z" fill="#8A9AD0"/>
<path d="M7.16138 79.3491V79.9854L25.2022 90.4032V89.7669L7.16138 79.3491Z" fill="#AAAAAA"/>
<path d="M7.16138 81.396V82.0198L25.2022 92.4501V91.8138L7.16138 81.396Z" fill="#AAAAAA"/>
<path d="M7.16138 83.4419V84.0657L25.2022 94.4835V93.8597L7.16138 83.4419Z" fill="#AAAAAA"/>
<path d="M7.16138 75.27V75.8938L25.2022 86.3116V85.6878L7.16138 75.27Z" fill="#AAAAAA"/>
<path d="M7.16138 77.3159V77.9397L25.2022 88.3575V87.7212L7.16138 77.3159Z" fill="#AAAAAA"/>
<path d="M7.16138 85.4888V86.1126L25.2022 96.5304V95.9066L7.16138 85.4888Z" fill="#AAAAAA"/>
<path d="M7.16138 87.5347V88.1585L25.2022 98.5763V97.94L7.16138 87.5347Z" fill="#AAAAAA"/>
<path d="M7.16138 89.5679V90.1917L25.2022 100.622V99.9857L7.16138 89.5679Z" fill="#AAAAAA"/>
<path d="M7.16138 91.6138V92.2376L25.2022 102.655V102.032L7.16138 91.6138Z" fill="#AAAAAA"/>
<path d="M17.9038 78.1274L15.3835 76.6801V75.3701L17.9038 76.8174V78.1274Z" fill="white"/>
<path d="M17.9038 78.1272L18.6274 77.728V76.418L17.9038 76.8172V78.1272Z" fill="#C1C1C1"/>
<path d="M15.3835 75.3695L17.9038 76.8167L18.6274 76.4175L16.0822 74.9702L15.3835 75.3695Z" fill="#D3D3D3"/>
<path d="M87.0603 94.3466L89.568 92.8994V91.5894L87.0603 93.0366V94.3466Z" fill="white"/>
<path d="M87.0603 94.3465L86.3242 93.9472V92.6372L87.0603 93.0365V94.3465Z" fill="#C1C1C1"/>
<path d="M89.5681 91.5892L87.0603 93.0364L86.3242 92.6372L88.8694 91.1899L89.5681 91.5892Z" fill="#D3D3D3"/>
<path d="M108.594 81.9321L111.102 80.4848V79.1748L108.594 80.6221V81.9321Z" fill="white"/>
<path d="M108.594 81.9324L107.858 81.5332V80.2231L108.594 80.6224V81.9324Z" fill="#C1C1C1"/>
<path d="M111.102 79.1746L108.594 80.6219L107.858 80.2227L110.403 78.7754L111.102 79.1746Z" fill="#D3D3D3"/>
<path d="M130.241 69.3315L132.749 67.8842V66.5742L130.241 68.0215V69.3315Z" fill="white"/>
<path d="M130.241 69.3313L129.505 68.9321V67.6221L130.241 68.0213V69.3313Z" fill="#C1C1C1"/>
<path d="M132.749 66.574L130.241 68.0213L129.505 67.6221L132.05 66.1748L132.749 66.574Z" fill="#D3D3D3"/>
<path d="M139.049 99.1872C139.049 99.3618 138.8 99.4991 138.488 99.4991C138.176 99.4991 137.914 99.3618 137.914 99.1872C137.914 99.0125 138.164 98.8628 138.488 98.8628C138.812 98.8628 139.049 98.9751 139.049 99.1872Z" fill="#5D588D"/>
</svg>
